<?xml version="1.0" standalone="no"?>
<!DOCTYPE svg PUBLIC "-//W3C//DTD SVG 20010904//EN"
 "http://www.w3.org/TR/2001/REC-SVG-20010904/DTD/svg10.dtd">
<svg version="1.0" xmlns="http://www.w3.org/2000/svg"
 width="1280.000000pt" height="854.000000pt" viewBox="0 0 1280.000000 854.000000"
 preserveAspectRatio="xMidYMid meet">

<g transform="translate(0.000000,854.000000) scale(0.100000,-0.100000)"
fill="#000000" stroke="none">
<path d="M9946 5468 c-14 -20 -12 -24 38 -79 89 -95 385 -497 553 -749 400
-600 613 -1135 808 -2027 26 -123 35 -185 35 -258 0 -107 8 -114 43 -36 30 64
27 179 -8 346 -15 72 -28 139 -30 150 -2 11 -11 47 -20 80 -8 33 -19 78 -24
100 -19 87 -95 347 -147 501 -194 583 -455 1061 -914 1673 -189 251 -252 321
-290 321 -18 0 -34 -8 -44 -22z m969 -1338 c3 -5 1 -10 -4 -10 -6 0 -11 5 -11
10 0 6 2 10 4 10 3 0 8 -4 11 -10z"/>
<path d="M9790 5196 c0 -8 8 -21 18 -28 10 -7 17 -20 17 -28 -1 -8 1 -19 4
-25 12 -22 9 -33 -7 -28 -10 4 -14 3 -10 -2 10 -10 -11 -47 -22 -40 -5 3 -21
-1 -34 -10 -14 -9 -29 -14 -35 -11 -5 3 -20 2 -32 -3 l-24 -8 23 -7 c29 -10
68 -68 127 -191 69 -143 128 -311 133 -376 4 -55 1 -63 -119 -310 -243 -504
-372 -798 -432 -984 -71 -219 -81 -292 -82 -560 0 -207 3 -258 24 -370 63
-356 264 -974 340 -1045 70 -66 95 -81 117 -76 13 4 24 2 24 -3 0 -13 110 -3
129 12 12 10 13 9 7 -1 -6 -11 12 -12 96 -6 56 4 111 11 120 15 23 12 41 11
32 -2 -4 -8 -1 -8 12 -1 20 10 162 16 232 10 9 0 19 -4 22 -8 13 -19 576 -17
595 2 8 7 -59 553 -109 893 -19 127 -36 248 -39 270 -4 25 8 111 30 231 l37
192 -28 143 c-92 487 -265 1018 -466 1434 -71 148 -87 168 -200 252 -56 42
-73 63 -128 158 -158 273 -295 475 -345 508 -22 14 -27 15 -27 3z m-124 -2104
c14 14 128 -57 188 -117 138 -138 215 -345 186 -500 -7 -34 -20 -77 -31 -94
-24 -40 -92 -88 -143 -102 -128 -35 -297 65 -415 246 -45 68 -46 72 -46 150 0
44 4 106 8 137 7 48 11 56 27 53 15 -3 22 5 30 34 11 44 33 66 78 82 56 19
163 -29 234 -105 42 -46 87 -142 102 -221 14 -67 14 -68 15 -24 2 98 -60 237
-143 320 -99 99 -197 118 -268 51 -35 -32 -35 -25 -2 41 30 59 37 65 67 61 86
-14 86 -14 80 4 -4 13 -2 13 10 -3 8 -11 19 -17 23 -13z m378 -257 c-4 -8 -8
-15 -10 -15 -2 0 -4 7 -4 15 0 8 4 15 10 15 5 0 7 -7 4 -15z m114 -280 c-3 -3
-9 2 -12 12 -6 14 -5 15 5 6 7 -7 10 -15 7 -18z m-248 -820 c16 -19 3 -19 -30
0 -24 13 -24 14 -4 15 12 0 27 -7 34 -15z m231 -45 c4 0 6 -7 3 -15 -4 -8 -1
-15 5 -15 13 0 10 -22 -4 -32 -17 -13 -56 -9 -86 9 l-28 17 37 23 c20 12 43
20 50 18 8 -3 18 -5 23 -5z m-34 -394 c4 -5 3 -6 -4 -2 -7 4 -13 2 -13 -3 0
-14 13 -14 28 1 7 7 12 8 12 4 0 -5 6 -3 14 3 10 9 16 8 26 -4 7 -8 17 -12 23
-8 6 3 7 1 3 -6 -4 -6 -3 -17 3 -24 6 -8 6 -18 1 -27 -13 -20 -12 -33 0 -25 6
3 10 1 10 -5 0 -7 -15 -11 -37 -10 -21 1 -40 1 -43 0 -3 -1 -20 -3 -38 -5
l-33 -2 7 51 c6 46 5 49 -10 37 -9 -8 -16 -9 -16 -3 0 6 -2 16 -5 24 -6 15 58
19 72 4z m-221 -22 c-3 -7 2 -15 10 -18 8 -3 13 -2 10 2 -2 4 0 14 5 22 8 13
10 13 19 0 5 -8 10 -10 10 -4 0 5 11 10 25 10 14 0 25 -1 25 -2 0 -14 -14 -33
-21 -28 -5 3 -14 2 -20 -2 -8 -4 -7 -9 2 -15 8 -4 19 -3 28 4 11 10 13 9 9 -3
-3 -8 2 -24 11 -35 15 -18 15 -19 -1 -6 -10 7 -18 9 -18 4 0 -5 -16 -9 -34
-10 -24 0 -36 4 -39 16 -3 10 -5 7 -6 -8 -1 -17 -5 -21 -17 -17 -9 3 -20 6
-25 6 -15 0 -10 40 6 46 11 5 12 11 5 24 -13 25 -13 27 5 27 9 0 14 -6 11 -13z
m129 6 c-3 -5 -2 -10 3 -10 6 0 8 -9 5 -21 -5 -18 -7 -19 -21 -5 -13 12 -13
18 -2 30 14 18 25 22 15 6z"/>
<path d="M9436 2803 c4 -21 15 -61 26 -89 15 -42 22 -51 37 -47 18 5 18 7 -5
56 -13 29 -24 62 -24 74 0 12 -9 27 -21 33 -19 11 -20 9 -13 -27z"/>
<path d="M9611 2731 c-17 -21 -31 -44 -31 -50 0 -6 -4 -11 -10 -11 -5 0 -7 -7
-3 -16 5 -13 8 -13 15 -2 7 9 8 4 3 -15 -4 -21 -2 -28 7 -25 14 5 16 41 3 73
-4 11 10 1 31 -23 36 -41 41 -43 67 -33 22 9 28 8 24 -1 -2 -7 -10 -12 -16
-10 -6 1 -11 -5 -11 -14 0 -10 6 -14 15 -10 8 3 15 1 15 -3 0 -5 -19 -11 -42
-13 -33 -3 -46 0 -55 13 -8 10 -21 15 -33 12 -13 -4 -20 0 -20 10 0 8 -11 22
-25 31 -23 15 -25 15 -25 0 0 -14 -2 -15 -17 -3 -14 12 -14 10 2 -20 22 -44
98 -125 141 -152 38 -23 41 -33 19 -55 -13 -13 -13 -18 -1 -29 23 -24 87 -45
133 -45 45 0 116 26 111 41 -7 19 -254 388 -260 389 -3 0 -20 -18 -37 -39z
m26 -48 c-3 -10 -5 -4 -5 12 0 17 2 24 5 18 2 -7 2 -21 0 -30z m-84 -74 c-3
-10 -11 -15 -19 -12 -21 8 -17 32 5 30 12 -1 17 -7 14 -18z m147 -125 c0 -8
-4 -12 -10 -9 -5 3 -10 13 -10 21 0 8 5 12 10 9 6 -3 10 -13 10 -21z m34 0 c4
-10 1 -14 -6 -12 -15 5 -23 28 -10 28 5 0 13 -7 16 -16z m34 -3 c3 -8 -1 -12
-9 -9 -7 2 -15 10 -17 17 -3 8 1 12 9 9 7 -2 15 -10 17 -17z m-8 -83 c0 -6 -6
-5 -15 2 -8 7 -15 14 -15 16 0 2 7 1 15 -2 8 -4 15 -11 15 -16z m50 13 c0 -6
-9 -9 -20 -8 -11 1 -20 5 -20 9 0 4 9 8 20 8 11 0 20 -4 20 -9z"/>
<path d="M9620 2630 c0 -5 5 -10 10 -10 6 0 10 5 10 10 0 6 -4 10 -10 10 -5 0
-10 -4 -10 -10z"/>
<path d="M9862 2559 c3 -8 13 -13 22 -13 9 1 16 -2 16 -7 0 -5 7 -9 15 -9 21
0 19 17 -2 23 -10 2 -26 8 -37 12 -14 6 -17 5 -14 -6z"/>
<path d="M9625 2420 c-3 -5 1 -10 10 -10 9 0 13 5 10 10 -3 6 -8 10 -10 10 -2
0 -7 -4 -10 -10z"/>
<path d="M9918 1233 c6 -2 10 -9 7 -14 -4 -5 2 -6 11 -2 13 5 15 3 9 -7 -6
-10 -4 -12 9 -7 10 4 21 7 24 7 4 1 -8 7 -27 15 -18 8 -36 15 -40 14 -3 0 0
-3 7 -6z"/>
<path d="M9645 5020 c-3 -5 -1 -10 4 -10 6 0 11 5 11 10 0 6 -2 10 -4 10 -3 0
-8 -4 -11 -10z"/>
<path d="M9609 4913 c-1 -5 -1 -11 0 -15 0 -4 -6 -5 -15 -1 -14 5 -14 3 -3
-14 11 -19 15 -19 43 -8 43 18 47 45 7 45 -17 0 -32 -3 -32 -7z"/>
<path d="M9377 4550 c-40 -46 -178 -310 -171 -323 4 -7 4 -9 -1 -5 -10 10 -29
-22 -117 -193 -40 -80 -68 -146 -64 -155 3 -8 2 -13 -3 -10 -5 3 -12 -1 -15
-10 -5 -13 -2 -15 16 -10 13 3 26 6 31 6 4 0 7 7 7 16 0 18 46 109 69 137 14
17 37 25 27 9 -3 -5 -7 -36 -10 -71 -2 -34 -10 -69 -17 -77 -14 -17 -16 -16
43 -38 45 -16 178 -128 178 -149 0 -4 14 -22 31 -40 17 -18 28 -27 25 -20 -7
12 43 65 54 58 4 -3 12 7 18 20 11 24 32 35 32 16 0 -4 -11 -39 -25 -76 -13
-38 -23 -71 -20 -73 2 -3 25 37 49 89 54 113 59 112 11 -1 -34 -80 -44 -114
-27 -95 5 6 16 30 26 55 9 25 38 90 65 145 38 78 46 101 34 103 -8 2 -12 9 -9
15 2 7 25 57 50 112 66 144 65 152 -46 385 -78 164 -117 210 -176 210 -32 0
-45 -6 -65 -30z m-127 -284 c0 -2 -8 -10 -17 -17 -16 -13 -17 -12 -4 4 13 16
21 21 21 13z m-70 -210 c0 -2 -8 -10 -17 -17 -16 -13 -17 -12 -4 4 13 16 21
21 21 13z m411 -249 c-10 -9 -11 -8 -5 6 3 10 9 15 12 12 3 -3 0 -11 -7 -18z
m-20 -44 c-12 -20 -14 -14 -5 12 4 9 9 14 11 11 3 -2 0 -13 -6 -23z"/>
<path d="M6490 4288 c0 -12 89 -20 147 -13 103 13 93 20 -28 20 -65 0 -119 -3
-119 -7z"/>
<path d="M7085 4164 c-12 -6 -39 -14 -60 -18 -25 -5 -34 -11 -28 -17 7 -7 33
-5 79 4 77 17 127 35 104 38 -46 6 -75 4 -95 -7z"/>
<path d="M6915 4120 c-4 -7 3 -8 22 -4 38 9 42 14 10 14 -14 0 -29 -5 -32 -10z"/>
<path d="M6333 3930 c-13 -5 -23 -11 -23 -14 0 -7 40 6 46 15 6 10 6 10 -23
-1z"/>
<path d="M6378 3933 c6 -2 18 -2 25 0 6 3 1 5 -13 5 -14 0 -19 -2 -12 -5z"/>
<path d="M6200 3890 c0 -5 7 -7 15 -4 8 4 15 8 15 10 0 2 -7 4 -15 4 -8 0 -15
-4 -15 -10z"/>
<path d="M8210 3792 c-14 -9 -27 -20 -30 -23 -3 -3 -15 -9 -27 -13 -13 -4 -23
-12 -23 -17 0 -5 -10 -13 -23 -18 -13 -5 -37 -21 -54 -35 -16 -14 -33 -23 -37
-19 -3 3 -6 0 -6 -7 0 -7 -3 -11 -6 -7 -4 3 -13 -1 -21 -9 -11 -11 -13 -21 -5
-43 6 -16 9 -31 7 -33 -2 -2 7 -5 20 -6 16 -1 25 3 25 13 0 8 7 15 15 15 8 0
14 3 14 8 -3 20 2 32 16 32 8 0 22 11 30 24 9 14 30 29 46 35 16 5 28 16 27
23 -2 7 4 13 12 14 8 0 23 4 32 8 9 4 22 5 28 1 5 -3 10 1 10 10 0 11 -5 15
-15 11 -9 -3 -15 0 -15 10 0 8 4 13 9 9 5 -3 12 -1 16 5 3 5 -2 10 -12 10 -15
0 -16 2 -3 10 8 5 11 10 5 9 -5 0 -21 -8 -35 -17z m10 -22 c0 -5 -5 -10 -11
-10 -5 0 -7 5 -4 10 3 6 8 10 11 10 2 0 4 -4 4 -10z m0 -26 c0 -8 -19 -13 -24
-6 -3 5 1 9 9 9 8 0 15 -2 15 -3z m-202 -141 c-10 -2 -18 -9 -18 -14 0 -6 5
-7 10 -4 6 3 10 1 10 -4 0 -14 -17 -14 -25 -1 -9 15 4 30 23 29 15 -1 15 -2 0
-6z"/>
<path d="M8315 3761 c-3 -5 -2 -12 3 -15 5 -3 9 1 9 9 0 17 -3 19 -12 6z"/>
<path d="M8321 3689 c-1 -9 7 -23 17 -30 15 -12 16 -12 6 1 -6 8 -14 22 -17
30 -5 13 -6 12 -6 -1z"/>
<path d="M8395 3680 c-3 -6 1 -7 9 -4 18 7 21 14 7 14 -6 0 -13 -4 -16 -10z"/>
<path d="M8260 3672 c0 -5 7 -15 15 -22 8 -7 15 -9 15 -6 0 4 -7 14 -15 22 -8
9 -15 11 -15 6z"/>
<path d="M7950 3619 c0 -5 -4 -8 -9 -4 -5 3 -12 1 -16 -5 -3 -5 3 -10 14 -10
12 0 21 7 21 15 0 8 -2 15 -5 15 -3 0 -5 -5 -5 -11z"/>
<path d="M8913 3592 c-34 -80 -27 -111 22 -112 25 0 41 26 40 63 -1 15 3 27 7
27 4 0 8 6 8 14 0 14 42 26 92 26 23 0 29 -4 24 -16 -3 -9 -6 -18 -6 -20 0 -2
-11 -4 -24 -4 -14 0 -28 -5 -32 -12 -4 -6 -3 -8 3 -5 6 4 14 0 17 -9 10 -25 6
-41 -5 -19 -7 14 -8 9 -3 -20 7 -51 10 -55 38 -55 14 0 30 10 40 25 9 14 23
25 31 25 19 0 18 12 -4 75 l-18 50 -108 0 -108 0 -14 -33z"/>
<path d="M8376 3534 c-6 -15 -4 -15 11 -3 10 7 20 15 22 16 2 2 -3 3 -11 3 -9
0 -19 -7 -22 -16z"/>
<path d="M8030 3530 c0 -5 5 -10 11 -10 5 0 7 5 4 10 -3 6 -8 10 -11 10 -2 0
-4 -4 -4 -10z"/>
<path d="M8496 3456 c6 -16 44 -29 44 -15 0 5 -7 9 -15 9 -8 0 -15 5 -15 10 0
6 -4 10 -10 10 -5 0 -7 -6 -4 -14z"/>
<path d="M8873 3339 c10 -6 41 -12 69 -14 52 -3 61 -7 64 -29 2 -14 -6 -14
-71 -1 -11 2 -24 4 -29 4 -5 1 -6 4 -3 8 4 3 -10 12 -30 19 -29 10 -40 10 -52
1 -8 -7 -16 -11 -18 -9 -9 7 -104 -51 -114 -70 -23 -43 15 -309 56 -387 35
-68 198 -98 297 -53 79 35 105 96 140 325 l21 138 -20 27 c-22 30 -43 34 -223
46 -79 4 -100 3 -87 -5z m-65 -92 c2 -11 -1 -15 -11 -12 -16 7 -19 37 -3 32 6
-2 12 -11 14 -20z m68 9 c15 -11 22 -12 33 -3 12 9 13 9 8 0 -5 -8 2 -14 20
-19 44 -9 56 -14 51 -20 -3 -3 -37 0 -74 7 -98 16 -99 16 -84 34 15 19 21 19
46 1z"/>
<path d="M8327 3333 c-10 -10 -8 -41 3 -48 5 -3 8 7 7 25 -1 16 -2 30 -3 30 0
0 -4 -3 -7 -7z"/>
<path d="M8270 3290 c-12 -11 -25 -18 -29 -16 -3 3 -22 -9 -41 -26 -19 -16
-30 -27 -24 -24 6 3 20 -1 30 -9 16 -12 17 -17 6 -34 -7 -12 -8 -21 -2 -21 13
0 31 36 22 45 -4 5 -1 5 6 1 7 -5 11 -14 8 -22 -3 -8 -1 -14 4 -14 6 0 10 -4
10 -10 0 -5 -3 -9 -7 -9 -21 3 -33 -4 -56 -34 -17 -23 -21 -34 -12 -34 8 0 12
4 9 8 -10 17 21 14 39 -4 10 -10 22 -16 25 -12 4 4 -1 11 -11 16 -9 6 -15 14
-12 20 4 5 1 9 -5 9 -6 0 -8 5 -5 11 5 6 12 4 21 -8 12 -16 15 -16 24 -3 5 8
10 13 11 10 0 -3 2 -20 5 -39 4 -36 14 -55 14 -29 0 9 7 18 15 22 18 7 20 -10
3 -18 -10 -5 -10 -7 0 -12 13 -6 17 -36 5 -31 -9 2 -13 -6 -13 -25 0 -7 7 -2
16 10 8 12 23 22 32 22 15 1 15 2 -2 15 -11 8 -17 18 -13 21 11 11 37 -24 31
-40 -4 -11 -1 -16 10 -16 9 0 16 -4 16 -10 0 -16 -22 -12 -36 8 -7 9 -14 12
-14 5 0 -6 -7 -19 -16 -28 -16 -15 -14 -16 20 -10 32 7 35 5 29 -11 -4 -12 -8
-14 -11 -5 -3 8 -8 7 -17 -6 -13 -17 -15 -16 -38 11 -18 20 -27 25 -32 16 -5
-8 -4 -11 3 -6 12 7 21 -12 14 -36 -5 -20 -57 -40 -89 -34 -13 3 -22 2 -22 -2
3 -19 -2 -23 -16 -12 -9 7 -15 8 -15 2 0 -5 -22 -18 -50 -28 -45 -16 -54 -24
-51 -46 0 -3 -13 -3 -29 2 -20 6 -28 5 -24 -1 3 -6 0 -9 -7 -8 -8 2 -31 -3
-52 -10 -33 -11 -36 -15 -25 -29 10 -12 10 -14 1 -8 -9 4 -13 1 -13 -9 0 -11
-5 -15 -15 -11 -18 7 -20 -8 -2 -22 15 -12 57 -5 57 10 0 5 5 6 10 3 6 -3 10
0 11 7 0 7 7 -3 14 -22 11 -29 21 -27 16 3 -1 5 3 6 9 2 5 -3 10 -15 10 -27 0
-17 4 -20 30 -15 16 4 32 2 35 -3 4 -7 13 -6 26 0 10 6 19 8 19 4 0 -3 7 -1
15 6 12 10 15 10 15 -2 0 -10 8 -13 30 -10 16 2 27 8 24 13 -3 5 2 9 11 9 9 0
14 -4 11 -9 -3 -5 4 -11 15 -14 14 -4 19 -1 16 7 -3 7 1 13 8 13 10 0 11 -5 4
-19 -9 -17 -18 -20 -65 -21 -13 -1 -20 -6 -17 -13 2 -6 -5 -14 -16 -17 -12 -3
-19 -1 -16 3 3 4 -3 6 -14 3 -11 -3 -21 -17 -25 -35 -8 -40 -8 -50 2 -45 4 3
16 1 27 -3 11 -4 34 -1 52 6 18 8 34 10 37 5 7 -11 -4 -43 -18 -53 -7 -6 -6
-11 4 -18 23 -15 40 -12 40 7 0 9 3 14 6 10 10 -9 -6 -45 -22 -51 -8 -3 -12
-2 -9 4 3 6 -1 10 -9 10 -8 0 -18 -5 -22 -12 -5 -7 -3 -8 7 -3 12 8 12 6 0 -8
-7 -9 -17 -14 -22 -11 -5 3 -12 -2 -15 -11 -6 -14 -8 -14 -26 2 -17 16 -18 16
-12 0 4 -13 -2 -20 -23 -30 -18 -7 -28 -18 -26 -27 3 -10 0 -9 -7 3 -6 9 -16
15 -21 12 -5 -4 -22 -9 -37 -11 -15 -3 -31 -12 -35 -20 -7 -13 -11 -13 -24 -2
-15 12 -15 11 -4 -9 6 -13 16 -23 22 -23 6 0 7 5 3 11 -5 8 1 10 20 7 23 -5
26 -3 21 16 -5 18 -4 18 8 -3 10 -17 16 -20 19 -10 4 12 9 12 27 1 11 -7 21
-9 21 -5 0 5 12 14 27 21 23 10 29 10 36 -3 4 -8 15 -15 22 -15 8 0 15 -4 15
-10 0 -5 3 -9 8 -9 24 4 42 -3 42 -17 0 -9 5 -12 12 -8 7 5 9 2 5 -9 -4 -11
-2 -14 8 -11 7 3 12 14 10 25 -2 11 0 17 5 14 5 -3 7 -14 5 -25 -2 -11 1 -20
7 -20 6 0 8 -11 3 -27 -6 -27 -6 -27 10 -8 15 19 16 19 11 1 -6 -16 -4 -17 9
-6 13 11 14 10 6 -11 -5 -13 -15 -23 -23 -21 -7 1 -2 -6 12 -17 23 -18 10 -25
-16 -8 -7 4 -18 -1 -25 -10 -12 -15 -12 -16 3 -10 10 3 20 2 23 -3 4 -6 -3
-10 -14 -10 -12 0 -21 -4 -21 -9 0 -5 -9 -11 -20 -14 -11 -3 -20 -1 -20 4 0 5
-5 9 -11 9 -5 0 -7 -5 -3 -11 4 -8 -1 -9 -17 -4 -23 7 -24 7 -4 -9 19 -15 19
-15 -10 -17 -16 -1 -34 -1 -38 0 -5 1 -6 -3 -3 -8 3 -4 -12 -11 -34 -15 -51
-8 -45 -32 8 -31 24 0 43 7 53 19 11 14 18 16 23 8 4 -7 2 -12 -4 -12 -7 0 -5
-7 4 -16 18 -18 21 -34 6 -34 -5 0 -12 1 -14 3 -2 1 -12 -5 -22 -14 -19 -16
-107 -59 -131 -63 -7 -1 -16 -5 -19 -9 -4 -4 -15 -7 -25 -7 -10 0 -16 -7 -15
-17 1 -13 -9 -19 -34 -23 -19 -3 -30 -8 -24 -12 15 -10 84 -7 84 4 0 4 11 8
24 8 13 0 36 6 51 14 15 8 36 13 46 11 11 -2 17 0 14 6 -4 5 6 9 20 9 15 0 35
5 45 10 15 8 21 6 30 -10 9 -16 15 -18 36 -10 32 13 37 12 29 -1 -5 -7 3 -9
24 -6 18 3 29 1 25 -4 -3 -5 -9 -7 -14 -4 -5 3 -11 1 -14 -4 -4 -5 -18 -8 -32
-6 -18 2 -22 -1 -15 -8 6 -6 11 -16 11 -22 0 -5 -4 -4 -9 3 -7 11 -11 10 -24
-2 -10 -10 -18 -12 -22 -6 -3 5 -11 10 -16 10 -6 0 -7 -5 -4 -10 7 -12 -10
-31 -45 -47 -23 -12 -22 -12 13 -7 25 4 37 2 37 -5 0 -7 -4 -9 -10 -6 -5 3
-18 2 -27 -4 -15 -8 -12 -9 12 -6 17 2 38 4 48 4 10 1 15 6 12 11 -3 5 -2 10
4 10 5 0 13 -5 17 -11 4 -8 9 -7 14 2 5 7 25 12 47 11 27 0 32 2 19 7 -19 7
-19 8 2 13 16 5 22 2 23 -10 0 -13 2 -13 8 3 l8 20 5 -20 6 -20 1 20 c1 17 3
18 11 5 8 -12 11 -13 19 -1 6 10 10 10 16 1 10 -16 -32 -53 -52 -46 -11 4 -14
2 -9 -9 4 -10 -1 -15 -14 -15 -11 0 -20 -5 -20 -11 0 -5 -4 -8 -9 -4 -5 3 -16
-2 -24 -10 -9 -8 -21 -15 -27 -15 -13 0 -60 -45 -60 -58 0 -4 9 -18 21 -31 16
-17 24 -19 34 -11 15 12 10 40 -7 40 -6 0 -6 -6 1 -14 8 -9 8 -16 2 -20 -10
-6 -24 10 -27 30 -2 14 27 14 44 1 10 -8 13 -7 10 4 -1 7 2 14 7 14 6 0 9 -6
9 -12 -2 -19 16 -16 23 3 4 11 8 12 13 4 5 -8 14 -8 34 -1 25 10 26 9 16 -9
-6 -11 -13 -20 -16 -20 -3 0 -2 5 1 10 3 6 2 10 -4 10 -5 0 -11 -10 -13 -22
-2 -13 -9 -22 -16 -20 -6 1 -12 -3 -12 -9 0 -6 9 -8 20 -4 11 3 20 2 20 -3 0
-5 -6 -9 -12 -10 -25 -2 -48 -8 -54 -15 -4 -4 -14 -7 -23 -7 -10 1 -7 5 9 14
14 8 29 12 35 9 5 -3 4 0 -2 8 -18 18 -16 27 5 32 9 3 5 4 -10 4 -22 -1 -25
-4 -17 -18 7 -13 2 -19 -22 -30 -30 -12 -31 -13 -13 -27 17 -13 17 -14 2 -8
-25 9 -44 13 -35 9 4 -3 7 -12 6 -21 0 -11 -2 -12 -6 -4 -6 14 -33 16 -33 2 0
-5 -6 -7 -14 -4 -7 3 -16 -2 -20 -12 -5 -14 -4 -15 8 -5 10 8 16 9 21 1 3 -5
0 -12 -7 -14 -7 -2 -21 -7 -30 -10 -11 -3 -18 -15 -18 -32 0 -26 -1 -26 -18
-11 -23 21 -36 22 -29 3 3 -8 -5 -19 -18 -26 -14 -7 -22 -17 -20 -21 7 -11
-29 -21 -49 -13 -9 3 -16 1 -16 -6 0 -16 58 -10 89 9 30 19 91 22 91 5 0 -14
-28 -27 -41 -18 -5 3 -9 0 -9 -6 0 -6 -5 -8 -10 -5 -6 4 -8 11 -5 16 4 5 1 9
-5 9 -8 0 -10 -9 -6 -25 4 -14 2 -26 -4 -26 -5 -1 -16 -2 -22 -3 -7 -1 -12 -8
-10 -15 1 -7 -2 -10 -7 -7 -5 4 -12 2 -15 -3 -4 -5 -17 -8 -31 -6 -14 1 -28
-2 -32 -8 -3 -6 -1 -7 4 -4 6 4 14 0 17 -9 4 -9 11 -12 18 -7 20 12 57 10 62
-4 3 -7 -4 -17 -14 -23 -14 -7 -20 -7 -20 0 0 5 7 10 17 10 9 0 14 3 10 6 -3
4 -14 3 -24 -1 -10 -5 -22 -7 -26 -6 -5 1 -11 -8 -14 -19 -3 -11 -14 -20 -24
-20 -11 0 -19 -5 -19 -11 0 -5 -4 -8 -9 -4 -16 9 -91 -7 -91 -20 0 -7 10 -12
23 -11 12 1 36 -7 52 -18 28 -19 29 -19 15 -1 -14 17 -13 18 3 12 44 -17 68
-18 82 -7 9 7 18 10 22 6 3 -3 0 -6 -8 -7 -8 0 6 -8 31 -18 40 -15 46 -15 57
-1 8 10 12 11 13 3 0 -7 5 -13 11 -13 6 0 8 7 4 17 -5 14 -4 15 6 6 9 -9 17
-9 33 -1 18 10 19 9 9 -3 -10 -12 -8 -15 8 -15 10 0 18 5 17 11 -2 5 2 11 7
11 6 1 9 -2 7 -7 -1 -5 2 -9 8 -9 5 0 10 8 10 18 0 13 2 14 9 3 12 -18 91 -22
91 -4 0 7 -5 13 -12 13 -6 0 -9 3 -5 6 9 9 48 -22 39 -31 -4 -5 -1 -5 6 -1 7
4 10 12 6 17 -3 6 0 10 7 8 32 -4 46 2 59 25 22 42 57 49 125 26 42 -14 86
-21 150 -21 122 -1 127 0 120 11 -3 6 0 10 9 10 8 0 17 -6 19 -12 3 -8 6 -6 6
5 1 12 10 17 36 18 19 1 40 3 45 4 6 1 28 3 49 4 l40 1 -21 60 c-18 56 -22 60
-51 61 -18 1 -38 1 -45 0 -8 -1 -19 5 -25 13 -7 9 -24 17 -38 18 -16 1 -25 7
-22 14 7 18 -18 29 -29 13 -7 -10 -7 -7 -3 9 5 17 2 22 -12 22 -12 0 -19 7
-19 20 0 23 13 27 18 5 2 -13 6 -12 16 5 11 18 10 20 -12 20 -15 0 -26 7 -29
20 -3 11 0 18 7 17 6 -1 12 9 13 23 0 14 1 31 2 38 1 7 5 10 11 7 6 -3 7 1 4
9 -7 18 -35 21 -51 5 -8 -8 -13 -7 -18 3 -5 7 -5 10 -1 6 10 -8 36 14 29 25
-2 4 1 6 8 5 7 -2 13 4 14 12 0 8 11 17 24 20 21 5 20 6 -13 18 -20 8 -34 18
-30 23 3 5 10 6 16 3 6 -4 5 2 -2 15 -6 12 -15 19 -21 16 -5 -4 -6 -12 -3 -18
4 -7 3 -8 -2 -4 -5 5 -9 14 -9 20 0 8 -17 11 -50 8 -45 -3 -48 -2 -36 13 8 9
21 16 30 14 19 -3 140 53 140 66 1 4 -6 6 -14 2 -8 -3 -15 -1 -15 5 0 6 -7 9
-15 6 -8 -4 -17 -1 -21 6 -4 7 -4 9 1 5 10 -9 45 9 45 23 0 6 -4 7 -10 4 -5
-3 -10 -1 -10 5 0 6 -10 8 -25 4 -29 -7 -55 10 -55 37 0 10 -9 20 -19 24 -13
4 -18 13 -15 28 2 12 2 16 -2 10 -8 -19 -24 -16 -17 3 4 11 1 15 -13 12 -11
-2 -22 -7 -25 -12 -10 -13 -44 2 -73 31 -28 27 -34 48 -13 40 6 -2 11 -9 10
-15 -1 -5 4 -13 12 -16 8 -3 15 0 15 7 0 8 4 7 10 -3 5 -8 22 -15 38 -16 17
-1 37 -4 45 -7 11 -4 13 0 10 13 -3 10 -11 21 -19 24 -10 4 -12 11 -6 23 4 10
7 28 7 39 -2 16 2 20 17 16 13 -3 17 0 12 11 -3 9 -15 14 -30 12 -13 -1 -24 2
-24 6 0 5 4 9 9 9 5 0 11 6 14 14 4 11 0 13 -16 10 -12 -3 -26 -6 -32 -7 -5
-2 -16 -6 -23 -11 -18 -11 -27 0 -14 17 7 8 9 17 5 20 -3 4 1 7 10 7 10 0 17
8 16 18 0 9 -3 12 -5 6 -3 -6 -16 -9 -29 -6 -14 2 -31 -1 -39 -7 -10 -8 -16
-9 -21 -1 -3 5 1 10 10 10 9 0 13 4 10 10 -3 5 3 15 15 22 27 17 26 27 -2 21
-13 -3 -19 -1 -13 4 12 9 18 31 17 55 0 9 8 20 19 23 29 9 23 23 -13 31 -22 4
-28 9 -18 13 8 3 15 13 15 21 0 9 8 14 20 13 18 -1 17 1 -6 21 -14 12 -28 30
-32 40 -4 10 -12 14 -19 10 -10 -6 -11 -4 0 7 19 20 14 31 -10 23 -21 -6 -21
-6 -5 10 9 10 17 23 17 29 0 7 -5 6 -11 -3 -9 -12 -10 -11 -6 7 3 12 0 24 -7
26 -8 3 -8 8 1 17 10 11 14 10 19 -3 3 -9 11 -14 16 -10 7 4 9 -4 6 -20 -3
-15 -1 -24 4 -21 6 4 8 17 5 30 -2 13 1 26 7 29 6 2 1 2 -11 0 -18 -5 -21 -2
-19 24 1 16 -1 28 -5 25 -4 -2 -10 0 -14 6 -3 5 0 10 8 10 20 0 42 29 42 57 1
29 -2 29 -25 1 -10 -13 -22 -19 -27 -14 -4 5 -2 11 5 13 6 3 12 12 12 20 0 14
-3 13 -22 -3 -12 -10 -18 -13 -13 -5 6 11 4 13 -7 8 -11 -4 -18 2 -22 19 -4
14 -11 22 -15 19 -5 -3 -8 6 -6 20 2 24 -5 29 -32 26 -6 -1 -14 3 -18 9 -3 5
0 7 8 4 10 -4 14 2 12 18 -1 13 -3 33 -4 46 -1 22 -2 22 -17 7 -13 -12 -19
-13 -24 -5 -6 9 -9 9 -13 -1 -4 -10 -6 -9 -6 3 -1 9 5 23 13 31 9 9 11 19 5
28 -7 11 -9 10 -9 -4 0 -10 -4 -16 -10 -12 -6 4 -6 15 1 32 5 14 7 28 4 31 -3
3 -5 0 -5 -6 0 -7 -4 -12 -10 -12 -5 0 -10 7 -10 15 0 8 5 15 10 15 6 0 10 9
10 19 0 11 5 23 10 26 6 4 8 11 4 16 -3 6 -12 3 -19 -8 -7 -10 -11 -21 -9 -24
2 -4 -3 -12 -11 -19 -13 -11 -14 -10 -9 6 4 10 12 25 17 32 7 9 5 18 -8 30
-17 15 -17 15 -6 0 9 -13 9 -18 -1 -24 -7 -4 -10 -4 -6 1 4 4 3 14 -3 21 -15
18 11 56 30 44 8 -4 10 -13 7 -19 -4 -6 -4 -11 1 -10 21 4 34 -2 27 -13 -4 -6
-3 -8 3 -5 6 4 8 18 6 32 -3 13 -9 22 -14 19 -5 -3 -9 1 -9 9 0 11 -7 13 -21
10 -16 -5 -20 -2 -17 8 3 8 10 13 16 12 7 -2 9 4 5 13 -5 15 -7 15 -15 0 -14
-25 -30 -9 -17 17 9 17 9 19 0 11 -7 -6 -13 -18 -15 -25 -1 -8 -7 -24 -14 -36
-7 -12 -12 -29 -12 -37 0 -20 -14 -21 -29 -2 -8 10 -8 16 2 25 8 6 16 8 19 5
3 -2 8 2 11 11 4 8 2 15 -4 15 -6 0 -8 8 -4 19 3 10 -1 23 -8 30 -11 8 -19 6
-37 -9z m35 -19 c-9 -8 -36 -10 -30 -2 2 4 11 8 20 8 8 0 13 -3 10 -6z m53
-66 c-3 -3 -9 2 -12 12 -6 14 -5 15 5 6 7 -7 10 -15 7 -18z m-36 -90 c-12 -22
-27 -2 -18 22 5 12 10 13 17 6 7 -7 8 -17 1 -28z m-191 -299 c-9 -11 -6 -17
14 -30 28 -18 34 -39 8 -29 -13 5 -15 2 -10 -11 4 -10 3 -15 -3 -11 -6 3 -10
0 -11 -7 0 -9 -2 -9 -5 -1 -3 7 -14 9 -32 4 -28 -8 -60 -7 -70 3 -3 3 2 6 12
6 15 0 15 2 -1 27 -10 15 -13 24 -6 20 6 -4 14 -1 17 5 4 7 4 3 2 -9 -3 -16 1
-23 11 -23 11 0 14 7 10 23 -5 18 -4 20 6 7 14 -18 37 -24 37 -10 0 6 -5 10
-12 10 -6 0 -3 9 8 19 22 23 42 28 25 7z m79 -31 c5 3 12 0 16 -7 4 -7 4 -10
-1 -6 -4 4 -14 3 -22 -4 -11 -9 -18 -7 -31 7 -12 12 -13 19 -5 22 7 2 10 12 7
21 -3 9 2 4 11 -11 9 -15 20 -25 25 -22z m331 -162 c13 -16 12 -17 -3 -4 -10
7 -18 15 -18 17 0 8 8 3 21 -13z m-278 -108 c-8 -22 -22 -18 -16 5 3 11 9 17
14 15 4 -3 6 -12 2 -20z m347 -25 c0 -5 -2 -10 -4 -10 -3 0 -8 5 -11 10 -3 6
-1 10 4 10 6 0 11 -4 11 -10z m-255 -198 c-3 -3 -11 0 -18 7 -9 10 -8 11 6 5
10 -3 15 -9 12 -12z m10 -29 c3 -10 -1 -13 -12 -11 -9 2 -18 8 -20 14 -5 16
25 13 32 -3z m12 -45 c-3 -8 -6 -5 -6 6 -1 11 2 17 5 13 3 -3 4 -12 1 -19z
m-129 -142 c-7 -8 -17 -12 -22 -9 -4 3 -2 9 5 14 22 13 31 11 17 -5z m42 -150
c0 -2 -7 -9 -15 -16 -12 -10 -15 -10 -15 4 0 9 7 16 15 16 8 0 15 -2 15 -4z
m218 -123 c-14 -17 -28 -16 -28 1 0 8 9 14 19 13 15 -1 17 -4 9 -14z m-40
-172 c-12 -19 -28 -19 -28 0 0 6 4 8 9 4 5 -3 12 -1 16 5 3 5 8 10 11 10 2 0
-1 -9 -8 -19z m-178 -205 c0 -11 -19 -15 -25 -6 -3 5 1 10 9 10 9 0 16 -2 16
-4z m-50 -20 c-7 -7 -13 -7 -20 0 -6 6 -3 10 10 10 13 0 16 -4 10 -10z m720
-40 c0 -2 -7 -7 -16 -10 -8 -3 -12 -2 -9 4 6 10 25 14 25 6z m-795 -226 c3 -5
1 -10 -4 -10 -6 0 -11 5 -11 10 0 6 2 10 4 10 3 0 8 -4 11 -10z"/>
<path d="M8116 2787 c3 -10 9 -15 12 -12 3 3 0 11 -7 18 -10 9 -11 8 -5 -6z"/>
<path d="M8136 3201 c-9 -10 -13 -21 -9 -24 6 -6 -12 -11 -30 -8 -4 1 -10 -6
-13 -14 -4 -8 -17 -15 -30 -15 -27 0 -32 -15 -8 -24 8 -3 12 -2 9 4 -9 14 29
12 43 -2 9 -9 17 -6 37 12 13 12 22 27 19 31 -5 9 9 13 33 10 17 -2 27 19 14
32 -18 18 -47 17 -65 -2z m4 -47 c0 -3 -7 -12 -15 -21 -20 -19 -32 -10 -14 11
14 15 29 21 29 10z"/>
<path d="M8295 3211 c-3 -5 -1 -12 5 -16 5 -3 10 1 10 9 0 18 -6 21 -15 7z"/>
<path d="M8164 3135 c-17 -13 -17 -14 -2 -15 9 0 20 5 23 11 11 17 0 20 -21 4z"/>
<path d="M8435 3137 c-10 -8 -15 -19 -11 -25 4 -7 2 -12 -4 -12 -6 0 -8 -5 -4
-11 5 -8 10 -6 16 5 5 9 12 15 16 12 4 -2 7 7 7 20 0 13 0 24 -1 24 0 0 -8 -6
-19 -13z"/>
<path d="M8466 3117 c3 -10 9 -15 12 -12 3 3 0 11 -7 18 -10 9 -11 8 -5 -6z"/>
<path d="M8146 3097 c3 -10 9 -15 12 -12 3 3 0 11 -7 18 -10 9 -11 8 -5 -6z"/>
<path d="M8431 3076 c-9 -11 -7 -15 9 -19 15 -4 20 0 20 14 0 22 -13 25 -29 5z"/>
<path d="M8205 3051 c3 -5 0 -11 -7 -13 -7 -3 -5 -7 6 -11 9 -4 15 -3 11 2 -3
5 0 11 7 13 7 3 5 7 -6 11 -9 4 -15 3 -11 -2z"/>
<path d="M8150 3036 c7 -7 13 -7 20 0 6 6 3 10 -10 10 -13 0 -16 -4 -10 -10z"/>
<path d="M8261 3043 c-1 -16 10 -43 18 -43 4 0 8 7 8 15 0 8 -4 12 -8 9 -4 -2
-10 4 -12 13 -3 10 -5 13 -6 6z"/>
<path d="M8433 3010 c-1 -11 2 -18 8 -15 11 7 12 35 1 35 -4 0 -8 -9 -9 -20z"/>
<path d="M8266 2938 c3 -5 10 -6 15 -3 13 9 11 12 -6 12 -8 0 -12 -4 -9 -9z"/>
<path d="M8226 2932 c-3 -5 1 -9 9 -9 8 0 12 4 9 9 -3 4 -7 8 -9 8 -2 0 -6 -4
-9 -8z"/>
<path d="M8505 2880 c-3 -6 0 -17 9 -25 18 -19 26 -19 26 -1 0 8 10 13 27 12
14 0 27 5 29 12 1 7 0 8 -2 3 -3 -6 -11 -8 -17 -6 -40 12 -67 14 -72 5z"/>
<path d="M8541 2836 c-9 -10 -8 -15 3 -19 10 -4 14 0 13 14 -2 23 -1 23 -16 5z"/>
<path d="M7971 2704 c0 -11 3 -14 6 -6 3 7 2 16 -1 19 -3 4 -6 -2 -5 -13z"/>
<path d="M8100 2556 c0 -8 4 -17 9 -20 5 -4 7 3 4 14 -6 23 -13 26 -13 6z"/>
<path d="M8038 2536 c-19 -14 -23 -26 -10 -26 4 0 13 9 20 20 14 23 13 24 -10
6z"/>
<path d="M8210 2540 c0 -5 5 -10 10 -10 6 0 10 5 10 10 0 6 -4 10 -10 10 -5 0
-10 -4 -10 -10z"/>
<path d="M8190 2510 c0 -5 5 -10 11 -10 5 0 7 5 4 10 -3 6 -8 10 -11 10 -2 0
-4 -4 -4 -10z"/>
<path d="M8153 2342 c1 -14 5 -18 11 -12 7 7 6 14 -1 21 -9 9 -12 7 -10 -9z"/>
<path d="M7940 2329 c0 -5 -5 -7 -11 -3 -7 4 -10 2 -8 -5 3 -7 8 -12 12 -12 4
1 14 1 22 1 9 0 12 6 9 15 -7 17 -24 20 -24 4z"/>
<path d="M7877 2314 c-11 -11 3 -24 26 -23 12 0 16 3 9 6 -6 2 -10 9 -6 14 6
10 -19 13 -29 3z"/>
<path d="M7 2189 c7 -7 15 -10 18 -7 3 3 -2 9 -12 12 -14 6 -15 5 -6 -5z"/>
<path d="M8054 2025 c-10 -8 -14 -15 -8 -15 6 0 17 7 24 15 16 19 9 19 -16 0z"/>
<path d="M7548 1893 c6 -2 18 -2 25 0 6 3 1 5 -13 5 -14 0 -19 -2 -12 -5z"/>
<path d="M8194 1880 c0 -13 4 -16 10 -10 7 7 7 13 0 20 -6 6 -10 3 -10 -10z"/>
<path d="M7895 1850 c3 -5 8 -10 11 -10 2 0 4 5 4 10 0 6 -5 10 -11 10 -5 0
-7 -4 -4 -10z"/>
<path d="M7360 1800 c20 -13 33 -13 25 0 -3 6 -14 10 -23 10 -15 0 -15 -2 -2
-10z"/>
<path d="M8330 1781 c0 -7 -4 -9 -10 -6 -5 3 -10 1 -10 -4 0 -6 4 -11 9 -11
13 0 25 20 17 27 -3 4 -6 1 -6 -6z"/>
<path d="M8350 1776 c0 -2 9 -6 20 -9 11 -3 18 -1 14 4 -5 9 -34 13 -34 5z"/>
<path d="M8111 1765 c-1 -10 -51 -36 -76 -40 -23 -4 -45 -18 -45 -28 0 -5 9
-2 19 7 12 11 21 14 26 7 9 -15 28 -14 20 2 -4 6 0 4 7 -5 8 -9 21 -18 28 -20
8 -2 21 -9 28 -16 8 -7 18 -10 23 -7 5 4 9 1 9 -5 0 -6 5 -8 10 -5 18 11 11
27 -10 22 -11 -3 -22 -1 -25 3 -3 5 6 10 20 12 l25 3 -25 12 c-14 6 -23 7 -20
3 3 -5 1 -11 -5 -15 -14 -9 -25 24 -13 36 7 7 16 5 27 -6 9 -9 22 -14 29 -12
9 4 9 6 0 6 -7 1 -13 8 -13 16 0 8 -6 12 -14 9 -8 -3 -16 2 -19 13 -3 10 -5
13 -6 8z"/>
<path d="M8956 1675 c4 -8 8 -15 10 -15 2 0 4 7 4 15 0 8 -4 15 -10 15 -5 0
-7 -7 -4 -15z"/>
<path d="M8876 1638 c3 -4 11 -5 19 -1 21 7 19 12 -4 10 -11 0 -18 -5 -15 -9z"/>
<path d="M8225 1620 c3 -5 13 -10 21 -10 8 0 12 5 9 10 -3 6 -13 10 -21 10 -8
0 -12 -4 -9 -10z"/>
<path d="M8123 1585 c-27 -24 -27 -24 -5 -25 12 0 22 5 22 10 0 6 5 9 12 8 6
-2 14 5 16 15 5 24 -12 21 -45 -8z"/>
<path d="M8200 1602 c0 -5 7 -9 15 -9 8 0 15 4 15 9 0 4 -7 8 -15 8 -8 0 -15
-4 -15 -8z"/>
<path d="M8902 1540 c0 -14 2 -19 5 -12 2 6 2 18 0 25 -3 6 -5 1 -5 -13z"/>
<path d="M8905 1440 c-19 -8 -19 -9 3 -9 12 -1 22 4 22 9 0 6 -1 10 -2 9 -2 0
-12 -4 -23 -9z"/>
<path d="M7945 1270 c3 -5 10 -10 16 -10 5 0 9 5 9 10 0 6 -7 10 -16 10 -8 0
-12 -4 -9 -10z"/>
<path d="M11306 1234 c-3 -9 -6 -36 -6 -60 0 -37 3 -44 20 -45 11 -1 23 -2 28
-3 4 -1 22 -6 40 -10 17 -4 32 -12 32 -17 0 -12 -17 -12 -25 1 -3 5 -12 7 -20
4 -7 -3 -22 -1 -32 4 -28 14 -43 3 -42 -31 1 -25 3 -27 7 -12 8 24 48 30 68
11 8 -8 23 -13 34 -11 11 2 20 0 20 -6 0 -5 14 -9 31 -9 25 0 29 -3 20 -13
-12 -15 -5 -27 16 -27 8 0 11 5 8 10 -8 13 1 13 26 0 22 -12 25 -1 7 20 -11
12 -10 12 2 4 8 -6 28 -11 44 -12 16 -1 35 -10 43 -20 8 -9 12 -12 9 -6 -3 7
19 11 62 12 90 3 124 12 112 32 -9 13 -11 13 -20 0 -6 -9 -10 -10 -10 -3 0 6
-8 14 -17 16 -15 4 -15 6 5 12 32 11 29 45 -4 45 -19 0 -25 4 -20 15 4 12 -3
15 -29 15 -19 0 -35 -5 -35 -11 0 -6 7 -8 16 -5 13 5 14 4 5 -7 -9 -12 -19
-12 -63 -1 -55 15 -89 35 -42 26 18 -3 25 -1 20 6 -4 6 -23 14 -44 18 -20 3
-46 12 -57 19 -23 14 -162 55 -187 55 -9 0 -19 -7 -22 -16z m255 -104 c5 0 9
-7 9 -15 0 -19 -8 -18 -40 1 -14 8 -17 13 -7 10 12 -4 17 1 18 17 1 17 2 18 6
5 2 -10 9 -18 14 -18z m96 -42 c-3 -8 -6 -5 -6 6 -1 11 2 17 5 13 3 -3 4 -12
1 -19z m33 -10 c0 -10 2 -10 9 0 6 11 10 10 15 -4 3 -9 9 -14 12 -11 6 6 34
-16 34 -27 0 -3 -13 -6 -28 -6 -20 0 -32 8 -45 30 -10 17 -13 30 -8 30 6 0 11
-6 11 -12z"/>
<path d="M8958 1193 c7 -3 16 -2 19 1 4 3 -2 6 -13 5 -11 0 -14 -3 -6 -6z"/>
<path d="M11948 1193 c-10 -2 -18 -8 -18 -13 0 -8 57 6 69 16 6 5 -29 3 -51
-3z"/>
<path d="M11825 1150 l-20 -9 20 0 c11 0 27 4 35 9 13 9 13 10 0 9 -8 0 -24
-4 -35 -9z"/>
<path d="M11873 1132 c-13 -2 -23 -8 -23 -13 0 -9 37 -3 49 7 8 7 -4 10 -26 6z"/>
<path d="M8916 1115 c-3 -8 -1 -15 4 -15 6 0 10 7 10 15 0 8 -2 15 -4 15 -2 0
-6 -7 -10 -15z"/>
<path d="M8782 1100 c0 -14 2 -19 5 -12 2 6 2 18 0 25 -3 6 -5 1 -5 -13z"/>
<path d="M8660 1095 c0 -8 2 -15 4 -15 2 0 6 7 10 15 3 8 1 15 -4 15 -6 0 -10
-7 -10 -15z"/>
<path d="M11825 1050 c3 -5 8 -10 11 -10 2 0 4 5 4 10 0 6 -5 10 -11 10 -5 0
-7 -4 -4 -10z"/>
<path d="M9310 980 c8 -5 24 -10 34 -10 26 0 18 6 -19 14 -22 5 -26 4 -15 -4z"/>
</g>
</svg>
