<?xml version="1.0" standalone="no"?>
<!DOCTYPE svg PUBLIC "-//W3C//DTD SVG 20010904//EN"
 "http://www.w3.org/TR/2001/REC-SVG-20010904/DTD/svg10.dtd">
<svg version="1.0" xmlns="http://www.w3.org/2000/svg"
 width="612.000000pt" height="408.000000pt" viewBox="0 0 612.000000 408.000000"
 preserveAspectRatio="xMidYMid meet">
<metadata>
Created by potrace 1.16, written by Peter Selinger 2001-2019
</metadata>
<g transform="translate(0.000000,408.000000) scale(0.100000,-0.100000)"
fill="#000000" stroke="none">
<path d="M5602 3766 l-2 -39 -897 4 c-494 3 -767 2 -608 -1 l290 -5 -371 -3
c-329 -2 -373 -4 -378 -18 -3 -9 -6 -91 -6 -184 0 -134 3 -172 15 -183 8 -8
11 -18 7 -22 -4 -4 191 -5 433 -3 242 3 377 2 300 -1 -97 -5 1 -8 315 -10 448
-4 669 -3 783 3 32 2 57 -1 57 -7 0 -14 31 14 40 38 8 18 9 17 9 -7 1 -16 -4
-28 -11 -28 -10 0 -9 -3 1 -9 11 -7 13 -43 10 -187 l-4 -179 -75 -38 c-87 -45
-102 -56 -93 -70 4 -6 1 -7 -6 -3 -7 5 -20 1 -30 -8 -10 -9 -28 -19 -41 -21
-27 -5 -48 -22 -62 -49 -8 -16 -3 -14 24 9 22 19 20 16 -6 -10 -23 -22 -41
-43 -41 -46 0 -3 -11 -21 -24 -41 l-24 -35 -36 52 c-51 74 -78 104 -143 158
-202 164 -498 194 -734 74 -38 -19 -86 -50 -108 -69 l-38 -34 41 -64 c23 -35
43 -65 45 -67 2 -2 32 14 67 37 163 105 377 107 524 6 59 -41 113 -85 104 -86
-4 0 -29 18 -55 40 -85 70 -195 110 -302 110 -54 0 -178 -32 -195 -50 -9 -10
-7 -11 13 -5 28 9 50 12 135 21 163 17 334 -69 425 -213 16 -26 30 -52 30 -57
0 -6 -13 12 -29 39 -135 234 -445 291 -655 120 l-30 -24 18 -78 c10 -43 21
-84 24 -92 3 -9 1 -12 -5 -8 -6 4 -16 31 -23 59 -14 59 -70 188 -82 188 -5 0
-2 -13 7 -29 8 -17 12 -38 9 -48 -4 -13 -3 -14 4 -5 10 15 22 -27 22 -80 0
-26 -2 -29 -15 -18 -8 7 -15 9 -16 4 -1 -5 -2 -22 -4 -39 -1 -16 -3 -32 -4
-35 0 -3 -13 9 -26 25 l-26 30 7 -35 c8 -44 34 -66 51 -44 9 12 13 13 19 2 5
-7 9 -19 10 -26 2 -8 4 -15 6 -16 2 -1 18 -13 36 -25 32 -22 44 -63 22 -76 -5
-3 -10 -3 -10 2 0 14 -113 14 -122 1 -5 -9 -8 -7 -8 7 l-1 20 -15 -20 c-15
-20 -15 -20 -30 -1 -20 27 -5 39 57 46 52 5 69 26 19 24 -16 0 -29 2 -28 5 2
24 -4 32 -21 26 -11 -3 -22 -1 -26 5 -5 7 -11 5 -20 -7 -12 -17 -14 -16 -23 7
-6 14 -20 58 -33 99 -38 124 -142 240 -267 298 -42 19 -72 24 -140 26 -83 2
-92 0 -164 -35 -45 -23 -91 -55 -115 -81 -30 -32 -42 -40 -51 -31 -8 9 -6 16
7 28 10 9 22 13 26 9 5 -5 4 -1 -3 8 -10 13 -7 23 19 55 45 56 62 71 172 138
46 28 150 63 182 61 110 -6 275 -45 275 -65 0 -4 10 -11 23 -14 12 -3 42 -24
66 -46 25 -22 48 -40 53 -40 5 0 6 -5 2 -12 -5 -7 -3 -8 6 -3 10 6 -3 24 -52
70 -72 67 -164 117 -247 137 -39 9 -48 14 -35 19 11 3 25 2 31 -3 7 -6 20 -8
28 -4 9 3 13 2 10 -4 -3 -6 -2 -10 4 -10 5 0 16 -3 25 -6 13 -5 16 2 16 45 l0
51 -71 0 c-45 0 -68 -4 -64 -10 4 -6 11 -7 17 -4 7 4 8 2 4 -5 -6 -8 -12 -9
-20 -2 -7 6 -17 7 -21 3 -5 -4 -5 -2 -1 5 7 12 -41 16 -76 6 -21 -5 -25 -58
-5 -66 6 -3 -3 -6 -21 -6 l-33 -1 3 395 c2 216 -1 390 -5 386 -5 -5 -8 -106
-7 -224 l1 -216 -58 -4 -58 -3 58 -2 57 -2 0 -168 0 -168 -54 -17 c-81 -26
-190 -109 -257 -197 -32 -41 -59 -79 -59 -85 0 -5 -7 -18 -14 -27 -12 -16 -16
-13 -44 30 -80 124 -243 241 -395 283 -63 17 -108 22 -192 22 -98 0 -121 -4
-208 -33 -192 -64 -320 -175 -414 -358 -19 -37 -31 -56 -27 -42 3 14 13 37 20
52 16 32 18 62 4 53 -6 -3 -10 -2 -10 3 0 5 -11 15 -25 22 -13 7 -22 17 -19
21 2 4 0 10 -6 14 -7 4 -10 -40 -10 -129 l0 -136 -115 0 -115 0 -1 63 c-2 77
-16 242 -25 292 -1 6 -2 20 -3 33 -1 27 -21 30 -21 2 0 -11 -5 -20 -10 -20 -7
0 -10 -449 -9 -1359 0 -1121 3 -1363 14 -1378 13 -17 45 -18 697 -17 649 2
2039 18 2476 29 112 3 451 5 752 5 302 0 555 3 564 6 14 5 16 36 16 245 l0
239 -280 0 -280 0 2 278 c1 246 11 294 18 87 l2 -60 17 48 c9 27 24 53 34 58
9 6 17 17 17 25 0 9 6 14 13 11 14 -5 36 21 37 45 0 9 6 23 13 30 30 30 41 66
42 146 2 82 2 82 -24 84 -14 1 69 5 184 8 l210 6 -187 2 c-152 2 -188 5 -188
16 0 21 38 138 57 174 10 17 22 32 28 32 5 0 3 5 -5 10 -11 7 5 10 52 10 37 0
90 5 118 11 43 9 54 8 69 -5 15 -14 18 -14 18 -1 0 8 -5 15 -10 15 -6 0 -8 2
-5 5 8 9 38 -6 32 -16 -3 -5 0 -9 5 -9 6 0 11 7 11 15 0 8 -6 15 -12 15 -9 0
-8 4 2 11 12 8 9 9 -10 4 -66 -16 -201 -35 -255 -35 -33 1 -96 8 -140 16 -44
9 -90 17 -102 18 -11 0 -19 5 -15 10 3 5 -5 7 -16 4 -12 -4 -20 -3 -17 1 2 5
-7 13 -21 20 -31 14 -37 14 -28 0 7 -11 -12 -29 -31 -29 -5 1 -2 5 8 11 18 10
18 11 0 25 -17 13 -17 14 2 8 18 -5 18 -4 2 6 -9 6 -22 8 -27 5 -6 -4 -9 -1
-8 6 2 6 -3 14 -11 17 -9 3 -11 0 -6 -8 4 -7 -4 -4 -19 5 -14 9 -24 21 -21 25
6 10 -35 41 -45 35 -4 -3 -14 3 -21 13 -13 16 -12 16 6 2 20 -14 20 -14 1 7
-10 13 -23 20 -28 17 -4 -3 -7 0 -6 8 2 7 -4 12 -12 10 -8 -2 -12 0 -8 4 4 4
-5 23 -21 43 -35 44 -64 101 -57 109 3 3 6 2 6 -2 0 -4 7 -1 15 8 8 8 15 19
15 24 0 6 8 9 18 8 11 -2 20 -17 27 -42 5 -21 15 -45 22 -52 7 -8 11 -17 8
-21 -2 -5 4 -17 13 -27 20 -21 36 -54 33 -67 -1 -5 2 -6 7 -3 5 3 16 -4 25
-15 10 -11 22 -17 27 -14 6 4 7 -1 3 -11 -5 -13 -3 -15 7 -9 9 6 11 4 6 -4 -5
-7 0 -18 10 -27 27 -20 106 -57 124 -57 8 0 18 -4 21 -9 4 -6 23 -10 43 -11
19 0 31 -4 25 -8 -6 -3 11 -10 37 -15 27 -4 58 -10 69 -13 49 -11 205 -4 278
14 l77 18 0 288 c0 158 -4 289 -9 291 -5 2 -11 28 -15 58 -4 37 -3 49 3 35 9
-18 10 -17 10 8 1 16 -3 26 -9 22 -16 -10 -12 59 5 81 17 22 20 90 4 100 -6 3
-9 15 -6 25 3 13 -6 29 -29 49 -37 32 -78 43 -54 14 8 -8 9 -14 4 -13 -42 8
-74 -37 -110 -156 -10 -33 -24 -65 -31 -71 -7 -7 -20 -41 -27 -77 -15 -69 -69
-201 -94 -227 -13 -13 -14 -8 -8 37 6 45 3 59 -21 102 -30 54 -42 61 -64 34
-12 -14 -15 -6 -20 63 -3 43 -5 -20 -5 -140 l1 -219 38 -11 c22 -6 36 -14 32
-17 -3 -4 -25 1 -48 10 -47 17 -109 60 -90 61 6 0 15 -4 18 -10 3 -5 13 -10
21 -10 12 0 14 41 11 276 -2 252 -4 276 -20 285 -10 6 -14 15 -10 22 5 9 3 9
-8 0 -13 -11 -16 -49 -18 -225 -1 -117 -5 -223 -8 -235 -12 -51 -23 -5 -24
100 0 72 -3 105 -9 92 -6 -14 -9 5 -9 58 -1 78 -10 94 -39 65 -18 -18 -16 6 4
45 l17 32 -22 -19 c-25 -23 -28 -11 -3 17 9 11 11 17 5 13 -21 -12 -15 3 19
45 28 35 60 56 42 27 -4 -7 -3 -8 5 -4 6 4 9 11 6 16 -7 12 30 31 47 25 7 -3
22 2 33 10 19 15 19 16 -3 5 -13 -7 -26 -9 -29 -7 -10 11 93 48 160 58 39 6
102 8 143 4 67 -6 84 -12 207 -73 4 -2 7 24 7 57 l0 60 -81 26 c-113 35 -255
35 -368 0 -149 -47 -274 -156 -341 -297 -34 -73 -37 -76 -53 -61 -16 16 -17
15 -19 -27 0 -25 -1 -51 -1 -57 1 -7 -5 -13 -13 -13 -8 0 -11 6 -8 14 4 10 -1
14 -14 13 -12 0 -18 -6 -15 -14 8 -21 -15 -15 -33 10 l-16 22 6 -25 c3 -14 6
-38 6 -53 0 -24 2 -26 19 -17 11 5 30 10 43 10 22 0 23 -3 20 -60 -2 -33 -8
-60 -14 -60 -6 0 -8 7 -4 15 4 10 -1 15 -15 15 -15 0 -19 -5 -16 -15 4 -8 2
-17 -3 -20 -5 -3 -7 -12 -3 -20 3 -8 0 -15 -6 -15 -6 0 -11 9 -11 20 0 14 -6
20 -17 18 -22 -4 -31 32 -31 122 0 56 14 141 17 101 2 -22 12 -6 21 33 7 33 6
35 -19 38 -22 3 -26 8 -29 41 -3 36 -2 37 30 38 30 0 35 5 60 57 24 50 115
171 124 165 2 -2 5 0 6 5 2 10 50 47 61 47 5 0 14 8 21 18 7 9 18 17 25 17 6
0 11 4 11 10 0 5 3 9 8 8 4 -1 32 11 62 26 130 68 362 95 520 62 66 -14 81
-13 64 4 -9 9 -169 40 -210 40 -18 0 -23 6 -26 33 -3 31 -5 32 -50 35 -38 2
-47 0 -51 -15 -4 -17 -5 -17 -6 0 -1 16 -9 18 -63 15 l-63 -3 0 -53 c0 -28 -3
-52 -7 -52 -3 0 -13 -3 -22 -6 -14 -5 -16 14 -16 175 0 138 3 181 13 182 6 0
123 0 260 -1 l247 -1 0 153 0 153 -46 -4 c-44 -3 -45 -2 -35 18 9 15 21 21 46
21 33 0 35 2 35 35 l0 35 -245 0 -245 0 -5 -23 c-3 -12 -5 -100 -3 -195 2
-142 1 -172 -11 -172 -12 0 -13 17 -8 98 4 53 7 145 7 204 l0 107 63 4 62 3
-62 2 -62 2 -4 38 -4 37 -1 -39z m-318 -133 c-15 -27 -35 -59 -44 -73 -9 -14
-40 -67 -69 -117 l-53 -93 -249 0 -249 0 0 165 0 165 345 0 346 0 -27 -47z
m-2512 -872 c111 -38 215 -126 272 -227 30 -54 59 -140 53 -157 -3 -7 -6 -5
-6 5 -2 33 -33 98 -48 98 -11 0 -13 -8 -8 -32 5 -23 -3 -14 -24 30 -123 253
-459 335 -673 164 -48 -38 -128 -135 -128 -155 0 -6 -3 -8 -6 -4 -11 11 56
105 104 147 217 192 536 141 693 -110 21 -34 29 -41 34 -28 4 9 0 29 -8 45
-22 40 -72 94 -81 85 -4 -4 -6 0 -4 8 2 9 -24 33 -67 61 -125 85 -287 109
-415 64 -24 -8 -45 -13 -47 -11 -4 4 61 27 112 40 41 11 191 -3 247 -23z m921
-86 c14 -9 31 -14 36 -11 15 9 86 -59 128 -121 52 -79 74 -164 71 -270 -2 -61
-7 -87 -15 -86 -14 3 -21 -17 -27 -77 -7 -65 -29 -109 -77 -158 -40 -39 -108
-79 -166 -96 -18 -6 -24 -2 -29 18 -3 14 -11 26 -16 26 -6 0 -7 -11 -4 -25 5
-18 2 -25 -8 -25 -8 0 -19 6 -23 13 -4 7 -29 21 -55 31 -27 10 -48 23 -48 30
0 6 -9 18 -20 26 -20 14 -29 37 -10 25 6 -3 10 -2 10 4 0 5 3 18 6 28 6 14 4
16 -6 6 -7 -6 -19 -9 -28 -6 -11 5 -13 2 -8 -8 4 -8 0 -5 -9 6 -18 21 -52 85
-40 73 10 -9 65 12 65 25 0 15 -41 57 -56 57 -7 0 -10 -9 -8 -22 2 -13 -3 -5
-12 17 -12 28 -17 70 -18 145 0 120 19 179 83 260 49 61 69 78 116 92 l40 12
-33 4 c-37 4 -102 -19 -140 -49 -14 -10 -31 -19 -40 -19 -35 0 46 60 117 87
49 18 189 11 224 -12z m-1667 -282 c5 -17 1 -37 -9 -56 -17 -29 -22 -59 -11
-70 11 -11 34 5 34 23 0 24 26 44 47 36 9 -4 21 -1 26 6 6 9 7 8 3 -5 -3 -10
-6 -40 -6 -65 -1 -60 -22 -92 -50 -74 -12 7 -20 8 -20 2 0 -5 -18 -10 -40 -10
-29 0 -42 5 -50 19 -14 27 -13 174 1 165 8 -5 8 -1 0 14 -9 17 -8 23 6 31 34
20 62 13 69 -16z m-105 -38 c5 4 10 -36 11 -97 3 -187 5 -195 50 -283 71 -138
197 -260 328 -318 226 -99 473 -82 675 48 65 42 155 128 194 186 l25 36 27
-56 c29 -61 41 -74 139 -154 99 -81 163 -125 193 -132 l27 -7 0 -114 0 -114
-102 -2 -103 -2 104 -3 104 -4 -6 -166 c-4 -91 -7 -265 -7 -386 l0 -220 -733
5 c-583 4 -737 7 -757 18 -15 8 -20 15 -13 17 9 3 10 10 3 22 -5 11 -8 125 -7
270 2 144 -1 255 -6 258 -5 3 -4 9 2 13 13 7 13 10 9 105 l-3 60 -100 6 c-55
3 127 7 405 9 l505 5 -429 5 c-371 4 -427 7 -412 19 10 9 14 21 10 30 -7 16
-7 158 -1 195 4 21 27 35 27 17 0 -6 3 -10 8 -9 4 1 25 -9 47 -23 51 -33 113
-64 145 -74 14 -4 -12 15 -58 42 -102 59 -152 101 -145 119 3 8 9 11 14 8 5
-3 9 0 9 6 0 7 7 10 14 7 11 -4 13 -1 9 11 -6 14 -5 15 9 2 9 -8 13 -19 10
-25 -3 -6 0 -6 9 1 16 12 29 12 47 0 12 -7 12 -4 2 14 -6 12 -14 20 -16 17 -5
-5 -117 108 -151 153 -84 110 -124 234 -128 400 -2 69 -1 115 1 102 3 -12 10
-20 15 -17z m3257 -456 c-13 -23 -44 -66 -70 -96 -27 -30 -48 -55 -48 -57 0
-1 13 -3 29 -3 34 0 60 -22 70 -61 6 -23 14 -28 52 -33 l44 -6 -45 -1 -45 -2
3 -122 c3 -95 7 -127 19 -140 15 -17 -21 -18 -780 -18 l-797 0 0 104 0 104 83
-5 c143 -9 276 41 389 145 l57 54 63 -45 c198 -140 449 -165 673 -65 106 47
228 149 286 239 38 60 49 64 17 8z m182 -559 l-175 -5 3 -155 c3 -225 10 -290
31 -291 14 -1 14 -2 -1 -6 -24 -6 -23 -20 1 -33 26 -13 31 -3 32 59 1 35 7 55
20 67 10 9 15 22 12 30 -3 8 -1 14 5 14 6 0 15 15 22 34 6 18 22 44 35 56 14
13 25 29 25 36 0 27 19 22 40 -10 13 -18 36 -38 52 -44 19 -7 35 -25 50 -59
20 -43 22 -68 26 -244 l4 -197 -534 -6 c-293 -4 -731 -8 -972 -9 l-439 -2 6
170 c4 94 7 268 7 388 l0 217 963 -2 c529 -1 883 -5 787 -8z"/>
<path d="M3560 2607 c0 -29 -4 -46 -10 -42 -6 3 -7 -1 -3 -10 4 -13 8 -14 14
-4 6 11 9 10 13 -1 9 -31 15 -95 7 -82 -12 20 -22 -193 -12 -262 4 -33 6 -69
4 -80 -3 -21 -3 -21 7 -1 7 14 9 -12 8 -93 -2 -89 0 -115 12 -122 19 -12 34
-1 18 13 -10 10 -12 81 -8 362 3 193 2 354 -2 360 -5 5 -8 4 -8 -3 0 -14 -21
-12 -32 3 -4 6 -8 -12 -8 -38z"/>
<path d="M3666 2279 c-6 -123 -4 -143 10 -153 20 -15 26 -127 7 -133 -15 -5
-17 -23 -3 -23 20 0 82 74 107 128 23 50 27 71 27 162 1 58 -2 117 -6 131 -7
24 -12 26 -71 28 l-64 2 -7 -142z"/>
<path d="M1594 3778 c-6 -9 26 -17 86 -21 l45 -4 -46 -1 c-73 -3 -75 -8 -71
-211 2 -102 8 -181 14 -188 8 -10 6 -13 -8 -15 -74 -6 317 -15 626 -15 l375 1
-275 6 c-151 3 63 4 477 2 601 -4 755 -2 768 8 12 10 15 43 15 195 0 181 0
183 -22 189 -13 3 -221 6 -463 7 -242 0 -448 3 -457 7 -10 4 101 6 245 6 144
-1 -19 4 -363 12 -344 7 -696 17 -783 21 -88 4 -161 5 -163 1z m1708 -110
c-11 -18 -57 -96 -102 -172 l-83 -139 -221 6 c-122 4 -236 7 -253 7 l-33 0 0
165 0 165 356 0 356 0 -20 -32z"/>
<path d="M2490 3204 c0 -61 0 -62 31 -68 17 -3 74 -6 125 -6 l94 0 0 71 0 70
-125 -3 -125 -3 0 -61z"/>
<path d="M4487 3254 c-4 -4 -7 -35 -7 -70 0 -47 4 -63 16 -68 9 -3 62 -6 119
-6 l104 0 6 33 c4 18 5 49 3 68 l-3 34 -100 0 c-55 0 -103 4 -107 10 -4 6 -8
1 -9 -10 0 -18 -1 -18 -8 -2 -3 10 -10 15 -14 11z"/>
<path d="M1690 3110 c0 -5 5 -10 10 -10 6 0 10 -4 10 -10 0 -5 -13 -10 -29
-10 -26 0 -30 -4 -35 -37 -3 -21 -5 -62 -4 -92 1 -45 3 -51 11 -33 10 21 16
22 124 22 l113 0 0 70 0 70 -86 0 c-51 0 -83 4 -79 9 3 6 -4 15 -15 21 -13 7
-20 7 -20 0z"/>
</g>
</svg>
