<?xml version="1.0" standalone="no"?>
<!DOCTYPE svg PUBLIC "-//W3C//DTD SVG 20010904//EN"
 "http://www.w3.org/TR/2001/REC-SVG-20010904/DTD/svg10.dtd">
<svg version="1.0" xmlns="http://www.w3.org/2000/svg"
 width="681.000000pt" height="454.000000pt" viewBox="0 0 681.000000 454.000000"
 preserveAspectRatio="xMidYMid meet">

<g transform="translate(0.000000,454.000000) scale(0.100000,-0.100000)"
fill="#000000" stroke="none">
<path d="M197 4534 c-4 -4 -7 -22 -7 -41 l0 -33 70 0 c39 0 112 -4 163 -9 51
-5 153 -15 227 -21 175 -15 283 -26 455 -44 77 -8 214 -20 305 -26 91 -6 237
-20 324 -31 88 -10 176 -19 197 -19 21 0 47 -8 59 -18 l23 -19 -20 -161 -21
-162 -39 -39 c-26 -26 -45 -58 -57 -96 -9 -31 -24 -59 -31 -61 -15 -6 -49 -73
-59 -116 -5 -24 -10 -26 -43 -22 -87 9 -322 24 -364 23 l-44 -2 50 -7 c28 -4
123 -11 213 -15 98 -5 169 -13 179 -20 9 -7 12 -14 7 -17 -5 -2 -126 6 -269
18 -143 12 -348 30 -455 39 -107 8 -271 22 -365 31 -93 8 -260 18 -370 23
-195 8 -201 8 -223 -13 -13 -11 -28 -28 -33 -37 -7 -14 -3 -15 39 -7 46 8 486
-7 503 -18 5 -3 111 -7 236 -9 126 -2 242 -8 258 -13 17 -6 149 -16 295 -22
146 -6 292 -13 326 -16 l61 -5 -5 -115 c-3 -100 -1 -118 14 -135 9 -10 23 -19
30 -19 7 0 14 -8 17 -17 4 -16 5 -16 12 1 6 13 4 21 -3 24 -8 2 -9 9 -3 20 9
17 18 73 26 167 12 131 20 158 59 189 35 29 40 30 124 27 48 -2 96 -8 107 -14
23 -13 47 -10 57 6 4 7 54 13 134 14 l127 3 32 -34 c24 -26 34 -47 39 -86 4
-33 11 -48 18 -44 8 5 9 -6 5 -37 -6 -46 3 -76 21 -65 9 6 22 -24 22 -53 0
-11 -4 -9 -15 5 -14 18 -15 17 -6 -7 5 -15 7 -30 3 -34 -3 -3 2 -3 13 1 18 7
19 6 6 -10 -12 -14 -12 -19 -1 -29 10 -9 14 -9 17 1 10 25 23 -1 23 -45 0 -57
7 -52 19 13 7 35 6 51 -2 56 -9 5 -9 10 0 19 32 32 24 -55 -16 -176 -11 -33
-22 -72 -26 -87 -3 -16 -12 -28 -19 -28 -8 0 -18 -15 -21 -32 -4 -18 -14 -51
-23 -72 -14 -36 -16 -37 -23 -18 -9 23 -2 52 11 52 18 0 18 30 0 40 -20 11
-22 10 -88 -68 -17 -19 -21 -20 -26 -6 -3 8 -6 27 -6 40 0 32 -42 74 -75 74
-22 0 -25 4 -26 38 -2 30 -3 32 -6 10 -4 -23 -9 -28 -34 -28 -16 0 -44 -10
-60 -22 l-31 -23 -18 23 c-18 22 -40 28 -54 15 -4 -4 -21 -8 -38 -9 -44 -2
-61 -25 -66 -88 -2 -31 -8 -56 -13 -56 -5 0 -9 5 -9 10 0 6 -5 9 -12 8 -7 -2
-15 11 -18 27 -6 29 -6 30 -18 8 -7 -12 -12 -29 -12 -37 0 -9 -4 -16 -10 -16
-5 0 -10 7 -10 15 0 8 -8 15 -17 15 -13 0 -14 -3 -5 -12 7 -7 12 -18 12 -26 0
-20 43 -112 52 -112 5 0 8 -4 8 -10 0 -5 14 -31 30 -57 17 -26 30 -42 30 -35
0 7 5 12 11 12 6 0 9 -6 6 -13 -7 -20 54 -67 113 -88 63 -22 156 -17 203 11
20 12 43 39 57 67 25 52 81 143 87 143 2 0 2 -4 -1 -9 -3 -4 12 -32 34 -61 22
-30 40 -57 40 -61 0 -4 21 -11 48 -14 26 -3 65 -15 87 -25 22 -10 58 -23 80
-29 22 -6 78 -26 125 -46 95 -39 96 -40 83 -22 -6 6 -20 57 -33 112 -12 55
-26 116 -31 135 -5 19 -9 56 -9 82 0 80 -93 582 -121 655 -6 15 -21 89 -34
164 -34 198 -81 325 -126 336 -10 3 -19 9 -19 14 0 5 -13 9 -29 9 -17 0 -33 5
-36 10 -3 6 -27 10 -53 10 -69 0 -276 45 -314 68 -18 11 -54 23 -79 26 l-46 7
-12 -58 c-25 -112 -26 -114 -41 -65 -11 35 -11 53 -2 88 7 24 12 53 12 63 0
10 6 21 12 23 21 8 322 -8 478 -25 80 -9 244 -21 365 -27 121 -5 273 -15 338
-21 106 -10 140 -9 125 6 -6 6 -151 34 -203 39 -22 2 -71 7 -110 11 -38 3
-122 13 -185 20 -63 8 -194 21 -290 30 -96 9 -200 20 -230 25 -30 5 -109 14
-175 20 -66 6 -205 19 -310 30 -423 43 -502 49 -565 42 -68 -7 -207 0 -370 18
-52 6 -153 18 -225 26 -135 15 -309 41 -335 50 -11 4 -12 7 -1 13 8 5 -12 11
-51 15 -34 4 -72 9 -83 12 -11 3 -24 2 -28 -2z m2398 -1074 c3 -5 1 -10 -4
-10 -6 0 -11 5 -11 10 0 6 2 10 4 10 3 0 8 -4 11 -10z m-350 -470 c-4 -6 11
-10 37 -11 40 -1 41 -2 13 -9 -51 -13 -121 -11 -151 5 -27 14 -26 14 29 10 32
-2 57 0 57 5 0 6 5 10 11 10 5 0 7 -4 4 -10z m-134 -26 c25 -23 194 -22 238 0
30 16 31 16 42 -7 9 -19 6 -34 -11 -76 -25 -58 -44 -73 -78 -60 -22 8 -22 10
-7 38 8 17 15 33 15 36 0 3 -35 5 -77 3 l-78 -3 -3 -33 c-2 -20 3 -38 13 -48
10 -10 13 -24 9 -36 -3 -11 -7 -27 -8 -34 -3 -23 -17 -29 -27 -14 -9 13 -10
13 -6 0 7 -24 -18 -54 -38 -43 -14 8 -14 11 5 28 20 18 28 41 11 31 -10 -6
-25 24 -16 32 3 3 5 -1 5 -8 0 -9 6 -8 20 5 20 18 21 18 14 0 -5 -13 -4 -16 4
-11 17 10 15 47 -2 40 -23 -9 -69 61 -68 103 2 40 10 73 19 73 4 0 14 -7 24
-16z m-131 -28 c0 -3 -4 -8 -10 -11 -5 -3 -10 -1 -10 4 0 6 5 11 10 11 6 0 10
-2 10 -4z m570 -46 c0 -5 -4 -10 -10 -10 -5 0 -10 5 -10 10 0 6 5 10 10 10 6
0 10 -4 10 -10z m-265 -105 c8 -7 9 -18 4 -35 l-9 -25 4 27 c2 16 -2 29 -10
32 -8 3 -13 16 -13 28 1 20 2 21 6 3 3 -11 11 -24 18 -30z m56 -32 c-12 -20
-14 -14 -5 12 4 9 9 14 11 11 3 -2 0 -13 -6 -23z m-120 -6 c-10 -9 -11 -8 -5
6 3 10 9 15 12 12 3 -3 0 -11 -7 -18z m-140 -24 c-12 -20 -14 -14 -5 12 4 9 9
14 11 11 3 -2 0 -13 -6 -23z m273 -43 c-20 -20 -20 -20 -22 6 -1 17 2 23 10
18 8 -5 9 -1 4 12 -7 18 -6 18 11 1 17 -16 17 -18 -3 -37z m-194 26 c0 -2 -7
-9 -15 -16 -13 -11 -14 -10 -9 4 5 14 24 23 24 12z m150 -51 c10 -12 10 -15
-4 -15 -9 0 -16 7 -16 15 0 8 2 15 4 15 2 0 9 -7 16 -15z"/>
<path d="M938 4533 c12 -2 32 -2 45 0 12 2 2 4 -23 4 -25 0 -35 -2 -22 -4z"/>
<path d="M1083 4533 c9 -2 23 -2 30 0 6 3 -1 5 -18 5 -16 0 -22 -2 -12 -5z"/>
<path d="M388 4503 c6 -2 18 -2 25 0 6 3 1 5 -13 5 -14 0 -19 -2 -12 -5z"/>
<path d="M187 4414 c-4 -4 5 -28 19 -53 l26 -46 72 3 c40 2 110 -4 157 -13
122 -23 262 -29 349 -15 41 7 96 14 123 17 49 5 63 19 25 27 -13 3 -70 8 -128
11 -58 4 -112 10 -120 15 -8 4 -55 11 -104 14 -49 4 -93 9 -97 12 -6 4 -274
34 -303 34 -7 0 -16 -3 -19 -6z m523 -84 c0 -5 -2 -10 -4 -10 -3 0 -8 5 -11
10 -3 6 -1 10 4 10 6 0 11 -4 11 -10z"/>
<path d="M3559 4160 c-11 -7 -10 -13 5 -29 24 -26 42 -27 56 -1 11 21 12 20
-33 34 -8 2 -20 0 -28 -4z"/>
<path d="M1655 3991 c-84 -6 -82 -20 3 -22 26 0 55 -4 66 -8 17 -6 16 -9 -9
-25 -16 -11 -36 -15 -50 -12 l-24 6 15 -47 c9 -27 19 -63 24 -82 12 -49 25
-58 43 -30 40 64 97 185 97 206 0 26 2 25 -165 14z"/>
<path d="M2 3821 c2 -14 9 -26 15 -29 18 -5 16 10 -2 34 -15 18 -15 18 -13 -5z"/>
<path d="M0 3749 c0 -6 6 -9 14 -6 8 3 17 1 20 -6 2 -7 5 -4 5 6 1 11 -6 17
-19 17 -11 0 -20 -5 -20 -11z"/>
<path d="M137 3736 c-10 -26 -9 -27 12 -15 14 9 96 9 337 0 175 -6 391 -13
479 -16 159 -4 159 -4 -55 10 -214 13 -314 18 -611 31 -142 6 -156 5 -162 -10z"/>
<path d="M66 3721 c-13 -5 -16 -10 -8 -15 6 -3 9 -13 5 -21 -8 -24 1 -18 25
15 23 30 17 36 -22 21z"/>
<path d="M7 3713 c-4 -3 -7 -33 -7 -66 0 -53 2 -58 16 -46 34 28 40 97 7 85
-11 -4 -13 -1 -8 14 6 20 4 25 -8 13z m16 -63 c3 -11 2 -22 -2 -24 -4 -3 -8 6
-9 20 -2 29 4 31 11 4z"/>
<path d="M1243 3693 c15 -2 37 -2 50 0 12 2 0 4 -28 4 -27 0 -38 -2 -22 -4z"/>
<path d="M1078 3653 c12 -2 30 -2 40 0 9 3 -1 5 -23 4 -22 0 -30 -2 -17 -4z"/>
<path d="M0 3450 l0 -120 64 0 c36 0 67 4 70 8 3 5 -6 27 -20 51 -13 24 -24
49 -24 56 0 7 -3 15 -7 17 -5 2 -19 27 -32 56 -40 85 -51 70 -51 -68z"/>
<path d="M4588 3563 c6 -2 18 -2 25 0 6 3 1 5 -13 5 -14 0 -19 -2 -12 -5z"/>
<path d="M3511 3514 c0 -11 3 -14 6 -6 3 7 2 16 -1 19 -3 4 -6 -2 -5 -13z"/>
<path d="M113 3466 c1 -16 9 -31 17 -33 12 -4 13 -3 1 5 -7 5 -11 14 -8 19 3
5 2 15 -3 23 -7 11 -9 6 -7 -14z"/>
<path d="M410 3430 c0 -6 43 -9 113 -9 93 1 103 3 62 9 -73 12 -175 12 -175 0z"/>
<path d="M2347 3411 c-84 -18 -59 -37 46 -34 58 1 89 -2 105 -13 18 -12 22
-12 22 -1 0 42 -87 66 -173 48z"/>
<path d="M1955 3385 c-39 -38 -31 -63 8 -28 14 13 38 18 93 19 41 0 78 4 81 8
15 15 -24 26 -90 26 -59 0 -71 -3 -92 -25z"/>
<path d="M2302 3352 c-32 -25 -36 -59 -9 -74 20 -10 21 -10 9 5 -14 16 -9 37
9 37 6 0 7 -5 3 -12 -4 -6 3 -4 17 5 29 21 39 21 39 3 0 -19 40 -28 47 -10 3
8 10 14 15 14 6 0 8 -7 5 -15 -4 -8 -1 -17 5 -21 7 -4 8 -3 4 4 -4 7 -1 12 8
12 8 0 16 -5 18 -12 3 -8 9 -8 24 0 10 6 14 12 8 12 -7 0 -14 8 -17 18 -5 20
-44 32 -103 32 -18 0 -36 5 -39 10 -9 14 -16 12 -43 -8z m37 5 c-2 -1 -13 -9
-24 -17 -19 -14 -19 -14 -6 3 7 9 18 17 24 17 6 0 8 -1 6 -3z"/>
<path d="M2003 3325 c-39 -17 -42 -31 -9 -37 16 -3 23 -1 19 8 -2 6 0 15 5 18
6 3 12 0 15 -8 7 -18 57 -18 57 0 0 16 9 17 30 4 12 -8 12 -10 1 -10 -8 0 -12
-2 -9 -5 8 -9 38 6 32 16 -3 5 0 9 6 9 6 0 8 5 5 10 -9 15 -115 11 -152 -5z"/>
<path d="M1 3176 l0 -144 29 -4 c36 -5 37 -1 5 42 -14 19 -25 39 -25 44 0 12
49 -45 50 -57 0 -13 52 -78 58 -73 2 3 -3 13 -13 22 -13 14 -14 19 -3 25 12 8
4 13 -14 10 -4 0 -15 13 -23 29 -15 30 -15 30 11 30 22 0 25 2 14 15 -16 19
-3 20 15 1 8 -7 11 -17 7 -20 -3 -4 1 -4 11 0 9 3 17 11 17 17 0 8 3 8 10 1
14 -14 20 -104 8 -126 -6 -13 -5 -18 5 -18 7 0 21 16 30 35 9 19 20 35 25 35
4 0 26 -18 47 -40 21 -22 34 -40 27 -40 -7 0 -12 -9 -12 -20 0 -11 5 -20 12
-20 9 0 9 -3 0 -12 -18 -18 -15 -35 7 -41 14 -3 21 2 26 20 3 13 3 27 1 32 -3
4 -7 18 -10 32 -19 94 -57 224 -68 230 -17 11 -28 2 -28 -24 -1 -20 -2 -21
-14 -4 -7 9 -21 17 -30 17 -10 0 -14 5 -11 10 4 6 14 9 23 8 22 -4 24 59 2 84
-8 9 -21 24 -28 32 -17 21 -33 20 -25 -1 5 -15 3 -16 -8 -5 -14 13 -30 16 -28
5 3 -19 -3 -21 -28 -8 -18 10 -29 11 -34 4 -4 -7 -12 -5 -22 5 -14 14 -15 2
-16 -128z m135 33 c19 -21 19 -21 -8 -8 -15 6 -25 16 -22 20 7 12 8 12 30 -12z
m118 -55 c9 -24 2 -26 -12 -4 -7 11 -8 20 -3 20 5 0 12 -7 15 -16z m-55 -87
c1 -5 -3 -5 -9 -2 -5 3 -10 16 -9 28 0 21 1 21 9 2 5 -11 9 -24 9 -28z m111
-171 c0 -3 -4 -8 -10 -11 -5 -3 -10 -1 -10 4 0 6 5 11 10 11 6 0 10 -2 10 -4z"/>
<path d="M460 3310 c0 -6 45 -10 116 -10 74 0 113 4 109 10 -4 6 -53 10 -116
10 -66 0 -109 -4 -109 -10z"/>
<path d="M6550 3286 c0 -13 4 -16 18 -11 9 4 66 11 125 15 60 5 112 11 115 15
4 4 -53 5 -125 4 -122 -4 -133 -6 -133 -23z"/>
<path d="M246 3265 c4 -8 8 -15 10 -15 2 0 4 7 4 15 0 8 -4 15 -10 15 -5 0 -7
-7 -4 -15z"/>
<path d="M578 3193 c34 -2 88 -2 120 0 31 2 3 3 -63 3 -66 0 -92 -1 -57 -3z"/>
<path d="M6546 2995 c3 -115 8 -226 13 -245 4 -19 6 61 3 180 -2 118 -7 229
-12 245 -4 17 -6 -64 -4 -180z"/>
<path d="M3450 3178 c-1 -34 -47 -340 -100 -658 -17 -102 -37 -232 -45 -290
-8 -57 -18 -112 -21 -122 -3 -9 1 -29 8 -43 13 -25 15 -21 32 67 30 153 65
258 87 258 5 0 9 -39 9 -87 1 -98 9 -116 58 -126 36 -7 42 5 17 40 -11 16 -17
55 -20 130 -4 116 -11 153 -29 153 -6 0 -22 20 -35 44 -21 38 -23 51 -18 113
4 39 16 98 27 133 11 34 20 89 20 122 0 33 5 68 10 78 16 29 26 200 11 200 -6
0 -11 -6 -11 -12z"/>
<path d="M1275 3134 c-33 -18 -71 -34 -85 -34 -14 0 -36 -10 -50 -23 -14 -12
-48 -41 -76 -64 -44 -37 -50 -46 -46 -73 2 -18 0 -30 -7 -30 -6 0 -11 12 -11
26 l0 25 -46 -33 c-26 -18 -68 -52 -94 -75 l-48 -43 -216 0 c-159 0 -216 3
-216 12 0 6 -12 1 -27 -13 -18 -15 -16 -11 6 14 19 20 29 37 23 37 -7 0 -26
-16 -43 -35 -17 -19 -39 -37 -49 -40 -32 -10 -12 -37 25 -34 20 2 39 -3 49
-14 10 -10 34 -17 59 -18 23 -1 35 -3 25 -6 -9 -2 -19 -11 -22 -19 -3 -8 -2
-13 2 -10 4 2 8 -7 8 -20 2 -28 -11 -32 -24 -8 -7 12 -17 15 -33 11 -22 -6
-23 -5 -6 8 21 15 9 28 -13 15 -17 -10 -21 -90 -6 -90 6 0 0 -7 -12 -16 -12
-8 -27 -12 -34 -8 -7 4 -8 3 -4 -4 3 -6 -3 -16 -15 -22 -11 -7 -18 -14 -15
-17 2 -3 18 4 34 16 17 12 34 21 40 21 5 0 15 7 22 15 7 8 19 15 26 15 8 0 42
17 76 38 35 20 75 44 91 51 20 11 24 17 15 23 -7 4 17 8 55 8 37 0 76 5 86 12
24 14 65 -2 179 -73 42 -26 80 -45 84 -43 4 3 8 29 8 57 0 29 3 84 8 122 7 66
7 62 12 -69 4 -99 9 -141 18 -144 8 -2 12 7 12 27 0 16 5 33 11 37 7 4 10 -7
8 -35 l-3 -42 132 -74 c73 -41 136 -75 141 -75 5 0 11 13 14 29 6 27 10 29 44
27 21 -1 43 -5 49 -8 14 -9 11 29 -4 44 -7 7 -18 13 -26 14 -19 3 -66 35 -66
45 0 8 -104 79 -116 79 -3 0 -12 7 -20 15 -23 23 -5 18 60 -16 32 -17 55 -26
51 -20 -3 7 -22 19 -40 29 -18 9 -72 43 -119 75 -96 65 -110 69 -95 31 5 -15
7 -29 4 -32 -11 -12 -17 4 -31 88 l-5 35 21 -25 c12 -14 19 -20 16 -13 -7 12
31 29 41 19 4 -3 -1 -6 -10 -6 -9 0 -17 -5 -17 -11 0 -6 7 -8 16 -5 9 3 29 6
45 6 l30 0 -18 31 c-10 17 -24 33 -30 36 -7 3 -13 13 -13 22 0 13 2 14 9 2 7
-11 13 -3 22 30 10 34 14 39 17 22 2 -13 8 -23 14 -23 6 0 6 -6 -2 -15 -10
-13 -9 -15 8 -15 16 0 21 -7 24 -32 2 -18 8 -33 13 -34 6 0 18 -4 28 -9 12 -5
32 -2 53 9 38 18 94 22 94 6 0 -23 18 -8 24 20 3 18 12 30 21 30 8 0 15 5 15
11 0 14 27 5 140 -48 209 -97 248 -118 244 -125 -3 -5 -10 -6 -15 -3 -5 3 -6
-1 -3 -9 3 -9 -6 -38 -20 -66 l-26 -50 15 -97 c31 -199 46 -286 54 -307 29
-76 17 -266 -28 -436 -47 -174 -181 -554 -226 -639 -40 -74 -41 -81 -19 -81 8
0 47 -7 86 -16 l71 -16 -32 -16 c-18 -8 -37 -24 -43 -36 -10 -20 -10 -20 14 2
14 12 40 27 58 32 33 9 80 4 80 -9 0 -3 20 -5 45 -3 37 3 44 1 39 -11 -5 -14
0 -13 38 1 70 28 101 48 143 92 l40 42 -80 -6 c-44 -4 -104 -9 -132 -12 -43
-5 -53 -3 -53 9 0 15 3 16 214 33 71 6 82 10 104 35 13 16 29 29 35 29 6 0 18
7 27 15 22 20 273 26 292 7 9 -9 9 -12 -1 -12 -7 0 -9 -5 -6 -11 8 -13 45 18
45 38 0 7 8 13 18 13 15 0 18 6 14 28 -3 24 7 41 59 100 34 40 67 72 73 72 6
0 3 -7 -6 -14 -18 -13 -26 -32 -10 -22 4 2 9 -7 10 -22 1 -14 7 -31 12 -36 13
-13 13 -29 -1 -21 -5 4 -18 0 -27 -8 -9 -7 -26 -17 -37 -22 -16 -6 -17 -8 -5
-12 8 -3 27 -17 43 -31 15 -14 27 -20 27 -14 0 7 -4 12 -10 12 -5 0 -10 16
-10 35 0 19 5 35 11 35 5 0 8 -4 5 -9 -4 -5 2 -7 13 -4 10 3 22 -1 27 -8 5 -9
2 -11 -9 -6 -11 4 -17 1 -17 -9 0 -8 -4 -12 -10 -9 -5 3 -10 2 -10 -4 0 -5 5
-13 11 -16 6 -4 8 -14 4 -23 -9 -24 96 -119 138 -124 31 -3 34 -2 33 23 -1 15
-4 25 -8 23 -4 -2 -9 0 -12 5 -4 5 -2 12 3 15 16 10 41 -35 34 -62 -5 -20 -3
-24 10 -19 9 3 23 -3 34 -15 18 -21 18 -21 -4 -9 -27 14 -36 14 -28 1 3 -6 -1
-10 -9 -10 -8 0 -17 4 -20 9 -10 15 -45 0 -69 -29 -23 -27 -67 -45 -99 -41
-12 1 -18 -5 -18 -18 0 -32 11 -51 29 -51 10 0 25 -6 35 -13 17 -12 16 -15
-10 -32 -16 -11 -34 -18 -39 -17 -6 1 -12 -14 -13 -34 -2 -26 1 -34 9 -28 8 5
10 2 6 -8 -3 -9 -1 -49 5 -89 5 -41 12 -105 14 -144 11 -169 14 -197 20 -207
5 -7 2 -8 -6 -3 -10 6 -12 3 -8 -13 4 -15 2 -19 -9 -15 -13 5 -13 2 -4 -16 7
-12 15 -19 19 -17 5 3 14 1 22 -4 12 -8 13 -13 3 -30 -7 -11 -13 -27 -13 -35
0 -8 -4 -15 -8 -15 -5 0 -8 -14 -7 -30 1 -20 -2 -27 -8 -21 -6 6 -17 -1 -31
-21 -22 -33 -56 -46 -56 -23 0 8 -6 18 -14 22 -14 8 -17 43 -4 53 3 3 0 16 -9
30 -8 14 -12 17 -9 8 4 -12 0 -18 -11 -18 -9 0 -14 -3 -10 -6 3 -3 1 -11 -4
-18 -41 -48 -49 -61 -49 -72 0 -31 -20 -21 -41 22 -23 45 -39 64 -39 45 0 -5
5 -13 10 -16 17 -10 11 -27 -7 -21 -10 3 -25 1 -33 -5 -13 -9 -12 -10 2 -5 26
8 48 -3 48 -24 0 -35 -111 -58 -131 -27 -4 5 -15 4 -28 -3 -19 -10 -20 -14 -9
-27 11 -14 10 -15 -11 -8 -15 5 -21 4 -17 -3 3 -6 -4 -12 -16 -14 -12 -2 -23
-9 -26 -17 -3 -10 0 -11 9 -5 8 5 24 10 35 11 12 2 66 19 120 38 54 19 100 33
102 30 6 -5 -21 -16 -148 -60 l-95 -33 322 -1 322 -1 35 113 c44 143 55 186
71 272 7 39 25 124 39 190 15 66 29 130 32 143 3 18 9 22 24 17 15 -5 18 -3
14 9 -3 9 -10 16 -15 16 -5 0 -9 7 -9 16 0 11 6 14 23 9 16 -5 18 -4 8 3 -8 6
-14 25 -13 44 1 61 8 113 16 126 5 8 -1 12 -21 12 l-28 0 25 20 c23 18 24 20
8 36 -20 20 -41 9 -33 -17 4 -10 2 -19 -4 -19 -5 0 -16 -7 -24 -15 -13 -13
-16 -13 -21 0 -3 10 3 17 18 21 17 4 22 11 19 25 -3 10 -1 19 3 19 5 0 15 4
23 9 11 7 7 22 -19 75 -19 37 -42 73 -53 81 -22 15 -47 60 -47 83 0 8 -3 12
-7 9 -3 -4 -18 6 -32 21 -34 37 -83 68 -75 48 3 -9 -3 -17 -17 -21 -14 -5 -25
-3 -27 4 -5 15 -32 14 -33 -1 0 -7 -4 -3 -9 9 -7 16 -14 21 -27 16 -10 -3 -15
-2 -10 2 4 5 -3 20 -15 33 -18 20 -19 24 -5 19 9 -4 17 -2 17 2 0 5 -5 11 -12
13 -6 2 -8 10 -4 16 10 17 27 15 20 -2 -10 -25 13 -26 26 -2 7 14 21 27 31 29
25 7 24 -1 -3 -24 l-23 -19 23 -6 c12 -3 22 -10 22 -15 0 -16 20 -9 27 9 3 9
17 33 31 52 l26 35 -25 -20 c-13 -11 -30 -28 -37 -37 -13 -18 -42 -25 -42 -10
0 4 16 18 35 32 29 21 61 61 36 46 -16 -10 -44 32 -37 58 3 14 2 28 -4 31 -15
10 -12 48 7 75 16 24 16 24 -1 10 -10 -8 -29 -32 -42 -52 -14 -21 -29 -38 -35
-38 -6 0 -1 12 10 26 16 21 19 35 14 70 -8 64 12 84 87 84 40 0 62 5 71 16 7
8 25 22 40 30 25 12 27 18 22 51 -5 39 -87 222 -121 271 -10 15 -24 47 -32 72
-23 76 -88 206 -146 293 -73 107 -83 116 -45 40 29 -58 40 -96 24 -80 -15 16
-43 -27 -43 -67 -1 -47 -12 -70 -58 -120 -18 -20 -29 -36 -24 -36 5 0 19 11
31 24 13 14 29 22 37 19 8 -3 14 0 14 6 0 17 47 13 54 -5 3 -9 6 -26 6 -39 0
-26 0 -26 -205 -46 -60 -5 -166 -18 -235 -29 -69 -10 -153 -21 -187 -25 -59
-6 -63 -5 -63 14 0 11 -6 40 -14 63 -25 73 -30 118 -15 118 8 0 43 14 79 30
49 22 59 30 39 30 -15 0 -53 -12 -84 -26 -42 -18 -60 -22 -65 -13 -4 6 -23 73
-41 148 -32 131 -42 230 -29 305 l5 29 -265 118 c-146 65 -275 118 -288 119
-24 0 -24 6 -5 58 6 15 10 16 -62 -24z m-142 -170 c-4 -12 -8 -13 -14 -3 -9
15 -2 32 11 24 5 -3 6 -13 3 -21z m-108 -84 c3 -5 1 -10 -4 -10 -6 0 -11 5
-11 10 0 6 2 10 4 10 3 0 8 -4 11 -10z m-457 -87 c-10 -2 -26 -2 -35 0 -10 3
-2 5 17 5 19 0 27 -2 18 -5z m-167 -21 c-7 -2 -18 1 -23 6 -8 8 -4 9 13 5 13
-4 18 -8 10 -11z m71 -114 c-7 -7 -12 -8 -12 -2 0 14 12 26 19 19 2 -3 -1 -11
-7 -17z m-72 -42 c0 -9 -30 -14 -35 -6 -4 6 3 10 14 10 12 0 21 -2 21 -4z
m2154 -1342 c4 -10 1 -14 -6 -12 -15 5 -23 28 -10 28 5 0 13 -7 16 -16z m231
-35 c28 -35 28 -52 -2 -22 -33 34 -46 53 -35 53 6 0 22 -14 37 -31z m195 -88
c0 -6 -4 -13 -10 -16 -5 -3 -10 1 -10 9 0 9 5 16 10 16 6 0 10 -4 10 -9z m33
-88 c-7 -2 -19 -2 -25 0 -7 3 -2 5 12 5 14 0 19 -2 13 -5z m6 -150 c-2 -80 -5
-94 -21 -99 -20 -6 -24 -19 -8 -29 6 -3 10 -11 10 -17 0 -23 -28 14 -32 42 -4
30 6 42 15 18 2 -7 8 -10 12 -6 4 4 3 13 -3 20 -22 28 -30 86 -18 130 9 27 15
37 20 28 3 -8 4 -2 2 15 -4 28 -3 29 10 10 11 -15 14 -44 13 -112z m68 25 c-3
-8 -6 -5 -6 6 -1 11 2 17 5 13 3 -3 4 -12 1 -19z m-17 8 c0 -3 -4 -8 -10 -11
-5 -3 -10 -1 -10 4 0 6 5 11 10 11 6 0 10 -2 10 -4z m-70 -225 c0 -7 -24 -7
-90 -2 -11 1 -12 3 -3 9 15 9 93 3 93 -7z m67 -53 c-3 -7 -5 -2 -5 12 0 14 2
19 5 13 2 -7 2 -19 0 -25z m-237 -632 c0 -2 -8 -10 -17 -17 -16 -13 -17 -12
-4 4 13 16 21 21 21 13z"/>
<path d="M2988 895 c6 -49 18 -52 14 -4 -2 21 -7 39 -11 39 -4 0 -5 -16 -3
-35z"/>
<path d="M1881 3104 c0 -11 3 -14 6 -6 3 7 2 16 -1 19 -3 4 -6 -2 -5 -13z"/>
<path d="M638 3073 c34 -2 88 -2 120 0 31 2 3 3 -63 3 -66 0 -92 -1 -57 -3z"/>
<path d="M1883 3060 c-1 -11 2 -20 8 -20 5 0 9 9 9 20 0 11 -4 20 -8 20 -4 0
-8 -9 -9 -20z"/>
<path d="M2550 3056 c0 -2 7 -7 16 -10 8 -3 12 -2 9 4 -6 10 -25 14 -25 6z"/>
<path d="M18 3012 c-12 -2 -18 -13 -18 -32 0 -26 4 -29 38 -33 l37 -4 -37 -1
c-49 -2 -49 -20 0 -25 l37 -4 -37 -1 -38 -2 0 -50 0 -50 39 0 c22 0 44 6 51
15 7 8 17 15 23 15 6 0 18 7 28 16 16 14 20 12 51 -30 35 -48 57 -56 79 -29
13 15 12 15 -8 2 -29 -18 -54 1 -33 26 9 11 9 15 1 15 -7 0 -9 5 -5 12 5 7 0
9 -14 6 -13 -4 -26 0 -34 11 -12 14 -11 15 5 2 9 -7 17 -9 17 -3 0 13 -25 33
-33 25 -8 -8 -46 38 -47 57 0 11 3 11 12 2 7 -7 17 -12 22 -12 12 1 -24 24
-37 25 -5 0 -16 11 -26 24 -18 24 -39 30 -73 23z"/>
<path d="M1917 2989 c3 -10 9 -16 14 -13 13 8 11 21 -5 27 -10 4 -12 0 -9 -14z"/>
<path d="M366 2885 c-16 -12 -17 -15 -4 -15 9 0 18 7 22 15 7 18 6 18 -18 0z"/>
<path d="M1916 2815 c4 -8 8 -15 10 -15 2 0 4 7 4 15 0 8 -4 15 -10 15 -5 0
-7 -7 -4 -15z"/>
<path d="M2506 2773 c-9 -31 -26 -147 -26 -178 0 -24 7 -33 34 -46 l33 -17 11
32 c7 18 12 58 12 89 0 45 -6 66 -26 97 -15 22 -28 40 -30 40 -1 0 -5 -8 -8
-17z"/>
<path d="M6555 2618 c-3 -24 -1 -56 4 -73 8 -25 9 -18 10 43 1 81 -5 93 -14
30z"/>
<path d="M2034 2595 c19 -37 41 -65 50 -65 4 0 -5 17 -20 38 -40 53 -49 61
-30 27z"/>
<path d="M3660 2575 c0 -23 6 -38 16 -42 25 -10 35 10 22 45 -17 43 -38 42
-38 -3z"/>
<path d="M224 2536 c-6 -26 -44 -57 -44 -36 0 5 5 10 10 10 6 0 10 5 10 10 0
7 -6 7 -20 0 -11 -6 -20 -16 -20 -23 0 -13 -45 -37 -70 -37 -25 0 -89 -52 -90
-72 0 -24 18 -22 65 7 50 30 40 33 -11 3 -21 -12 -34 -17 -30 -10 10 16 85 54
113 58 11 1 41 14 66 29 37 21 45 31 43 51 -4 35 -14 40 -22 10z"/>
<path d="M2095 2509 c4 -8 18 -27 30 -44 12 -16 32 -50 45 -75 13 -25 25 -39
27 -33 4 12 -81 148 -100 160 -6 4 -7 1 -2 -8z"/>
<path d="M3882 2390 c-17 -125 -10 -170 30 -193 17 -10 33 -16 35 -14 2 3 -3
23 -12 45 -9 22 -22 88 -28 148 l-12 109 -13 -95z"/>
<path d="M4307 2366 c-13 -34 -8 -124 9 -140 24 -25 47 -21 38 7 -4 12 -15 51
-24 87 -11 45 -18 59 -23 46z"/>
<path d="M5758 2298 c-24 -11 -61 -21 -83 -22 -43 -4 -75 -14 -75 -25 0 -3
-11 -19 -25 -34 -25 -26 -27 -27 -56 -11 -47 24 -71 15 -95 -36 -14 -27 -39
-57 -65 -76 -24 -17 -50 -41 -56 -55 -35 -68 -103 -221 -103 -232 0 -23 -53
-117 -67 -117 -7 0 -13 -4 -13 -10 0 -18 -40 -50 -63 -50 -13 0 -31 -6 -42
-13 -19 -15 -17 -26 27 -167 6 -19 10 -56 9 -82 -1 -28 4 -50 11 -55 26 -16
105 -32 164 -33 39 0 67 -5 80 -16 17 -14 1 -15 -186 -9 -113 3 -236 10 -275
16 -38 5 -257 12 -485 14 -541 6 -712 12 -722 28 -4 6 -9 9 -12 6 -7 -7 4 -92
14 -108 4 -7 80 -17 201 -27 127 -10 207 -20 232 -31 30 -13 42 -14 63 -4 41
18 204 26 247 12 20 -7 37 -16 37 -19 0 -13 136 -7 152 6 21 17 197 30 383 28
427 -5 455 -6 455 -19 0 -27 -27 -49 -64 -52 -21 -3 -49 -11 -62 -20 -31 -20
-47 -19 -94 5 -42 22 -80 26 -96 10 -12 -12 -93 -17 -114 -7 -26 12 -61 -28
-54 -61 4 -19 0 -32 -10 -41 -22 -18 -20 -44 4 -66 15 -14 17 -22 9 -37 -10
-19 -12 -18 -32 13 -12 19 -20 37 -19 42 1 4 -10 12 -25 18 -23 9 -29 6 -50
-18 -12 -15 -26 -38 -29 -51 -7 -24 -15 -27 -30 -12 -5 5 -31 10 -57 11 -55 3
-65 14 -61 71 4 67 -8 73 -109 54 -88 -17 -88 -17 -120 6 -46 32 -57 44 -57
62 0 12 10 16 41 16 28 0 39 4 36 13 -4 11 -113 14 -247 6 -54 -3 -335 9 -442
19 -59 6 -77 5 -75 -4 5 -27 -122 -94 -177 -94 -77 0 -87 -60 -17 -106 22 -14
45 -26 53 -28 30 -4 79 -32 83 -47 3 -9 17 -27 31 -40 21 -19 27 -21 34 -9 5
8 7 17 5 21 -3 4 8 9 23 12 15 3 46 22 69 41 23 20 52 36 66 36 31 0 61 -33
54 -59 -5 -21 9 -26 88 -33 61 -6 76 -86 48 -253 l-8 -50 -18 43 c-21 51 -32
57 -91 44 -32 -7 -47 -6 -50 2 -11 22 7 -81 25 -149 40 -147 66 -330 60 -417
l-3 -48 539 0 c532 0 539 0 633 24 52 13 107 26 123 30 24 6 26 9 16 27 -15
28 -6 35 76 61 70 23 70 23 70 60 0 20 5 42 12 49 19 19 63 13 91 -14 27 -25
28 -25 114 -15 70 8 102 7 161 -5 50 -10 88 -12 118 -7 39 8 279 67 767 191
l162 41 0 933 0 933 -62 4 c-86 6 -96 2 -120 -49 -11 -24 -41 -61 -66 -81 -52
-43 -78 -98 -87 -179 -8 -71 9 -331 30 -473 30 -208 35 -407 14 -590 -27 -234
-28 -238 -51 -246 -35 -11 -86 5 -111 35 -23 27 -24 39 -31 202 -3 96 -11 199
-16 229 -7 37 -6 74 1 114 l10 58 -43 51 c-40 48 -43 56 -50 132 -11 129 7
299 47 427 19 60 35 115 35 121 0 7 14 41 30 75 47 100 40 115 -50 108 -35 -3
-50 -10 -71 -35 -14 -17 -30 -31 -35 -31 -5 0 -21 18 -36 39 -22 31 -35 40
-70 45 -24 4 -72 15 -108 25 -98 29 -162 32 -212 9z m-1444 -1227 c3 -5 -1
-14 -9 -21 -10 -8 -15 -31 -15 -70 0 -84 4 -90 61 -90 98 0 114 -23 123 -177
5 -98 16 -133 44 -134 40 -1 105 -10 113 -15 13 -8 10 -107 -4 -124 -27 -35
-150 -60 -181 -37 -16 11 -20 31 -24 115 -3 69 -9 105 -18 113 -8 6 -14 17
-14 24 0 8 -5 15 -12 17 -12 4 -94 -5 -138 -16 -14 -3 -30 -3 -37 2 -17 11
-35 134 -32 212 2 36 0 71 -4 78 -8 12 -79 17 -90 5 -4 -3 -22 -8 -40 -10 -24
-2 -35 2 -45 17 -16 27 -10 36 36 50 20 7 51 18 68 26 68 30 111 42 161 43 28
0 54 -3 57 -8z m-614 -80 c0 -5 -9 -11 -20 -14 -22 -6 -28 8 -7 16 19 8 27 8
27 -2z m400 -59 c0 -10 -21 -32 -31 -32 -4 0 -5 9 -2 20 5 19 33 29 33 12z
m726 -100 c30 -24 44 -55 44 -96 0 -41 15 -80 47 -119 18 -23 23 -41 23 -88 0
-40 -4 -59 -12 -60 -7 0 -21 -2 -32 -4 -10 -2 -29 1 -42 7 -18 8 -27 8 -41 -3
-14 -12 -16 -12 -11 2 3 8 0 26 -8 40 -7 13 -13 34 -14 45 0 19 -4 21 -43 17
-54 -6 -76 14 -58 53 6 14 11 33 11 42 0 10 18 38 41 62 35 38 40 48 35 76 -9
45 21 58 60 26z m288 -63 c30 -14 36 -34 36 -132 0 -91 -7 -107 -56 -138 -28
-17 -38 -19 -44 -9 -6 9 -10 8 -19 -6 -6 -11 -11 -14 -11 -9 0 6 -2 66 -3 135
-3 122 -2 125 23 147 29 26 39 27 74 12z m187 -115 c25 -13 26 -15 16 -64
l-10 -50 -53 0 c-34 0 -58 5 -68 16 -17 17 -21 50 -7 58 5 3 12 21 15 40 7 34
7 34 44 24 20 -6 49 -16 63 -24z m-1076 -122 c22 -16 35 -54 35 -101 0 -30 6
-55 15 -64 8 -8 12 -17 10 -19 -2 -2 32 -4 75 -3 69 0 81 -2 86 -18 7 -22 -22
-57 -46 -57 -26 0 -94 30 -103 46 -5 9 -25 14 -56 14 -34 0 -56 6 -75 21 -25
19 -25 22 -11 50 9 16 13 39 10 51 -3 14 3 36 15 56 20 33 28 37 45 24z m-200
-114 c6 -4 2 -8 -7 -8 -10 0 -18 7 -18 17 0 9 3 12 8 7 4 -5 12 -12 17 -16z
m1100 -69 c46 -6 77 -17 91 -30 15 -14 29 -19 42 -15 26 9 92 -18 92 -37 0
-32 -27 -40 -77 -23 -49 17 -58 14 -66 -19 -5 -19 -5 -19 -12 3 -16 50 -55 12
-55 -55 0 -55 -13 -63 -96 -63 -55 0 -77 4 -95 19 -18 14 -29 17 -47 10 -32
-12 -147 -16 -207 -6 -130 20 -126 16 -39 52 84 34 154 51 154 37 0 -11 87
-15 94 -4 3 5 -4 28 -17 51 -22 41 -22 42 -3 56 11 8 31 15 45 15 14 0 35 8
46 16 13 10 30 13 50 9 17 -3 61 -10 100 -16z m-875 -164 c11 -13 6 -15 -31
-15 -67 0 -123 11 -107 21 23 15 124 11 138 -6z"/>
<path d="M4950 2294 c-55 -40 -110 -93 -157 -152 -15 -19 -23 -21 -49 -13 -36
10 -64 -2 -64 -27 1 -31 39 -102 55 -102 8 0 24 9 35 20 11 11 20 17 20 13 0
-4 7 3 16 15 8 12 20 22 25 22 6 0 31 18 57 39 26 22 70 50 97 62 28 12 78 43
112 68 72 53 70 56 -49 66 -61 5 -77 4 -98 -11z m-150 -224 c0 -5 -5 -10 -11
-10 -5 0 -7 5 -4 10 3 6 8 10 11 10 2 0 4 -4 4 -10z"/>
<path d="M2320 2284 l-25 -15 25 7 c14 3 32 10 40 15 13 7 13 8 0 8 -8 0 -26
-6 -40 -15z"/>
<path d="M2376 2271 c6 -7 46 -13 90 -15 65 -3 72 -2 39 6 -77 17 -141 21
-129 9z"/>
<path d="M3574 2248 c-3 -12 -13 -28 -20 -36 -18 -18 -18 -56 1 -92 9 -16 18
-50 22 -75 3 -26 11 -45 18 -45 9 0 15 -26 20 -78 7 -83 25 -134 25 -74 l0 33
23 -26 c18 -22 28 -25 50 -19 36 8 44 29 22 54 -14 16 -33 137 -35 233 0 9
-11 27 -25 39 -14 12 -34 41 -46 65 -23 47 -44 55 -55 21z"/>
<path d="M2225 2250 c-3 -6 1 -7 9 -4 18 7 21 14 7 14 -6 0 -13 -4 -16 -10z"/>
<path d="M4482 2199 c-23 -9 -29 -24 -12 -34 5 -3 9 -67 9 -145 0 -77 3 -145
6 -150 3 -6 33 -10 66 -10 l59 0 0 38 c0 20 -7 55 -15 78 -7 23 -19 72 -25
110 -18 111 -35 132 -88 113z"/>
<path d="M4078 2033 c5 -163 9 -172 70 -173 35 0 41 14 17 40 -12 13 -43 202
-45 273 0 4 -10 7 -23 7 l-23 0 4 -147z"/>
<path d="M3077 2143 c-9 -9 -9 -71 1 -76 4 -3 8 15 10 39 3 44 1 50 -11 37z"/>
<path d="M550 2106 c0 -2 7 -9 15 -16 12 -10 15 -10 15 4 0 9 -7 16 -15 16 -8
0 -15 -2 -15 -4z"/>
<path d="M178 2091 c-58 -3 -110 -10 -115 -15 -5 -5 28 -6 77 -2 47 3 106 6
133 6 26 0 47 5 47 10 0 6 -8 9 -17 8 -10 -1 -66 -4 -125 -7z"/>
<path d="M340 2090 c-11 -8 -5 -9 20 -5 19 3 36 8 39 11 9 9 -45 3 -59 -6z"/>
<path d="M0 2070 c0 -13 11 -13 30 0 12 8 11 10 -7 10 -13 0 -23 -4 -23 -10z"/>
<path d="M316 2026 c-26 -16 -34 -25 -25 -29 10 -4 10 -6 2 -6 -7 -1 -13 -7
-13 -15 0 -9 7 -12 20 -9 11 3 20 1 20 -5 0 -14 81 -3 99 14 12 10 12 18 1 43
-16 39 -49 41 -104 7z"/>
<path d="M948 1969 c-11 -6 -18 -22 -18 -39 0 -29 1 -30 53 -30 58 0 65 4 90
40 27 40 15 57 -17 24 -14 -14 -18 -14 -38 0 -26 18 -46 20 -70 5z m75 -15 c8
-8 -3 -34 -14 -34 -5 0 -9 9 -9 20 0 19 11 26 23 14z"/>
<path d="M90 1945 c-10 -13 -9 -15 9 -15 11 0 21 4 21 9 0 18 -18 21 -30 6z"/>
<path d="M202 1890 c-27 -35 -28 -44 -4 -32 9 5 22 7 29 5 7 -2 20 0 31 6 13
7 22 7 30 -1 9 -9 12 -8 12 5 0 9 -7 17 -15 17 -8 0 -15 7 -15 15 0 27 -45 17
-68 -15z m48 5 c0 -8 -2 -15 -4 -15 -2 0 -6 7 -10 15 -3 8 -1 15 4 15 6 0 10
-7 10 -15z"/>
<path d="M1763 1880 c-23 -22 -39 -40 -34 -40 4 0 16 10 27 21 10 12 33 30 49
40 17 11 23 19 15 19 -8 0 -34 -18 -57 -40z"/>
<path d="M4261 1887 c-10 -18 -9 -29 3 -57 9 -22 12 -52 9 -81 -5 -47 11 -174
26 -197 11 -19 84 -17 113 2 25 17 26 16 49 -20 16 -26 24 -60 29 -118 10
-109 15 -119 54 -110 82 18 97 35 77 90 -7 18 -15 66 -18 106 -3 40 -9 80 -14
89 -11 22 -114 36 -135 18 -12 -10 -20 -7 -44 16 -29 28 -30 32 -30 122 0 126
-19 163 -84 163 -13 0 -28 -9 -35 -23z"/>
<path d="M3436 1865 c-14 -11 -23 -12 -33 -4 -17 15 0 -34 50 -143 33 -73 77
-145 64 -106 -3 9 -1 46 4 83 9 52 8 69 -3 82 -7 9 -13 35 -13 57 0 36 -3 41
-25 43 -14 2 -34 -4 -44 -12z"/>
<path d="M3832 1867 c-8 -10 -7 -21 4 -43 9 -16 17 -60 19 -99 9 -170 14 -193
45 -208 22 -12 33 -12 52 -3 27 13 36 59 17 83 -8 9 -13 49 -14 112 0 78 -4
106 -20 134 -17 32 -24 37 -56 37 -20 0 -41 -6 -47 -13z"/>
<path d="M3095 1861 c-3 -5 -2 -12 3 -15 5 -3 9 1 9 9 0 17 -3 19 -12 6z"/>
<path d="M101 1851 c-22 -6 -22 -7 -7 -21 15 -12 19 -12 27 1 8 13 12 30 7 28
-2 -1 -14 -4 -27 -8z"/>
<path d="M342 1836 c-28 -16 -39 -30 -34 -45 3 -9 0 -11 -9 -6 -10 6 -11 5 -3
-4 24 -26 134 -26 134 0 0 8 -4 8 -12 1 -8 -6 -22 -6 -36 -1 -29 11 -26 43 6
47 12 2 22 7 22 12 0 10 -47 8 -68 -4z"/>
<path d="M1619 1707 c-32 -40 -52 -77 -42 -77 5 0 13 8 19 18 5 9 20 34 33 55
28 46 24 47 -10 4z"/>
<path d="M3210 1675 c0 -3 9 -23 20 -44 29 -57 28 -161 -2 -198 -14 -18 -48
-16 -48 2 0 19 -2 19 -53 -4 -68 -30 -102 -33 -129 -11 -27 21 -29 18 42 64
66 44 60 47 -10 6 -28 -16 -56 -30 -62 -30 -6 0 -8 -11 -4 -27 l6 -28 -15 25
c-13 22 -14 23 -15 5 -1 -14 -5 -10 -16 15 -13 29 -17 32 -25 18 -13 -24 -1
-47 35 -62 l31 -14 -25 -10 c-22 -9 -23 -11 -7 -17 9 -4 17 -13 17 -21 0 -8 6
-14 14 -14 7 0 25 -10 40 -21 l27 -21 -20 33 c-12 19 -21 38 -21 42 0 18 22
-7 45 -52 29 -59 58 -76 50 -31 -4 22 -1 30 9 30 8 0 18 -4 21 -10 3 -5 1 -10
-4 -10 -6 0 -2 -9 9 -20 15 -15 27 -18 52 -13 18 3 39 10 46 16 7 5 12 6 12 0
0 -5 20 -37 45 -70 32 -45 49 -60 62 -57 16 5 18 17 16 132 -1 70 -5 153 -9
184 -5 48 -4 59 10 64 10 4 16 18 16 40 0 38 -16 46 -23 12 -2 -14 -5 -7 -6
16 -1 37 -2 39 -16 20 -15 -18 -15 -18 -29 -1 -8 11 -12 25 -10 32 3 8 -8 17
-27 24 -35 12 -49 14 -49 6z m80 -86 c0 -6 -4 -7 -10 -4 -5 3 -10 11 -10 16 0
6 5 7 10 4 6 -3 10 -11 10 -16z m30 -134 c0 -8 -4 -15 -10 -15 -5 0 -10 7 -10
15 0 8 5 15 10 15 6 0 10 -7 10 -15z m-240 -96 c0 11 4 9 15 -5 21 -28 18 -34
-10 -21 -14 7 -25 19 -25 27 0 13 1 13 10 0 8 -13 10 -13 10 -1z m187 -65 c-3
-3 -12 -4 -19 -1 -8 3 -5 6 6 6 11 1 17 -2 13 -5z"/>
<path d="M3060 1610 c-9 -6 -10 -10 -3 -10 6 0 15 5 18 10 8 12 4 12 -15 0z"/>
<path d="M1580 1583 c1 -26 1 -27 12 -8 6 11 16 23 22 27 6 5 1 8 -11 8 -18 0
-23 -6 -23 -27z"/>
<path d="M4057 1573 c-11 -11 -8 -49 8 -86 8 -20 15 -57 15 -81 0 -56 23 -74
73 -55 l33 11 -4 72 c-5 93 -36 146 -85 146 -19 0 -37 -3 -40 -7z"/>
<path d="M3440 1556 c0 -2 14 -6 30 -8 17 -3 30 -1 30 4 0 4 -13 8 -30 8 -16
0 -30 -2 -30 -4z"/>
<path d="M2924 1535 c-10 -8 -14 -15 -8 -15 6 0 17 7 24 15 16 19 9 19 -16 0z"/>
<path d="M3093 1543 c9 -2 15 -9 12 -14 -4 -5 -2 -9 4 -9 5 0 12 4 15 9 6 9
-17 22 -37 20 -7 -1 -4 -3 6 -6z"/>
<path d="M1566 1514 c-9 -35 -2 -40 12 -9 6 13 7 27 3 30 -5 2 -12 -7 -15 -21z"/>
<path d="M1492 1438 c1 -24 5 -35 12 -31 7 5 7 2 -1 -8 -6 -8 -13 -54 -15
-104 -2 -58 -9 -102 -20 -123 -16 -32 -16 -33 8 -49 28 -18 26 -19 48 25 15
28 21 33 42 28 38 -10 28 3 -17 21 l-41 16 8 46 c4 25 7 63 6 83 -2 22 6 56
19 80 17 36 18 40 4 26 -17 -16 -19 -15 -36 5 l-18 22 1 -37z"/>
<path d="M3654 1434 c-14 -6 -5 -60 13 -75 21 -18 79 12 85 44 4 21 0 26 -25
31 -33 7 -57 7 -73 0z"/>
<path d="M2780 1422 c0 -12 19 -26 26 -19 2 2 -2 10 -11 17 -9 8 -15 8 -15 2z"/>
<path d="M2670 1402 c0 -5 -11 -21 -25 -35 -18 -18 -22 -27 -13 -30 7 -3 3 -6
-9 -6 -21 -1 -23 -6 -23 -53 0 -50 0 -51 20 -33 20 19 28 41 10 30 -5 -3 -10
0 -10 8 0 18 35 54 60 62 16 5 20 14 18 33 -3 23 -28 46 -28 24z m6 -37 c-9
-14 -21 -25 -27 -25 -5 0 0 13 12 30 27 35 39 32 15 -5z"/>
<path d="M2647 1249 c-3 -13 -1 -19 6 -16 15 5 22 37 9 37 -5 0 -12 -9 -15
-21z"/>
<path d="M3070 1214 c0 -33 15 -37 34 -9 9 14 15 26 14 26 -2 1 -13 3 -25 4
-18 2 -23 -3 -23 -21z"/>
<path d="M2710 1194 c0 -3 7 -12 15 -20 19 -19 19 -34 1 -34 -8 0 -18 -5 -22
-12 -5 -8 -2 -9 12 -4 10 5 25 9 32 9 15 0 15 12 2 36 -9 18 -40 37 -40 25z"/>
<path d="M1128 1143 c12 -2 30 -2 40 0 9 3 -1 5 -23 4 -22 0 -30 -2 -17 -4z"/>
<path d="M1220 1130 c8 -5 24 -9 35 -9 l20 0 -20 9 c-11 5 -27 9 -35 9 -13 1
-13 0 0 -9z"/>
<path d="M1434 1115 c-4 -8 -18 -15 -33 -16 l-26 0 23 -10 c28 -11 38 -6 45
21 6 23 -1 27 -9 5z"/>
<path d="M2560 1115 c0 -5 5 -17 10 -25 5 -8 10 -10 10 -5 0 6 -5 17 -10 25
-5 8 -10 11 -10 5z"/>
<path d="M2727 1113 c-11 -10 -8 -83 3 -83 14 0 50 32 50 45 0 5 -5 3 -10 -5
-8 -13 -10 -12 -10 3 0 9 -4 16 -9 15 -5 -2 -9 2 -10 7 -1 6 3 10 8 10 5 0 13
3 17 8 4 4 -2 7 -13 7 -11 0 -23 -3 -26 -7z"/>
<path d="M1497 1086 c-3 -8 1 -17 10 -20 20 -8 25 -3 17 18 -8 20 -20 21 -27
2z"/>
<path d="M870 1065 c-7 -9 -11 -17 -9 -20 3 -2 10 5 17 15 14 24 10 26 -8 5z"/>
<path d="M2790 1069 c0 -5 5 -7 10 -4 6 3 10 8 10 11 0 2 -4 4 -10 4 -5 0 -10
-5 -10 -11z"/>
<path d="M2520 1055 c0 -5 5 -17 10 -25 5 -8 10 -10 10 -5 0 6 -5 17 -10 25
-5 8 -10 11 -10 5z"/>
<path d="M3410 1050 c0 -5 5 -10 11 -10 5 0 7 5 4 10 -3 6 -8 10 -11 10 -2 0
-4 -4 -4 -10z"/>
<path d="M3230 1021 c0 -6 4 -13 10 -16 6 -3 7 1 4 9 -7 18 -14 21 -14 7z"/>
<path d="M3271 973 c7 -12 15 -20 18 -17 3 2 -3 12 -13 22 -17 16 -18 16 -5
-5z"/>
<path d="M2512 940 l-27 -35 -7 30 c-4 19 -6 9 -3 -28 3 -50 1 -56 -10 -40
-13 17 -15 17 -31 1 -17 -17 -17 -19 4 -38 11 -11 23 -20 26 -20 6 0 37 56 36
65 -1 23 2 26 17 21 9 -4 20 -1 25 6 12 20 9 31 -7 24 -13 -5 -14 -2 -4 16 7
13 14 17 18 10 4 -7 11 -4 19 8 22 36 -27 19 -56 -20z"/>
<path d="M3236 965 c4 -8 10 -15 15 -15 4 0 6 7 3 15 -4 8 -10 15 -15 15 -4 0
-6 -7 -3 -15z"/>
<path d="M895 949 c-4 -6 -5 -12 -2 -15 2 -3 7 2 10 11 7 17 1 20 -8 4z"/>
<path d="M2748 913 c7 -3 16 -2 19 1 4 3 -2 6 -13 5 -11 0 -14 -3 -6 -6z"/>
<path d="M2377 883 c-4 -3 -7 -11 -7 -17 0 -6 5 -5 12 2 6 6 9 14 7 17 -3 3
-9 2 -12 -2z"/>
<path d="M3293 875 c0 -8 4 -12 9 -9 5 3 6 10 3 15 -9 13 -12 11 -12 -6z"/>
<path d="M3250 853 c0 -18 5 -33 10 -33 13 0 13 30 0 50 -7 11 -10 7 -10 -17z"/>
<path d="M3439 868 c12 -16 11 -18 -8 -18 -28 0 -27 -14 3 -28 21 -9 24 -8 24
14 0 13 -8 29 -17 36 -14 12 -14 11 -2 -4z"/>
<path d="M3155 830 c-3 -5 -1 -10 4 -10 6 0 11 5 11 10 0 6 -2 10 -4 10 -3 0
-8 -4 -11 -10z"/>
<path d="M3306 815 c8 -37 14 -45 14 -19 0 10 -5 26 -10 34 -8 11 -9 7 -4 -15z"/>
<path d="M1547 741 c-22 -69 -36 -94 -77 -137 -27 -29 -50 -59 -50 -68 0 -8
-6 -17 -12 -19 -9 -4 -8 -6 2 -6 9 -1 26 6 38 15 13 9 25 14 28 12 2 -3 0 -77
-6 -164 -5 -87 -10 -199 -10 -247 0 -57 -4 -86 -10 -82 -6 4 -5 -5 2 -20 11
-26 12 -26 122 -23 l111 3 -2 45 c-4 73 55 612 66 606 3 -2 7 6 7 18 2 20 -3
23 -44 25 -41 1 -110 -15 -122 -30 -3 -3 -15 -3 -26 0 l-22 6 19 60 c10 33 18
67 16 75 -1 8 -15 -23 -30 -69z m170 -57 c-3 -3 -12 -4 -19 -1 -8 3 -5 6 6 6
11 1 17 -2 13 -5z m-79 -124 c-18 -55 -22 -60 -49 -60 -16 0 -46 7 -67 16
l-37 15 25 20 c29 23 119 69 137 69 8 0 5 -19 -9 -60z"/>
<path d="M2320 809 c-22 -6 -20 -7 13 -8 38 -1 47 3 25 11 -7 3 -24 1 -38 -3z"/>
<path d="M3249 803 c0 -5 -3 -21 -5 -36 -4 -26 -3 -27 16 -17 11 6 20 15 20
21 0 6 -4 8 -9 4 -5 -3 -12 -1 -16 5 -3 5 -1 10 4 10 6 0 11 5 11 10 0 11 -20
14 -21 3z"/>
<path d="M3410 760 c0 -39 18 -253 24 -287 3 -12 9 -30 14 -40 12 -23 23 -123
14 -123 -4 0 -16 39 -26 88 -31 145 -31 147 -49 144 -17 -3 -23 18 -10 32 9 9
11 46 2 40 -4 -2 -12 4 -18 13 -10 17 -10 17 -11 1 0 -10 -4 -18 -10 -18 -5 0
-6 -7 -3 -17 4 -11 3 -14 -6 -9 -7 5 -18 0 -26 -10 -8 -11 -15 -14 -15 -7 0 7
-6 10 -13 7 -8 -3 -20 3 -28 12 -13 16 -12 17 12 11 32 -8 73 16 45 26 -9 4
-16 3 -16 -2 0 -4 -7 -8 -15 -8 -13 0 -12 3 2 20 20 21 26 74 10 84 -6 4 -8 0
-4 -10 5 -13 1 -17 -18 -17 -14 0 -24 -3 -23 -7 3 -12 -13 -53 -20 -53 -4 0
-7 -19 -7 -43 0 -23 -3 -47 -8 -53 -4 -7 -1 -18 8 -27 13 -14 13 -17 0 -30 -8
-8 -11 -18 -7 -22 4 -5 2 -5 -4 -2 -7 4 -20 -5 -29 -21 l-18 -27 21 18 c20 18
20 18 24 0 2 -10 -3 -34 -11 -53 -20 -46 -21 -47 -31 -30 -8 12 -10 10 -10 -8
0 -19 4 -22 20 -17 14 5 20 2 20 -9 0 -9 -4 -16 -10 -16 -5 0 -13 -12 -16 -27
-4 -16 -12 -35 -19 -43 -20 -24 -67 -149 -60 -160 3 -5 1 -10 -6 -10 -9 0 -7
-4 3 -12 9 -7 18 -20 21 -28 4 -11 6 -10 6 4 1 11 6 16 15 13 7 -3 18 -2 22 1
5 4 1 -1 -9 -10 -19 -18 -19 -18 6 -18 17 0 34 11 52 33 l25 32 -5 -32 -5 -33
133 0 134 0 0 32 c1 18 4 73 8 121 6 70 11 87 22 83 11 -4 13 -1 8 15 -4 13
-1 27 10 40 15 15 16 21 5 34 -11 13 -10 14 2 10 18 -7 18 26 -1 48 -9 12 -9
16 1 20 10 4 10 6 1 6 -7 1 -13 8 -13 17 0 9 -8 23 -17 31 -11 9 -12 12 -3 7
12 -6 13 -4 3 7 -19 19 -16 39 6 39 14 0 17 6 13 28 -3 15 -10 30 -16 34 -7 5
-6 8 4 8 13 1 13 2 -1 13 -8 7 -19 21 -23 32 -8 19 -9 19 -16 -5 -6 -19 -8
-11 -9 31 -1 41 -5 59 -16 63 -9 3 -15 19 -15 41 0 24 4 35 15 35 17 0 20 -16
5 -23 -6 -3 -5 -4 2 -3 7 1 14 10 16 20 3 13 -3 16 -27 14 -28 -2 -31 -5 -31
-38z m-143 -267 c1 -24 1 -25 -7 -8 -11 26 -12 35 -2 35 4 0 8 -12 9 -27z m85
-75 c10 -10 23 -18 28 -18 24 0 1 -42 -58 -106 -12 -14 -20 -29 -17 -33 2 -5
-4 -20 -15 -34 -11 -14 -20 -29 -20 -34 0 -4 5 -1 10 7 5 8 10 10 10 4 0 -6
-6 -17 -14 -24 -8 -6 -12 -18 -9 -26 3 -8 0 -14 -7 -14 -6 0 -8 -5 -5 -10 3
-6 -1 -17 -9 -26 -12 -12 -16 -12 -16 -2 -1 10 -4 9 -13 -2 -7 -8 -23 -24 -35
-34 -19 -17 -22 -17 -16 -3 3 9 10 17 15 17 5 0 9 5 9 10 0 20 -19 9 -39 -22
-27 -43 -27 -30 0 16 14 24 25 33 37 29 14 -4 14 -3 3 5 -24 17 6 45 38 37 25
-5 25 -5 7 10 -18 14 -18 15 -2 15 13 0 17 7 15 28 -2 15 -8 34 -13 42 -8 12
-8 13 4 3 16 -15 50 -17 50 -4 0 6 -5 13 -10 16 -7 4 -6 13 1 27 9 16 8 24 -5
36 -8 9 -19 13 -23 9 -3 -4 -1 -13 5 -19 7 -7 12 -16 12 -22 0 -5 -9 1 -20 14
-21 24 -18 40 6 40 8 0 14 5 14 10 0 6 -5 10 -11 10 -5 0 -7 4 -4 10 3 5 1 19
-5 30 -7 13 -7 20 0 20 5 0 10 -7 10 -15 0 -8 5 -15 11 -15 6 0 9 7 6 14 -4
10 -1 13 7 10 8 -3 17 0 22 7 4 7 3 10 -3 6 -6 -4 -16 0 -23 8 -9 11 -9 15 -1
15 7 0 9 5 5 13 -7 11 25 -14 68 -55z m47 40 c0 -7 -4 -21 -7 -31 -7 -16 -9
-16 -31 4 -23 22 -23 23 -5 30 29 12 44 10 43 -3z m131 -82 c0 -3 -4 -8 -10
-11 -5 -3 -10 -1 -10 4 0 6 5 11 10 11 6 0 10 -2 10 -4z m-320 -26 c0 -5 -5
-10 -11 -10 -5 0 -7 5 -4 10 3 6 8 10 11 10 2 0 4 -4 4 -10z m266 -87 c-11
-11 -17 4 -9 23 7 18 8 18 11 1 2 -10 1 -21 -2 -24z"/>
<path d="M0 726 c0 -78 -27 -73 230 -48 l175 17 3 43 3 42 -144 0 c-79 0 -172
3 -206 6 l-61 7 0 -67z"/>
<path d="M2338 769 c-2 -6 -35 -10 -81 -11 -86 0 -96 -7 -21 -14 27 -3 51 -9
52 -14 2 -6 11 -10 20 -9 11 0 12 2 4 6 -6 2 -9 9 -6 15 4 5 18 -1 33 -16 25
-24 29 -24 64 -12 46 15 67 34 46 39 -8 2 -30 9 -50 16 -44 14 -56 14 -61 0z"/>
<path d="M3480 760 c0 -5 5 -10 10 -10 6 0 10 5 10 10 0 6 -4 10 -10 10 -5 0
-10 -4 -10 -10z"/>
<path d="M3327 710 c8 -28 20 -34 19 -8 0 12 -6 23 -13 25 -7 3 -9 -3 -6 -17z"/>
<path d="M3115 710 c3 -5 8 -10 11 -10 2 0 4 5 4 10 0 6 -5 10 -11 10 -5 0 -7
-4 -4 -10z"/>
<path d="M1870 699 c0 -5 5 -7 10 -4 6 3 10 8 10 11 0 2 -4 4 -10 4 -5 0 -10
-5 -10 -11z"/>
<path d="M2418 697 c-15 -6 -30 -17 -32 -24 -6 -15 13 -7 49 21 23 18 21 18
-17 3z"/>
<path d="M2325 690 c-3 -6 1 -7 9 -4 18 7 21 14 7 14 -6 0 -13 -4 -16 -10z"/>
<path d="M950 681 c0 -5 7 -12 16 -15 14 -5 15 -4 4 9 -14 17 -20 19 -20 6z"/>
<path d="M1837 676 c-4 -9 -14 -12 -27 -9 -20 5 -53 -23 -44 -38 2 -4 -3 -28
-10 -55 -20 -67 -36 -183 -35 -241 l1 -48 14 60 c36 151 68 253 91 293 14 24
23 46 20 48 -2 3 -7 -2 -10 -10z"/>
<path d="M3480 660 c0 -5 5 -10 11 -10 5 0 7 5 4 10 -3 6 -8 10 -11 10 -2 0
-4 -4 -4 -10z"/>
<path d="M2440 640 c-11 -11 -24 -20 -29 -20 -5 0 -11 -7 -15 -15 -3 -8 -12
-15 -19 -15 -8 0 -19 -10 -25 -22 -7 -13 -19 -33 -28 -45 -9 -13 -14 -23 -11
-23 4 0 18 17 32 38 14 20 29 37 33 37 7 0 34 19 84 56 14 10 17 18 10 23 -6
4 -20 -2 -32 -14z"/>
<path d="M2375 624 l-30 -26 33 22 c17 12 32 23 32 26 0 7 -4 5 -35 -22z"/>
<path d="M951 624 c0 -11 3 -14 6 -6 3 7 2 16 -1 19 -3 4 -6 -2 -5 -13z"/>
<path d="M2170 625 c21 -12 22 -14 6 -15 -15 0 -16 -3 -7 -14 17 -20 51 -28
44 -10 -3 8 0 14 6 14 20 0 12 17 -14 28 -39 18 -66 15 -35 -3z"/>
<path d="M2246 594 c-3 -8 0 -14 7 -14 7 0 22 6 32 14 18 13 17 14 -8 14 -14
0 -28 -7 -31 -14z"/>
<path d="M932 550 c-8 -13 -8 -20 -2 -20 6 0 13 7 17 15 9 24 -1 27 -15 5z"/>
<path d="M2170 562 c0 -6 -3 -17 -6 -26 -4 -11 -1 -16 10 -16 9 0 16 7 16 15
0 8 0 18 1 22 0 4 -4 9 -10 11 -6 2 -11 -1 -11 -6z"/>
<path d="M3802 540 c0 -14 2 -19 5 -12 2 6 2 18 0 25 -3 6 -5 1 -5 -13z"/>
<path d="M2473 518 c-30 -15 -29 -26 2 -21 28 6 57 33 34 32 -8 0 -24 -5 -36
-11z"/>
<path d="M2287 476 c4 -20 2 -24 -14 -20 -12 3 -29 -6 -47 -25 -32 -33 -49
-40 -40 -16 4 8 1 15 -6 15 -9 0 -8 6 3 18 10 10 17 24 17 30 0 23 -21 11 -41
-23 -12 -19 -26 -35 -32 -35 -7 0 -7 4 2 9 14 9 7 31 -10 31 -14 0 -11 -34 6
-56 20 -26 19 -46 -6 -72 -11 -12 -17 -27 -13 -33 4 -6 1 -15 -7 -19 -9 -6
-10 -12 -1 -22 7 -9 8 -19 2 -28 -15 -24 -12 -29 25 -36 44 -8 55 -22 13 -16
-35 5 -50 -11 -42 -45 4 -15 0 -25 -15 -32 -11 -6 -32 -23 -47 -36 -15 -14
-31 -25 -35 -25 -5 0 -9 -10 -9 -22 0 -19 2 -20 10 -8 6 10 10 11 10 3 0 -8
12 -13 28 -13 21 0 32 7 40 25 6 14 16 25 22 25 5 0 10 -11 10 -25 0 -24 2
-25 65 -25 62 0 65 1 65 24 0 14 7 32 17 41 10 11 13 19 6 23 -7 5 -6 11 3 20
11 10 14 10 15 0 0 -7 5 -3 11 10 7 14 17 20 27 17 9 -2 23 0 31 5 12 8 10 10
-10 10 l-25 0 29 15 c15 8 38 15 50 15 14 0 17 3 8 8 -9 6 -6 12 13 20 14 6
25 20 25 29 0 14 -2 15 -9 4 -5 -8 -35 -18 -68 -22 -47 -7 -60 -5 -69 7 -7 9
-13 11 -16 4 -2 -6 -20 -8 -51 -4 -52 7 -54 19 -4 19 18 0 32 5 32 10 0 6 -12
9 -26 8 -15 -2 -32 4 -39 11 -15 19 0 47 52 100 21 22 38 44 38 49 0 6 7 18
15 27 9 10 13 25 9 34 -10 25 -22 19 -17 -8z m-127 -76 c0 -5 -2 -10 -4 -10
-3 0 -8 5 -11 10 -3 6 -1 10 4 10 6 0 11 -4 11 -10z m-20 -160 c0 -5 -4 -10
-10 -10 -5 0 -10 5 -10 10 0 6 5 10 10 10 6 0 10 -4 10 -10z m-2 -94 c-7 -8
-15 -12 -17 -11 -5 6 10 25 20 25 5 0 4 -6 -3 -14z"/>
<path d="M3180 490 c-8 -5 -12 -11 -9 -14 3 -3 14 1 25 9 21 16 8 20 -16 5z"/>
<path d="M3530 495 c0 -2 10 -10 23 -16 20 -11 21 -11 8 4 -13 16 -31 23 -31
12z"/>
<path d="M3763 478 c7 -20 -8 -25 -17 -5 -3 6 -3 2 0 -11 8 -31 -13 -57 -33
-40 -9 7 -31 13 -50 14 l-35 1 23 -18 c16 -12 26 -14 30 -7 4 6 12 7 19 3 9
-6 9 -9 -1 -16 -10 -6 -7 -9 10 -9 20 0 21 -2 11 -15 -7 -8 -17 -12 -24 -8 -7
4 -7 1 1 -7 9 -9 9 -19 2 -32 -6 -10 -9 -29 -7 -41 2 -15 9 -4 21 35 11 32 22
60 26 63 17 10 81 -16 81 -33 0 -14 -2 -14 -9 -3 -5 7 -14 11 -20 7 -7 -4 -4
-13 8 -25 12 -12 17 -29 15 -47 -4 -27 -4 -28 6 -6 5 13 17 33 26 45 15 20 16
20 9 2 -12 -29 -22 -155 -13 -155 5 0 8 -4 8 -10 0 -5 -9 -10 -20 -10 -11 0
-20 -4 -20 -10 0 -5 11 -10 25 -10 29 0 30 -3 9 -35 -9 -14 -14 -34 -11 -45 3
-11 1 -23 -4 -26 -22 -13 -5 -24 37 -24 l47 0 -7 108 c-7 120 -23 227 -39 257
-5 11 -22 31 -36 44 -14 13 -37 38 -50 55 -13 17 -21 23 -18 14z m44 -85 c-1
-1 -14 1 -29 4 -28 5 -38 28 -16 35 10 4 51 -32 45 -39z m30 -45 c-3 -8 -6 -5
-6 6 -1 11 2 17 5 13 3 -3 4 -12 1 -19z m43 -55 c0 -14 -19 -38 -25 -32 -8 8
5 39 16 39 5 0 9 -3 9 -7z"/>
<path d="M2418 433 c-26 -7 -22 -20 7 -25 19 -4 25 -1 25 13 0 19 -2 20 -32
12z"/>
<path d="M933 370 c0 -25 2 -35 4 -22 2 12 2 32 0 45 -2 12 -4 2 -4 -23z"/>
<path d="M815 314 c-22 -47 -46 -90 -52 -96 -17 -14 -16 -28 2 -28 8 0 15 4
15 10 0 7 57 133 88 193 2 4 0 7 -5 7 -4 0 -26 -39 -48 -86z"/>
<path d="M2231 318 c-1 -29 12 -35 39 -18 12 8 11 10 -7 10 -12 0 -24 8 -26
18 -3 10 -5 6 -6 -10z"/>
<path d="M982 286 c-14 -53 -12 -62 15 -51 17 8 17 8 -1 13 -13 3 -15 6 -7 12
7 4 11 22 9 41 -3 34 -3 33 -16 -15z"/>
<path d="M932 290 c0 -14 2 -19 5 -12 2 6 2 18 0 25 -3 6 -5 1 -5 -13z"/>
<path d="M2260 280 c0 -5 5 -10 10 -10 6 0 10 5 10 10 0 6 -4 10 -10 10 -5 0
-10 -4 -10 -10z"/>
<path d="M3610 234 c-19 -11 -20 -14 -5 -10 11 3 28 -1 38 -9 18 -13 18 -15 0
-72 -10 -32 -21 -59 -25 -61 -12 -5 -10 -82 2 -82 6 0 10 13 10 30 0 17 4 30
9 30 5 0 7 8 4 19 -2 10 5 49 16 86 12 38 20 69 19 70 -14 12 -48 11 -68 -1z"/>
<path d="M485 173 c-8 -32 -2 -37 32 -28 15 4 22 10 16 12 -7 3 -13 11 -13 18
0 26 -28 24 -35 -2z"/>
<path d="M1727 183 c-11 -10 -8 -63 3 -63 6 0 10 16 10 35 0 36 -2 40 -13 28z"/>
<path d="M1906 104 c-7 -19 2 -37 15 -29 12 8 12 45 0 45 -5 0 -12 -7 -15 -16z"/>
<path d="M1725 100 c-3 -5 -2 -10 4 -10 5 0 13 5 16 10 3 6 2 10 -4 10 -5 0
-13 -4 -16 -10z"/>
<path d="M2405 100 c-3 -5 1 -10 10 -10 9 0 13 5 10 10 -3 6 -8 10 -10 10 -2
0 -7 -4 -10 -10z"/>
<path d="M1730 70 c0 -5 5 -10 11 -10 5 0 7 5 4 10 -3 6 -8 10 -11 10 -2 0 -4
-4 -4 -10z"/>
<path d="M1817 38 c6 -36 10 -44 18 -36 8 8 -6 68 -16 68 -5 0 -6 -15 -2 -32z"/>
<path d="M1720 25 c0 -16 6 -25 16 -25 11 0 14 5 10 16 -3 9 -6 20 -6 25 0 5
-4 9 -10 9 -5 0 -10 -11 -10 -25z"/>
<path d="M3060 10 c0 -5 7 -10 15 -10 8 0 15 5 15 10 0 6 -7 10 -15 10 -8 0
-15 -4 -15 -10z"/>
</g>
</svg>
