<?xml version="1.0" standalone="no"?>
<!DOCTYPE svg PUBLIC "-//W3C//DTD SVG 20010904//EN"
 "http://www.w3.org/TR/2001/REC-SVG-20010904/DTD/svg10.dtd">
<svg version="1.0" xmlns="http://www.w3.org/2000/svg"
 width="540.000000pt" height="433.000000pt" viewBox="0 0 540.000000 433.000000"
 preserveAspectRatio="xMidYMid meet">

<g transform="translate(0.000000,433.000000) scale(0.100000,-0.100000)"
fill="#000000" stroke="none">
<path d="M832 3897 c-35 -20 -51 -50 -58 -109 -6 -51 -5 -55 15 -61 22 -5 21
-7 -15 -62 -33 -50 -38 -64 -42 -135 -4 -68 -1 -84 17 -115 35 -59 44 -65 57
-39 7 13 10 32 7 43 -5 21 44 81 67 81 6 0 8 4 5 10 -3 5 0 7 8 4 9 -3 13 -13
10 -24 -3 -10 -11 -16 -18 -14 -17 7 -23 -4 -31 -54 -8 -50 7 -55 27 -9 20 45
58 48 91 9 27 -32 42 -30 61 8 7 13 19 26 27 28 13 4 12 2 -1 -14 -30 -35 -9
-42 25 -8 19 19 41 34 50 34 11 0 16 9 16 26 0 18 -4 25 -14 21 -8 -3 -16 2
-19 14 -3 11 -15 23 -26 26 -12 3 -21 10 -21 17 0 6 -5 4 -10 -4 -5 -8 -10
-11 -10 -6 0 5 -7 3 -15 -4 -12 -10 -15 -10 -15 3 0 8 7 20 15 27 23 19 18 33
-18 54 -30 19 -31 20 -9 24 12 2 22 9 22 16 0 22 22 36 41 26 10 -6 20 -6 23
-1 5 8 74 -1 119 -15 16 -5 17 -3 8 14 -16 29 -153 94 -193 92 -70 -4 -78 -1
-78 25 0 14 -6 28 -14 31 -8 3 -12 11 -10 19 3 8 -7 17 -27 24 -39 13 -38 13
-67 -2z m58 -98 c0 -5 -7 -9 -15 -9 -8 0 -15 7 -15 15 0 9 6 12 15 9 8 -4 15
-10 15 -15z m133 -195 c7 -8 -16 -33 -25 -28 -9 6 1 34 11 34 4 0 10 -3 14 -6z"/>
<path d="M4036 3712 c-2 -4 -1 -14 5 -22 19 -32 11 -50 -25 -50 -21 0 -42 -9
-60 -25 l-27 -25 -50 35 c-102 70 -256 87 -356 40 -29 -13 -53 -28 -53 -33 0
-13 52 -47 68 -44 7 2 12 -8 12 -27 0 -19 6 -31 16 -33 14 -3 13 -7 -5 -30
-30 -38 -27 -78 9 -113 20 -19 28 -35 24 -47 -3 -10 -3 -32 1 -47 5 -25 13
-31 46 -36 27 -5 45 -3 56 7 15 11 16 11 10 -5 -4 -10 -7 -25 -7 -33 0 -9 -4
-12 -10 -9 -5 3 -10 -2 -10 -12 0 -11 -5 -24 -12 -31 -17 -17 -6 -22 28 -13
29 7 63 53 44 59 -21 8 -8 24 15 20 32 -6 33 15 3 36 -29 21 -15 33 19 16 16
-8 33 -14 38 -14 11 -1 35 -67 28 -78 -2 -5 -10 -8 -17 -8 -10 0 -16 -23 -21
-75 -6 -67 -4 -78 17 -114 18 -30 27 -38 38 -31 8 6 29 10 47 10 21 0 44 10
66 30 54 47 70 132 45 239 -11 48 -10 51 13 70 21 17 27 18 50 5 42 -21 93 -2
114 42 25 53 14 101 -31 143 -29 27 -40 47 -51 96 -17 75 -60 134 -77 107z
m-141 -212 c3 -5 1 -10 -4 -10 -6 0 -11 5 -11 10 0 6 2 10 4 10 3 0 8 -4 11
-10z"/>
<path d="M1250 3656 c0 -2 7 -6 15 -10 8 -3 15 -1 15 4 0 6 -7 10 -15 10 -8 0
-15 -2 -15 -4z"/>
<path d="M1106 3624 c-9 -23 -7 -44 3 -44 5 0 12 10 15 23 6 21 7 21 20 5 18
-24 28 -22 24 4 -4 27 -53 36 -62 12z"/>
<path d="M3323 3435 c-8 -23 4 -30 30 -18 13 6 37 9 53 6 28 -4 28 -4 10 11
-26 21 -85 21 -93 1z"/>
<path d="M907 3423 c-4 -3 -7 -13 -7 -21 0 -11 3 -12 13 -3 17 14 30 2 16 -15
-12 -15 7 -51 31 -57 11 -3 16 6 18 34 2 29 -2 41 -20 53 -24 17 -41 20 -51 9z"/>
<path d="M1235 3371 c-3 -5 -1 -12 5 -16 12 -7 30 2 30 16 0 12 -27 12 -35 0z"/>
<path d="M3318 3361 c-45 -29 -118 -101 -118 -116 0 -8 12 -22 28 -32 15 -9
29 -18 31 -20 2 -1 -2 -9 -9 -18 -17 -21 1 -41 45 -49 19 -4 37 -12 41 -18 5
-8 -2 -9 -21 -4 -25 6 -27 5 -16 -8 11 -13 8 -20 -18 -43 -22 -21 -29 -34 -25
-50 3 -11 1 -29 -4 -40 -14 -25 3 -53 30 -53 12 0 19 3 15 6 -7 7 49 64 64 64
6 0 9 28 7 68 -1 53 -7 74 -26 100 -14 18 -26 49 -28 68 -1 20 -10 44 -18 53
-15 17 -13 19 35 34 28 10 62 17 75 17 29 0 41 24 24 45 -17 20 -78 18 -112
-4z"/>
<path d="M816 3351 c-19 -21 -17 -37 11 -103 20 -47 38 -50 29 -5 -4 17 -8 51
-9 74 -2 51 -9 58 -31 34z"/>
<path d="M1799 3329 c-8 -5 -9 -9 -4 -9 6 0 24 -11 40 -25 17 -13 41 -33 54
-43 l24 -19 -26 -36 c-15 -21 -39 -53 -53 -73 -26 -35 -26 -35 -41 -15 -19 27
-53 28 -53 1 0 -11 5 -20 11 -20 6 0 8 -9 4 -21 -6 -17 -3 -20 12 -17 11 2 17
11 15 23 -3 16 -1 17 11 7 12 -10 26 -7 73 18 32 16 64 30 71 30 20 0 19 43
-2 85 -24 50 -116 127 -136 114z"/>
<path d="M1529 3264 c-7 -9 -13 -31 -14 -50 0 -28 3 -34 20 -34 17 0 47 15 74
37 6 4 -50 63 -60 63 -3 0 -12 -7 -20 -16z"/>
<path d="M1762 3258 c3 -7 15 -14 29 -16 23 -2 23 -2 5 13 -24 18 -39 20 -34
3z"/>
<path d="M1960 3253 c1 -4 13 -34 29 -67 17 -36 31 -54 35 -47 4 7 5 19 2 28
-4 8 -2 21 3 27 16 19 -11 61 -42 64 -15 2 -27 0 -27 -5z"/>
<path d="M1190 3190 c0 -5 9 -10 20 -10 11 0 20 5 20 10 0 6 -9 10 -20 10 -11
0 -20 -4 -20 -10z"/>
<path d="M2128 3183 c-28 -7 -21 -20 19 -34 49 -16 200 -22 185 -7 -6 6 -22
11 -36 11 -15 0 -26 5 -26 13 0 16 -13 17 -57 5 -24 -7 -35 -6 -44 5 -6 8 -14
13 -18 13 -3 -1 -14 -3 -23 -6z"/>
<path d="M1690 3156 c0 -8 3 -22 6 -31 6 -14 8 -13 18 7 9 16 9 25 2 30 -17
12 -26 9 -26 -6z"/>
<path d="M930 3140 c0 -16 5 -21 23 -18 12 2 22 10 22 18 0 8 -10 16 -22 18
-18 3 -23 -2 -23 -18z"/>
<path d="M3616 3134 c-10 -26 -7 -44 8 -44 14 0 29 37 20 52 -8 13 -21 9 -28
-8z"/>
<path d="M2120 3115 c0 -8 7 -15 16 -15 14 0 14 3 4 15 -7 8 -14 15 -16 15 -2
0 -4 -7 -4 -15z"/>
<path d="M2230 3100 c8 -5 24 -10 34 -10 11 0 41 -14 68 -31 46 -30 48 -33 33
-49 -20 -23 -5 -34 34 -25 19 4 32 1 41 -10 10 -13 9 -15 -8 -15 -29 0 -37
-18 -18 -39 9 -10 16 -23 16 -29 0 -16 -37 -15 -43 1 -2 6 -8 9 -12 5 -5 -4 4
-17 18 -28 24 -19 26 -27 23 -70 -5 -49 -32 -110 -49 -110 -5 0 -24 15 -41 33
-27 26 -39 31 -70 29 -37 -3 -126 24 -126 39 0 4 -13 7 -29 7 -23 -1 -27 -5
-23 -20 2 -11 10 -17 18 -14 7 3 16 1 19 -5 4 -5 10 -7 15 -4 5 3 28 -1 52
-10 24 -8 57 -15 75 -15 17 0 38 -6 45 -14 8 -7 24 -17 36 -20 12 -4 36 -19
52 -33 17 -13 30 -23 31 -21 0 1 2 30 5 63 7 93 16 103 54 65 l20 -20 0 33 c0
17 -7 56 -15 86 -18 69 -1 53 34 -31 16 -37 33 -63 41 -63 17 0 17 10 -5 90
-18 63 -71 139 -109 156 -11 5 -46 23 -76 40 -56 31 -71 37 -125 44 -22 3 -26
2 -15 -5z m185 -88 c-3 -3 -11 0 -18 7 -9 10 -8 11 6 5 10 -3 15 -9 12 -12z
m71 -44 l19 -23 -25 20 c-14 11 -27 21 -29 22 -2 2 0 3 6 3 5 0 18 -10 29 -22z
m61 -130 c-3 -8 -6 -5 -6 6 -1 11 2 17 5 13 3 -3 4 -12 1 -19z"/>
<path d="M1642 3014 c-18 -19 -43 -34 -56 -34 -12 0 -26 -3 -29 -6 -3 -4 -22
-8 -42 -9 -27 -1 -35 2 -31 12 8 21 -32 16 -43 -6 -6 -10 -24 -21 -42 -25 -19
-4 -33 -13 -36 -26 -3 -11 -10 -20 -15 -20 -6 0 -8 7 -4 15 8 21 -8 19 -29 -5
-10 -11 -21 -17 -25 -15 -5 3 -6 -5 -2 -17 5 -19 3 -21 -9 -11 -8 7 -25 10
-37 6 -21 -5 -22 -11 -23 -122 -1 -64 -3 -179 -4 -256 -2 -157 -12 -255 -27
-255 -6 0 -8 14 -4 35 8 40 -10 49 -20 10 -3 -14 -11 -25 -16 -25 -14 0 -38
-26 -38 -41 0 -10 -3 -10 -12 -1 -15 15 -28 16 -28 2 0 -6 11 -16 25 -22 25
-11 29 -36 6 -31 -6 2 -11 -1 -11 -7 0 -5 13 -7 30 -3 35 6 38 -5 13 -43 -16
-25 -16 -25 9 -19 22 6 26 3 32 -26 3 -17 6 -53 6 -80 0 -26 5 -51 12 -55 8
-5 9 9 4 57 -14 122 -17 236 -5 209 5 -14 8 -33 5 -42 -3 -15 1 -17 22 -12 25
5 25 4 7 -7 -20 -12 -35 -29 -35 -39 1 -16 30 -41 41 -34 9 5 7 10 -5 20 -10
7 -15 18 -11 24 6 9 10 9 16 -1 6 -10 9 -11 9 -1 0 6 5 12 10 12 6 0 10 -7 10
-17 0 -14 2 -14 20 2 19 18 22 18 37 2 10 -9 12 -17 6 -17 -6 0 -14 -7 -17
-16 -3 -8 -2 -12 4 -9 6 3 10 2 10 -3 0 -15 -48 -43 -68 -40 -28 5 -25 -57 4
-70 20 -10 22 -9 17 19 -3 24 -1 28 12 22 11 -4 15 -14 13 -28 -4 -18 -1 -21
19 -17 12 2 31 1 40 -3 16 -6 15 -8 -7 -18 -24 -10 -23 -11 23 -20 56 -11 72
-2 83 46 6 28 8 30 15 12 4 -11 8 33 8 104 -1 68 3 127 8 130 5 3 13 15 17 25
5 15 9 17 19 7 9 -9 9 -16 -1 -32 -11 -18 -8 -30 23 -92 46 -91 76 -122 128
-135 44 -11 573 -24 618 -15 14 2 30 13 37 23 9 16 9 18 -2 14 -8 -3 -17 -1
-20 5 -4 6 -39 20 -79 32 -40 11 -77 25 -83 30 -6 5 -19 7 -28 3 -9 -3 -16 -1
-16 5 0 6 -19 11 -45 11 l-45 0 0 55 c0 48 2 55 20 55 17 0 19 -5 14 -45 -3
-28 -1 -45 6 -45 5 0 10 22 10 50 l0 51 57 -6 c37 -3 54 -2 47 5 -5 5 -33 10
-62 11 -41 2 -52 6 -50 17 7 38 222 -1 326 -59 41 -23 52 -26 52 -14 0 9 -17
23 -37 31 -21 8 -54 24 -75 35 -20 10 -58 22 -84 25 -27 3 -51 7 -54 9 -4 2
-41 5 -83 6 -59 1 -80 6 -87 18 -8 14 -9 14 -10 1 0 -13 -14 -16 -74 -15 -41
0 -78 4 -82 8 -11 11 16 27 46 27 14 0 81 2 149 4 69 2 146 1 173 -3 26 -5 48
-5 48 -1 0 10 -175 33 -235 32 -51 -1 -156 -11 -163 -16 -8 -5 -22 14 -22 28
0 11 87 27 128 25 36 -3 52 0 52 8 0 8 -20 11 -65 10 -46 -1 -66 2 -70 11 -8
21 -6 25 10 18 8 -3 15 -2 15 3 0 10 65 15 188 16 50 0 92 3 92 8 0 8 -50 11
-157 9 -72 -1 -73 -1 -73 24 0 16 4 23 11 18 20 -12 27 17 12 47 -8 16 -13 35
-10 42 2 6 12 -6 21 -28 16 -40 16 -40 71 -40 59 0 71 18 17 23 -27 3 -32 7
-32 30 0 25 1 25 15 6 8 -10 15 -14 15 -7 0 7 7 10 17 6 13 -5 15 -2 10 11 -4
10 -10 30 -13 44 -9 36 -23 52 -44 52 -10 0 -24 7 -31 16 -12 14 -14 14 -20
-3 -6 -15 -8 -13 -8 9 -1 16 5 28 14 30 10 2 12 8 6 17 -7 12 -14 10 -37 -8
-20 -16 -30 -18 -35 -10 -11 18 0 39 17 32 8 -3 14 0 14 6 0 6 15 10 35 8 34
-2 34 -3 28 -39 -4 -25 -2 -38 6 -38 6 0 11 7 11 15 0 8 9 15 20 15 13 0 20
-7 20 -20 0 -11 5 -20 10 -20 6 0 10 4 10 9 0 6 12 6 31 -1 47 -16 45 -3 -6
25 -25 15 -53 23 -62 20 -13 -5 -15 -1 -9 20 8 32 1 36 -64 38 -35 2 -55 -2
-61 -12 -8 -12 -12 -11 -23 4 -19 25 -27 21 -20 -9 5 -18 3 -25 -4 -20 -12 7
-13 174 -1 182 4 2 20 -3 36 -13 43 -24 63 -12 63 37 0 52 -12 56 -133 54
-109 -2 -107 -2 -107 -13 0 -5 28 -9 63 -10 74 -2 104 -5 135 -15 37 -12 25
-27 -20 -25 -24 1 -56 1 -73 0 l-30 -2 22 -18 c19 -16 22 -28 21 -76 -2 -56
-10 -75 -23 -55 -12 19 -25 -1 -14 -21 6 -12 8 -23 6 -26 -3 -2 -8 5 -12 17
-4 14 -12 19 -22 16 -8 -3 -18 -6 -23 -6 -5 0 -11 -10 -13 -22 l-4 -23 -8 23
c-9 28 -40 30 -32 2 3 -11 1 -20 -4 -20 -5 0 -9 7 -9 15 0 8 -4 15 -10 15 -5
0 -10 6 -10 14 0 8 -7 17 -16 20 -8 3 -12 2 -9 -4 3 -6 1 -10 -4 -10 -6 0 -11
6 -11 13 0 9 -2 9 -8 0 -4 -6 -30 -12 -57 -14 -28 -1 -55 -6 -62 -11 -10 -8
-59 -19 -128 -30 -11 -2 -24 -8 -30 -13 -5 -6 -9 -8 -8 -6 2 2 -2 10 -8 17 -5
7 -8 31 -6 53 2 22 0 44 -5 49 -11 11 60 39 117 47 131 17 120 18 121 -14 1
-16 5 -37 9 -47 7 -15 10 -8 14 29 4 26 11 48 16 49 9 1 26 -25 39 -57 2 -6 9
-5 17 3 12 11 12 14 -1 22 -12 8 -11 10 5 11 l20 0 -20 9 c-14 7 -9 8 18 4 23
-4 43 -2 52 6 25 21 49 8 49 -28 1 -53 21 -36 22 19 l2 52 -53 -6 c-50 -5 -54
-4 -57 16 -2 15 -9 21 -23 20 -11 -1 -14 0 -7 3 13 6 17 40 5 47 -5 2 -23 -11
-41 -29z m-112 -70 c0 -8 -4 -12 -10 -9 -5 3 -10 10 -10 16 0 5 5 9 10 9 6 0
10 -7 10 -16z m-53 -16 c-3 -8 -6 -5 -6 6 -1 11 2 17 5 13 3 -3 4 -12 1 -19z
m207 -173 c3 -8 1 -15 -3 -15 -5 0 -11 7 -15 15 -3 8 -1 15 3 15 5 0 11 -7 15
-15z m-84 -15 c0 -5 -4 -10 -10 -10 -5 0 -10 5 -10 10 0 6 5 10 10 10 6 0 10
-4 10 -10z m320 -16 c0 -8 -4 -14 -10 -14 -5 0 -10 9 -10 21 0 11 5 17 10 14
6 -3 10 -13 10 -21z m-174 -31 c-4 -4 -11 -1 -16 7 -16 25 -11 35 7 17 9 -9
13 -20 9 -24z m38 21 c9 -22 -3 -32 -14 -14 -12 19 -12 30 -1 30 5 0 12 -7 15
-16z m39 1 c4 -8 2 -17 -3 -20 -6 -4 -10 -4 -10 -1 0 2 -3 11 -6 20 -3 9 -2
16 4 16 5 0 12 -7 15 -15z m31 0 c3 -8 1 -15 -4 -15 -6 0 -10 7 -10 15 0 8 2
15 4 15 2 0 6 -7 10 -15z m36 -1 c0 -8 -4 -12 -10 -9 -5 3 -10 10 -10 16 0 5
5 9 10 9 6 0 10 -7 10 -16z m-210 -25 c0 -5 -45 -29 -55 -29 -2 0 -9 10 -16
21 -10 20 -9 21 20 17 23 -3 31 -1 31 11 0 14 1 14 10 1 5 -8 10 -18 10 -21z
m30 15 c0 -8 -4 -12 -10 -9 -5 3 -10 10 -10 16 0 5 5 9 10 9 6 0 10 -7 10 -16z
m260 -25 c0 -10 -4 -19 -10 -19 -5 0 -10 12 -10 26 0 14 4 23 10 19 6 -3 10
-15 10 -26z m-30 -10 c0 -24 -23 -21 -28 4 -2 10 3 17 12 17 10 0 16 -9 16
-21z m-554 -15 c-4 -9 -9 -15 -11 -12 -3 3 -3 13 1 22 4 9 9 15 11 12 3 -3 3
-13 -1 -22z m156 4 c-7 -7 -12 -8 -12 -2 0 14 12 26 19 19 2 -3 -1 -11 -7 -17z
m358 -5 c0 -22 -2 -25 -10 -13 -13 20 -13 40 0 40 6 0 10 -12 10 -27z m-167
-13 c3 -11 2 -20 -3 -20 -8 0 -20 24 -20 41 0 17 17 1 23 -21z m37 -3 c0 -5
-4 -5 -10 -2 -5 3 -10 14 -10 23 0 15 2 15 10 2 5 -8 10 -19 10 -23z m30 18
c0 -8 -4 -15 -10 -15 -5 0 -10 7 -10 15 0 8 5 15 10 15 6 0 10 -7 10 -15z m40
-6 c0 -5 -4 -9 -10 -9 -5 0 -10 7 -10 16 0 8 5 12 10 9 6 -3 10 -10 10 -16z
m30 5 c0 -8 -4 -12 -10 -9 -5 3 -10 10 -10 16 0 5 5 9 10 9 6 0 10 -7 10 -16z
m180 -5 c0 -5 -4 -9 -10 -9 -5 0 -10 7 -10 16 0 8 5 12 10 9 6 -3 10 -10 10
-16z m-540 -4 c0 -8 -4 -15 -10 -15 -5 0 -10 7 -10 15 0 8 5 15 10 15 6 0 10
-7 10 -15z m-33 -17 c-3 -8 -6 -5 -6 6 -1 11 2 17 5 13 3 -3 4 -12 1 -19z
m226 1 c3 -13 1 -19 -6 -16 -15 5 -22 37 -9 37 5 0 12 -9 15 -21z m277 -5 c0
-8 -4 -14 -10 -14 -5 0 -10 9 -10 21 0 11 5 17 10 14 6 -3 10 -13 10 -21z
m-546 1 c3 -8 1 -15 -4 -15 -6 0 -10 7 -10 15 0 8 2 15 4 15 2 0 6 -7 10 -15z
m233 -7 c-3 -8 -6 -5 -6 6 -1 11 2 17 5 13 3 -3 4 -12 1 -19z m-59 -6 c6 -18
-15 -14 -22 4 -4 10 -1 14 6 12 6 -2 14 -10 16 -16z m29 -4 c-3 -8 -6 -5 -6 6
-1 11 2 17 5 13 3 -3 4 -12 1 -19z m313 6 c0 -10 -6 -14 -14 -11 -7 3 -19 0
-25 -6 -6 -6 -11 -7 -11 -3 0 10 31 35 43 36 4 0 7 -7 7 -16z m127 -6 c-3 -8
-6 -5 -6 6 -1 11 2 17 5 13 3 -3 4 -12 1 -19z m-667 5 c0 -5 -5 -15 -10 -23
-8 -12 -10 -11 -10 8 0 12 5 22 10 22 6 0 10 -3 10 -7z m143 -14 c-4 -13 -9
-17 -15 -11 -11 11 -3 32 12 32 4 0 6 -9 3 -21z m263 -4 c6 -24 0 -44 -10 -34
-11 11 -17 59 -7 59 6 0 13 -11 17 -25z m34 -13 c0 -21 -2 -24 -10 -12 -13 20
-13 53 0 45 6 -3 10 -18 10 -33z m-71 1 c0 -25 -1 -26 -9 -8 -12 27 -12 35 0
35 6 0 10 -12 9 -27z m-29 -9 c0 -8 -4 -12 -10 -9 -5 3 -10 13 -10 21 0 8 5
12 10 9 6 -3 10 -13 10 -21z m-269 -11 c-8 -15 -10 -15 -11 -2 0 17 10 32 18
25 2 -3 -1 -13 -7 -23z m226 5 c-3 -8 -6 -5 -6 6 -1 11 2 17 5 13 3 -3 4 -12
1 -19z m252 -36 c1 -7 -3 -11 -8 -7 -5 3 -12 1 -16 -5 -11 -17 -25 -11 -25 11
0 12 8 28 18 35 14 10 18 10 24 -4 4 -9 7 -23 7 -30z m-515 23 c3 -8 1 -15 -4
-15 -6 0 -10 7 -10 15 0 8 2 15 4 15 2 0 6 -7 10 -15z m193 3 c2 6 9 10 14 6
17 -10 9 -20 -21 -22 -23 -2 -28 1 -23 14 5 13 8 13 15 2 8 -10 11 -10 15 0z
m263 -29 c0 -11 -4 -17 -10 -14 -5 3 -10 15 -10 26 0 11 5 17 10 14 6 -3 10
-15 10 -26z m-30 -11 c0 -5 -4 -8 -10 -8 -5 0 -10 10 -10 23 0 18 2 19 10 7 5
-8 10 -18 10 -22z m-280 12 c0 -5 -4 -10 -10 -10 -5 0 -10 5 -10 10 0 6 5 10
10 10 6 0 10 -4 10 -10z m203 -10 c3 -11 1 -20 -4 -20 -5 0 -9 9 -9 20 0 11 2
20 4 20 2 0 6 -9 9 -20z m37 4 c0 -8 -4 -12 -10 -9 -5 3 -10 10 -10 16 0 5 5
9 10 9 6 0 10 -7 10 -16z m-97 -37 c-7 -11 -23 12 -23 33 1 12 4 11 15 -4 8
-10 12 -23 8 -29z m37 10 c0 -5 -4 -5 -10 -2 -5 3 -10 14 -10 23 0 15 2 15 10
2 5 -8 10 -19 10 -23z m-300 7 c0 -8 -4 -12 -10 -9 -5 3 -10 10 -10 16 0 5 5
9 10 9 6 0 10 -7 10 -16z m197 -16 c-3 -7 -5 -2 -5 12 0 14 2 19 5 13 2 -7 2
-19 0 -25z m33 22 c0 -5 -2 -10 -4 -10 -3 0 -8 5 -11 10 -3 6 -1 10 4 10 6 0
11 -4 11 -10z m250 -49 c0 -3 -11 -7 -24 -7 -16 -1 -26 5 -29 18 -4 14 -2 18
9 14 8 -3 14 0 14 7 1 11 30 -21 30 -32z m-520 3 c0 -8 -4 -14 -10 -14 -5 0
-10 9 -10 21 0 11 5 17 10 14 6 -3 10 -13 10 -21z m175 8 c2 -7 0 -10 -5 -7
-6 3 -10 1 -10 -6 0 -10 -3 -10 -12 -1 -17 17 -21 16 -56 -18 -37 -35 -52 -38
-52 -10 0 13 9 22 25 26 14 3 25 11 25 16 0 6 7 8 15 4 8 -3 15 -1 15 4 0 15
49 8 55 -8z m245 -15 c0 -18 -2 -19 -10 -7 -13 20 -13 43 0 35 6 -3 10 -16 10
-28z m30 24 c0 -5 3 -18 6 -28 5 -16 4 -16 -10 1 -18 23 -20 36 -6 36 6 0 10
-4 10 -9z m-60 -34 c0 -5 -4 -5 -10 -2 -5 3 -10 14 -10 23 0 15 2 15 10 2 5
-8 10 -19 10 -23z m-365 -47 c-3 -6 -10 -10 -16 -10 -10 0 -12 33 -2 44 9 9
26 -22 18 -34z m138 -2 c-3 -16 -12 -28 -19 -28 -8 0 -17 -1 -20 -2 -4 -2 -11
8 -16 21 -7 21 -6 22 7 11 12 -10 15 -9 15 5 0 11 5 15 15 11 8 -3 15 0 15 6
0 6 2 9 4 7 2 -2 2 -16 -1 -31z m277 1 c0 -6 -4 -7 -10 -4 -5 3 -10 11 -10 16
0 6 5 7 10 4 6 -3 10 -11 10 -16z m-30 -17 c0 -15 -2 -15 -10 -2 -13 20 -13
33 0 25 6 -3 10 -14 10 -23z m-60 -3 c0 -6 -4 -7 -10 -4 -5 3 -10 11 -10 16 0
6 5 7 10 4 6 -3 10 -11 10 -16z m-270 2 c0 -5 3 -16 6 -25 4 -10 1 -16 -9 -16
-14 0 -27 20 -27 41 0 5 7 9 15 9 8 0 15 -4 15 -9z m220 -26 c0 -5 -5 -3 -10
5 -5 8 -10 20 -10 25 0 6 5 3 10 -5 5 -8 10 -19 10 -25z m-252 -12 c2 -11 -4
-23 -12 -26 -12 -5 -16 1 -16 24 0 35 23 36 28 2z m319 -25 c-3 -8 -6 -5 -6 6
-1 11 2 17 5 13 3 -3 4 -12 1 -19z m37 6 c3 -8 2 -12 -4 -9 -6 3 -10 10 -10
16 0 14 7 11 14 -7z m-244 -15 c0 -6 -4 -7 -10 -4 -5 3 -10 11 -10 16 0 6 5 7
10 4 6 -3 10 -11 10 -16z m190 -1 c0 -4 -7 -8 -15 -8 -8 0 -15 4 -15 8 0 5 7
9 15 9 8 0 15 -4 15 -9z m-230 -20 c0 -13 -23 -5 -28 10 -2 7 2 10 12 6 9 -3
16 -11 16 -16z m-40 -7 c0 -5 -7 -14 -15 -21 -8 -7 -15 -10 -15 -7 0 3 -3 12
-6 21 -4 12 0 16 15 16 12 0 21 -4 21 -9z m317 -13 c-3 -8 -6 -5 -6 6 -1 11 2
17 5 13 3 -3 4 -12 1 -19z m-166 -11 c-10 -9 -11 -8 -5 6 3 10 9 15 12 12 3
-3 0 -11 -7 -18z m-37 -3 c4 -10 1 -14 -6 -12 -15 5 -23 28 -10 28 5 0 13 -7
16 -16z m-36 -11 c-2 -10 -10 -18 -18 -18 -8 0 -16 8 -18 18 -2 12 3 17 18 17
15 0 20 -5 18 -17z m332 -18 c0 -16 -35 -21 -44 -6 -8 12 4 21 26 21 10 0 18
-7 18 -15z m110 3 c0 -18 -86 -22 -93 -5 -4 10 7 14 44 16 34 1 49 -3 49 -11z
m-310 -8 c0 -5 -5 -10 -11 -10 -5 0 -7 5 -4 10 3 6 8 10 11 10 2 0 4 -4 4 -10z
m-562 -18 c2 -7 -2 -10 -12 -6 -9 3 -16 11 -16 16 0 13 23 5 28 -10z m712 -32
c0 -11 -7 -20 -15 -20 -15 0 -21 21 -8 33 12 13 23 7 23 -13z m70 11 c0 -6 -5
-13 -10 -16 -6 -4 -8 -11 -4 -16 3 -6 -3 -5 -15 3 -29 18 -26 38 4 38 14 0 25
-4 25 -9z m51 -18 c0 -16 2 -38 3 -50 4 -33 -20 -28 -28 5 -3 15 -8 37 -12 50
-5 18 -2 22 15 22 16 0 21 -6 22 -27z m-426 7 c4 -6 1 -18 -6 -26 -10 -12 -14
-12 -20 -2 -5 7 -9 19 -9 26 0 15 26 16 35 2z m215 -7 c1 -22 27 -59 36 -50 4
3 -1 18 -10 31 -21 32 -20 36 4 36 12 0 17 -5 14 -14 -3 -8 -1 -17 5 -21 6 -3
11 -16 11 -27 0 -12 6 -29 14 -37 13 -15 11 -16 -17 -18 -44 -3 -80 -9 -119
-21 -76 -23 -88 -24 -88 -2 0 15 -6 19 -22 17 -17 -1 -22 3 -20 16 2 10 -3 17
-13 17 -18 0 -20 26 -2 37 13 8 173 51 195 52 6 1 12 -7 12 -16z m103 -58 c13
-27 13 -33 2 -29 -15 6 -39 64 -26 64 4 0 15 -16 24 -35z m47 15 c0 -5 -4 -10
-10 -10 -5 0 -10 5 -10 10 0 6 5 10 10 10 6 0 10 -4 10 -10z m-63 -96 c-3 -3
-12 -4 -19 -1 -8 3 -5 6 6 6 11 1 17 -2 13 -5z"/>
<path d="M1746 2145 c4 -8 8 -15 10 -15 2 0 4 7 4 15 0 8 -4 15 -10 15 -5 0
-7 -7 -4 -15z"/>
<path d="M1760 2101 c0 -10 6 -21 13 -24 10 -4 13 2 9 19 -5 28 -22 32 -22 5z"/>
<path d="M858 3023 c-8 -10 -28 -40 -43 -68 -16 -27 -33 -54 -40 -60 -6 -5
-15 -25 -18 -43 -6 -27 -3 -34 16 -43 20 -9 22 -18 25 -117 2 -59 8 -115 14
-125 5 -11 7 -54 3 -106 -8 -100 -1 -123 58 -181 25 -24 33 -38 26 -46 -7 -9
-5 -11 9 -8 12 4 22 -2 28 -17 8 -16 9 -4 6 47 -3 38 -9 72 -15 75 -6 4 -7 26
-3 56 7 56 -17 166 -55 248 -13 28 -22 58 -20 67 1 9 -7 34 -18 55 -18 37 -19
40 -2 50 14 9 17 21 13 65 -3 36 2 71 15 111 11 31 19 57 18 57 -1 0 -9 -8
-17 -17z"/>
<path d="M2150 3030 c20 -13 43 -13 35 0 -3 6 -16 10 -28 10 -18 0 -19 -2 -7
-10z"/>
<path d="M2044 2981 c19 -21 19 -21 -5 -22 -13 -1 -28 -1 -32 0 -5 1 -7 -6 -5
-16 2 -14 14 -18 54 -19 32 -2 59 -9 72 -19 19 -16 92 -29 92 -16 0 10 -72 67
-105 83 -16 8 -43 18 -60 22 -29 7 -29 7 -11 -13z"/>
<path d="M1268 2956 c-15 -13 -33 -26 -40 -29 -10 -3 -10 -7 -1 -17 9 -9 15
-7 27 13 9 13 30 27 46 31 17 3 30 10 30 16 0 18 -34 10 -62 -14z"/>
<path d="M1101 2838 c-1 -94 6 -121 26 -95 26 32 24 167 -3 167 -7 0 -15 6
-17 13 -3 6 -6 -32 -6 -85z"/>
<path d="M2325 2900 c28 -12 37 -12 30 0 -3 6 -16 10 -28 9 -21 0 -21 -1 -2
-9z"/>
<path d="M1710 2870 c0 -5 7 -10 15 -10 8 0 15 5 15 10 0 6 -7 10 -15 10 -8 0
-15 -4 -15 -10z"/>
<path d="M1755 2830 c-3 -5 -1 -10 4 -10 6 0 11 5 11 10 0 6 -2 10 -4 10 -3 0
-8 -4 -11 -10z"/>
<path d="M1790 2815 c-11 -13 -10 -14 4 -9 9 3 16 10 16 15 0 13 -6 11 -20 -6z"/>
<path d="M3460 2794 c-7 -19 -14 -33 -17 -30 -3 3 -17 -4 -31 -14 -13 -11 -30
-20 -37 -20 -7 0 -20 -10 -29 -22 -9 -13 -14 -17 -10 -9 6 11 2 13 -17 7 -13
-4 -37 -11 -54 -16 -25 -7 -26 -8 -7 -9 12 -1 25 -7 28 -15 7 -19 31 -10 67
22 22 21 27 23 27 9 0 -9 -5 -17 -12 -17 -6 0 -9 -3 -6 -6 4 -3 15 -1 26 5 25
13 36 1 52 -59 14 -51 23 -60 65 -60 33 0 95 -33 95 -51 0 -6 9 -24 20 -39 23
-32 19 -71 -8 -103 -15 -17 -14 -18 27 -13 24 3 55 13 69 22 38 25 142 128
142 141 0 14 -55 -11 -87 -40 -25 -22 -52 -17 -60 13 -5 20 -33 29 -33 10 0
-5 -4 -10 -10 -10 -6 0 -10 55 -10 145 0 80 -2 145 -5 145 -3 0 -19 -10 -35
-22 l-29 -21 -46 37 c-25 21 -45 42 -45 47 0 23 -20 6 -30 -27z"/>
<path d="M3931 2734 c0 -11 3 -14 6 -6 3 7 2 16 -1 19 -3 4 -6 -2 -5 -13z"/>
<path d="M2230 2691 c0 -6 14 -11 31 -11 17 0 40 -5 52 -11 20 -10 20 -10 7 4
-19 20 -90 34 -90 18z"/>
<path d="M2100 2642 c0 -12 5 -24 10 -27 6 -3 10 2 10 12 0 14 2 15 9 4 6 -9
18 -11 35 -7 35 9 33 26 -3 26 -16 0 -36 3 -45 6 -11 4 -16 0 -16 -14z"/>
<path d="M3912 2647 c-12 -14 -53 -107 -48 -107 2 0 15 19 28 43 37 62 47 97
20 64z"/>
<path d="M2200 2630 c0 -5 5 -10 11 -10 5 0 7 5 4 10 -3 6 -8 10 -11 10 -2 0
-4 -4 -4 -10z"/>
<path d="M2305 2620 c3 -5 8 -10 11 -10 2 0 4 5 4 10 0 6 -5 10 -11 10 -5 0
-7 -4 -4 -10z"/>
<path d="M2403 2613 c9 -9 19 -14 23 -11 10 10 -6 28 -24 28 -15 0 -15 -1 1
-17z"/>
<path d="M2550 2588 c0 -26 5 -50 10 -53 13 -8 13 65 0 85 -7 11 -10 2 -10
-32z"/>
<path d="M2131 2593 c-15 -16 -14 -18 17 -27 24 -8 28 1 9 25 -11 14 -14 14
-26 2z"/>
<path d="M2384 2571 c4 -6 12 -11 18 -11 6 0 20 -7 30 -17 10 -9 18 -11 18 -6
0 14 -19 29 -49 38 -16 5 -21 4 -17 -4z"/>
<path d="M2193 2563 c9 -2 25 -2 35 0 9 3 1 5 -18 5 -19 0 -27 -2 -17 -5z"/>
<path d="M2278 2553 c6 -2 18 -2 25 0 6 3 1 5 -13 5 -14 0 -19 -2 -12 -5z"/>
<path d="M2321 2556 c2 -2 15 -9 29 -16 23 -12 24 -12 11 3 -7 10 -20 17 -29
17 -8 0 -13 -2 -11 -4z"/>
<path d="M2130 2521 c0 -6 1 -11 3 -11 13 0 169 -30 175 -34 4 -3 14 -1 21 3
8 5 -11 12 -50 19 -66 10 -97 17 -130 27 -11 4 -19 2 -19 -4z"/>
<path d="M3481 2516 c-1 -10 11 -40 26 -68 20 -36 29 -45 35 -34 14 24 -3 77
-27 86 -13 5 -25 15 -28 22 -3 8 -6 6 -6 -6z"/>
<path d="M2426 2495 c10 -8 23 -15 28 -15 6 0 1 7 -10 15 -10 8 -23 15 -28 15
-6 0 -1 -7 10 -15z"/>
<path d="M2973 2470 c0 -16 -7 -38 -16 -48 -22 -24 -21 -32 1 -32 29 0 42 33
31 74 -12 44 -16 45 -16 6z"/>
<path d="M2360 2471 c0 -5 7 -12 16 -15 24 -9 28 -7 14 9 -14 17 -30 20 -30 6z"/>
<path d="M2420 2446 c0 -2 7 -9 15 -16 9 -7 15 -8 15 -2 0 5 -7 12 -15 16 -8
3 -15 4 -15 2z"/>
<path d="M2201 2436 c12 -10 59 -15 59 -6 0 5 -14 10 -32 10 -17 0 -29 -2 -27
-4z"/>
<path d="M2280 2422 c8 -5 31 -13 50 -17 19 -4 58 -19 85 -33 47 -23 49 -23
31 -3 -11 11 -25 21 -33 21 -8 0 -26 6 -41 14 -32 17 -116 33 -92 18z"/>
<path d="M2052 2394 c-28 -14 -16 -19 48 -23 49 -3 50 -1 5 20 -24 12 -35 12
-53 3z"/>
<path d="M2150 2380 c0 -5 19 -10 43 -13 23 -3 60 -7 82 -11 l40 -6 -30 14
c-35 15 -135 27 -135 16z"/>
<path d="M2949 2377 c-8 -12 -2 -57 7 -57 7 0 16 -5 20 -12 5 -7 3 -8 -6 -3
-10 6 -11 4 -5 -11 5 -10 10 -38 13 -61 7 -75 18 -46 16 45 -1 48 -2 89 -3 92
-1 5 -39 11 -42 7z"/>
<path d="M2320 2344 c0 -3 22 -15 50 -28 27 -13 56 -29 65 -36 12 -10 15 -10
15 2 0 8 -17 22 -37 32 -43 21 -93 37 -93 30z"/>
<path d="M2880 2318 c1 -7 7 -26 15 -43 l14 -30 -2 39 c-1 22 -8 41 -14 44 -7
2 -13 -2 -13 -10z"/>
<path d="M2280 2285 c7 -8 19 -15 26 -15 22 0 115 -51 121 -66 3 -8 9 -12 14
-9 20 13 -9 40 -77 71 -81 38 -104 43 -84 19z"/>
<path d="M1037 2227 c-7 -18 7 -134 17 -144 13 -13 22 16 19 61 -4 51 -27 105
-36 83z"/>
<path d="M990 2210 c0 -5 5 -10 10 -10 6 0 10 5 10 10 0 6 -4 10 -10 10 -5 0
-10 -4 -10 -10z"/>
<path d="M2190 2190 c0 -5 5 -10 10 -10 6 0 10 5 10 10 0 6 -4 10 -10 10 -5 0
-10 -4 -10 -10z"/>
<path d="M2248 2193 c-10 -2 -18 -11 -18 -20 0 -13 3 -13 15 -3 9 8 15 8 15 2
0 -6 26 -20 57 -32 32 -12 64 -27 72 -33 11 -10 13 -9 9 3 -2 8 -22 21 -44 30
-45 17 -75 40 -68 52 5 8 -9 9 -38 1z"/>
<path d="M2810 2180 c0 -5 5 -10 11 -10 5 0 7 5 4 10 -3 6 -8 10 -11 10 -2 0
-4 -4 -4 -10z"/>
<path d="M3030 2181 c0 -27 23 -117 33 -126 7 -7 8 -4 4 7 -4 10 -9 40 -13 68
-4 28 -11 53 -15 56 -5 3 -9 1 -9 -5z"/>
<path d="M2850 2149 c0 -5 4 -9 9 -9 5 0 23 -12 40 -26 32 -27 38 -25 21 6
-11 20 -70 45 -70 29z"/>
<path d="M1002 2134 c1 -5 -10 -29 -26 -52 -15 -24 -26 -45 -24 -47 5 -6 42
29 60 57 15 23 16 28 2 39 -8 7 -14 8 -12 3z"/>
<path d="M2092 2115 c0 -16 2 -22 5 -12 2 9 2 23 0 30 -3 6 -5 -1 -5 -18z"/>
<path d="M1104 2066 c-40 -18 -55 -39 -22 -31 13 4 32 7 42 9 22 3 44 36 24
36 -7 -1 -27 -7 -44 -14z"/>
<path d="M2990 2055 c0 -8 82 -47 88 -41 3 3 3 7 1 9 -54 32 -89 45 -89 32z"/>
<path d="M2860 1966 l0 -64 109 2 c60 0 112 4 116 8 8 8 -5 78 -15 78 -4 0
-10 -10 -13 -21 -5 -19 -11 -21 -39 -15 -18 3 -59 22 -91 41 -32 19 -60 35
-63 35 -2 0 -4 -29 -4 -64z"/>
<path d="M953 2010 c-13 -5 -23 -14 -23 -19 0 -7 9 -6 25 1 14 6 25 15 25 20
0 9 2 9 -27 -2z"/>
<path d="M4432 1975 c-22 -23 -31 -62 -12 -50 12 7 43 65 38 70 -2 2 -13 -7
-26 -20z"/>
<path d="M950 1930 c0 -5 5 -10 11 -10 5 0 7 5 4 10 -3 6 -8 10 -11 10 -2 0
-4 -4 -4 -10z"/>
<path d="M4098 1934 c-5 -4 -8 -21 -8 -38 0 -21 3 -27 11 -19 6 6 9 23 7 38
-2 15 -6 23 -10 19z"/>
<path d="M1275 1920 c3 -5 15 -10 26 -10 11 0 17 5 14 10 -3 6 -15 10 -26 10
-11 0 -17 -4 -14 -10z"/>
<path d="M1465 1909 c-18 -56 -26 -283 -12 -341 11 -49 26 -59 57 -37 11 8 12
12 3 16 -7 2 -13 11 -13 19 0 9 -5 12 -10 9 -6 -4 -8 -16 -4 -28 6 -22 6 -22
-10 -2 -8 11 -15 31 -16 45 0 19 2 22 10 10 18 -29 24 3 23 127 -1 86 -5 128
-13 133 -8 5 -10 19 -5 39 7 35 0 42 -10 10z m15 -270 c0 -6 -4 -7 -10 -4 -5
3 -10 11 -10 16 0 6 5 7 10 4 6 -3 10 -11 10 -16z"/>
<path d="M4197 1909 c-80 -19 -99 -49 -31 -49 22 0 34 5 34 14 0 7 10 21 23
29 25 18 25 18 -26 6z"/>
<path d="M1065 1863 c7 -49 11 -60 20 -51 9 8 -7 98 -17 98 -6 0 -8 -18 -3
-47z"/>
<path d="M1020 1881 c0 -11 5 -23 10 -26 6 -4 10 5 10 19 0 14 -4 26 -10 26
-5 0 -10 -9 -10 -19z"/>
<path d="M965 1860 c-3 -5 1 -10 9 -10 9 0 16 5 16 10 0 6 -4 10 -9 10 -6 0
-13 -4 -16 -10z"/>
<path d="M1210 1862 c-15 -2 -30 -13 -37 -27 -10 -22 -9 -25 8 -25 10 0 19 5
19 10 0 6 5 10 11 10 6 0 8 -8 4 -19 -3 -11 -1 -22 5 -26 5 -3 10 0 10 7 0 9
3 9 10 -2 8 -13 10 -13 10 2 0 9 -5 20 -11 23 -7 5 -5 13 6 25 18 20 7 28 -35
22z"/>
<path d="M2710 1853 c0 -9 3 -13 7 -10 3 4 12 2 20 -5 7 -6 16 -8 20 -4 7 6
-25 35 -39 36 -5 0 -8 -7 -8 -17z"/>
<path d="M3825 1863 c-57 -7 -60 -16 -10 -24 89 -13 142 -11 142 6 0 10 -4 12
-10 6 -5 -5 -19 -3 -35 5 -27 14 -32 14 -87 7z"/>
<path d="M915 1850 c-3 -5 1 -10 9 -10 9 0 16 5 16 10 0 6 -4 10 -9 10 -6 0
-13 -4 -16 -10z"/>
<path d="M3975 1840 c-3 -5 1 -10 9 -10 9 0 16 5 16 10 0 6 -4 10 -9 10 -6 0
-13 -4 -16 -10z"/>
<path d="M2710 1817 c0 -7 6 -19 13 -26 7 -8 7 -11 1 -8 -7 4 -14 -2 -17 -12
-3 -12 -17 -21 -41 -25 -31 -6 -35 -9 -26 -25 7 -14 3 -31 -15 -67 -27 -54
-34 -47 -10 10 12 27 13 42 5 56 -13 23 -22 27 -14 5 4 -8 1 -15 -5 -15 -6 0
-11 5 -11 11 0 5 -5 7 -11 3 -8 -5 -8 -8 0 -13 8 -5 6 -17 -6 -42 -17 -34 -17
-34 -23 -9 -5 23 -7 23 -13 6 -5 -12 -3 -22 5 -27 11 -7 10 -12 0 -30 -41 -66
95 -144 176 -100 12 6 36 13 52 14 17 1 30 6 30 10 0 4 9 3 20 -3 11 -6 20 -7
20 -2 0 10 32 13 125 15 100 1 166 -13 375 -78 92 -28 274 -41 334 -24 63 19
187 37 229 35 15 -1 27 2 27 7 0 5 15 7 34 5 19 -2 32 0 30 4 -11 18 74 7 99
-12 14 -11 31 -20 39 -20 7 0 25 -8 38 -17 24 -17 25 -17 10 2 -8 11 -21 27
-29 35 -13 13 -12 15 6 18 27 4 53 32 30 32 -9 0 -18 -4 -21 -8 -3 -5 -36 -4
-73 1 -67 10 -138 4 -283 -24 -112 -21 -246 -37 -295 -34 -73 4 -168 17 -180
23 -5 4 -14 8 -20 9 -5 1 -48 14 -94 28 -47 14 -105 29 -130 33 -56 8 -304 8
-346 -1 -16 -3 -41 -8 -55 -11 -14 -3 -37 -8 -51 -11 -22 -5 -30 0 -52 34 -29
43 -35 76 -14 68 6 -2 11 -12 11 -21 -1 -9 2 -16 7 -16 5 0 9 -7 9 -16 0 -8 7
-22 15 -30 13 -14 15 -14 15 -1 0 9 5 17 11 19 6 2 7 11 3 23 -8 19 -9 18 -15
-5 -5 -22 -7 -23 -14 -7 -5 12 2 34 24 68 17 28 28 56 25 62 -5 9 -4 9 5 1 8
-8 9 -18 2 -37 -6 -15 -7 -27 -1 -27 4 0 10 -6 13 -12 2 -7 2 -2 0 12 -1 14 1
32 7 40 8 12 10 10 10 -10 1 -22 2 -23 11 -7 10 17 12 17 31 -5 l20 -23 -6 23
c-5 13 -3 22 3 22 6 0 11 -5 11 -11 0 -8 6 -7 16 2 15 12 16 11 9 -11 -6 -23
-6 -23 7 -7 17 23 69 31 61 9 -5 -13 -3 -13 18 0 33 21 148 17 404 -12 200
-23 273 -22 470 7 246 36 388 37 461 5 28 -13 65 -38 82 -55 34 -36 56 -105
47 -146 -7 -34 -62 -86 -110 -107 l-36 -15 20 -28 c37 -52 48 -56 87 -38 19
10 40 17 46 17 16 0 37 32 38 58 0 18 -5 22 -22 20 -13 -2 -28 -6 -33 -10 -6
-4 -17 -3 -24 1 -10 7 -10 13 -2 30 14 25 51 36 89 26 15 -4 45 -9 68 -12 38
-4 43 -2 73 33 36 45 38 54 12 54 -10 0 -21 7 -25 15 -3 8 -14 15 -24 15 -10
0 -24 6 -31 13 -11 10 -13 9 -8 -5 10 -28 -1 -21 -18 12 -16 31 -38 33 -29 2
2 -9 -3 -2 -11 16 -11 23 -21 32 -30 28 -9 -3 -15 1 -15 10 0 8 -11 19 -25 24
-14 5 -28 17 -31 25 -4 8 -23 22 -43 31 -20 9 -43 19 -52 24 -9 5 -37 12 -63
15 -26 4 -54 14 -61 22 -13 13 -15 12 -15 -2 0 -16 -2 -16 -25 -1 -23 15 -25
15 -25 0 0 -15 -2 -15 -25 0 -30 20 -35 20 -35 1 0 -19 -19 -19 -26 0 -4 8
-10 12 -15 9 -5 -3 -7 -10 -4 -15 4 -5 -3 -9 -14 -9 -12 0 -21 7 -21 15 0 9
-6 12 -15 9 -12 -5 -13 -9 -4 -20 10 -12 8 -13 -7 -8 -10 4 -25 12 -32 17 -18
14 -27 0 -12 -18 22 -26 -21 -6 -46 21 -26 29 -37 31 -29 4 7 -21 -20 -58 -33
-46 -3 4 0 11 8 16 8 5 11 13 6 17 -4 4 -14 0 -21 -10 -8 -11 -16 -14 -19 -8
-4 6 2 19 14 31 21 21 26 40 11 40 -5 0 -12 -7 -15 -16 -5 -13 -9 -14 -21 -4
-10 8 -15 9 -15 2 0 -6 5 -14 10 -17 8 -5 7 -11 0 -20 -7 -8 -9 -19 -5 -26 6
-8 2 -8 -14 1 -16 8 -19 15 -12 23 6 8 5 18 -5 31 -14 20 -18 16 -15 -16 1
-10 -3 -18 -8 -18 -6 0 -11 5 -11 10 0 6 -5 10 -12 10 -6 0 -2 -10 10 -23 12
-13 22 -30 22 -38 -1 -9 -10 -4 -25 14 -13 15 -27 27 -31 27 -4 0 -13 8 -20
17 -7 10 -15 15 -19 11 -4 -4 5 -18 20 -33 35 -32 28 -43 -9 -14 -15 12 -30
18 -34 15 -3 -4 0 -11 7 -15 7 -5 12 -14 10 -20 -3 -7 -14 -2 -29 11 -14 13
-34 30 -45 38 -19 15 -19 15 -2 -13 10 -16 16 -31 13 -35 -3 -3 -6 0 -6 7 0 8
-7 11 -15 7 -9 -3 -15 0 -15 8 0 8 -7 16 -15 20 -17 6 -21 -9 -5 -19 6 -3 10
-13 10 -21 0 -11 -8 -7 -27 11 -34 31 -43 32 -35 3 l5 -22 -23 22 c-24 22 -46
30 -35 12 3 -5 -1 -10 -10 -10 -8 0 -18 7 -21 15 -4 8 -13 15 -21 15 -8 0 -11
-4 -8 -10 12 -19 -10 -10 -37 15 -15 14 -30 25 -33 25 -3 0 2 -11 11 -25 18
-27 5 -35 -16 -10 -7 8 -17 15 -22 15 -6 0 -5 -7 2 -15 16 -20 0 -19 -28 1
-12 8 -22 10 -22 5 0 -16 -16 -13 -34 4 -19 19 -30 19 -22 0 4 -13 2 -14 -14
-5 -11 6 -20 14 -20 19 0 4 -7 8 -15 8 -8 0 -12 -4 -9 -9 3 -4 -2 -8 -10 -8
-9 0 -16 5 -16 10 0 14 -27 12 -34 -2 -5 -10 -7 -10 -12 0 -3 6 -12 12 -20 12
-8 0 -14 5 -14 10 0 6 -5 10 -11 10 -8 0 -7 -5 1 -15 7 -9 9 -19 5 -23 -4 -4
-10 -1 -12 6 -3 6 -11 12 -19 12 -8 0 -14 5 -14 10 0 6 -4 10 -9 10 -5 0 -7
-10 -3 -22 4 -18 -3 -14 -36 20 -45 45 -52 49 -52 29z m-103 -140 c-6 -15 -15
-27 -19 -27 -12 0 -10 8 8 36 21 31 28 26 11 -9z m-47 -97 c0 -10 8 -23 17
-29 10 -5 14 -13 10 -18 -5 -4 -17 3 -27 17 -21 27 -26 50 -10 50 6 0 10 -9
10 -20z"/>
<path d="M1130 1800 c0 -5 5 -10 10 -10 6 0 10 5 10 10 0 6 -4 10 -10 10 -5 0
-10 -4 -10 -10z"/>
<path d="M3765 1770 c10 -11 23 -16 29 -12 7 4 5 8 -6 10 -10 2 -18 8 -18 13
0 5 -5 9 -12 9 -6 0 -3 -8 7 -20z"/>
<path d="M3545 1770 c3 -5 8 -10 11 -10 2 0 4 5 4 10 0 6 -5 10 -11 10 -5 0
-7 -4 -4 -10z"/>
<path d="M3835 1770 c-3 -5 -1 -10 4 -10 6 0 11 5 11 10 0 6 -2 10 -4 10 -3 0
-8 -4 -11 -10z"/>
<path d="M3205 1760 c3 -5 8 -10 11 -10 2 0 4 5 4 10 0 6 -5 10 -11 10 -5 0
-7 -4 -4 -10z"/>
<path d="M1071 1723 c-7 -13 -4 -22 11 -35 12 -10 18 -18 13 -18 -4 0 -2 -7 6
-16 11 -13 9 -14 -14 -9 -21 6 -27 4 -27 -9 0 -10 -6 -13 -16 -9 -9 3 -24 -4
-36 -17 -18 -19 -19 -26 -9 -43 10 -15 10 -21 1 -27 -9 -5 -6 -10 10 -15 15
-5 28 -1 43 13 12 11 34 27 50 37 24 16 27 16 21 1 -4 -9 -1 -16 6 -16 12 0
12 20 -2 125 -2 13 3 20 16 20 11 0 21 6 24 14 4 11 -3 12 -32 7 -23 -4 -36
-3 -36 4 0 16 -18 12 -29 -7z"/>
<path d="M2651 1624 c0 -11 3 -14 6 -6 3 7 2 16 -1 19 -3 4 -6 -2 -5 -13z"/>
<path d="M1187 1573 c-11 -10 -8 -63 3 -63 12 0 50 37 50 49 0 16 -41 27 -53
14z"/>
<path d="M1330 1541 c0 -5 7 -15 17 -22 15 -13 15 -12 4 9 -12 23 -21 28 -21
13z"/>
<path d="M1050 1520 c0 -5 5 -10 10 -10 6 0 10 5 10 10 0 6 -4 10 -10 10 -5 0
-10 -4 -10 -10z"/>
<path d="M2959 1472 c-8 -10 -18 -25 -21 -33 -4 -9 -31 -21 -64 -28 -72 -16
-108 -34 -128 -63 -10 -13 -16 -17 -16 -9 0 8 -3 12 -6 9 -3 -3 2 -22 10 -42
8 -20 12 -36 8 -36 -4 0 0 -4 7 -9 12 -8 11 -13 -10 -30 -20 -18 -21 -20 -4
-14 11 3 27 12 36 20 9 7 18 10 22 7 9 -9 -34 -41 -66 -49 -34 -9 -35 -25 -2
-25 17 0 23 -4 19 -14 -7 -19 82 -34 99 -17 6 6 27 11 46 12 l36 0 -48 15 -48
15 3 51 c2 34 -1 52 -9 55 -8 3 -13 -4 -13 -18 0 -17 -3 -20 -11 -12 -6 6 -17
9 -23 7 -12 -4 -36 35 -36 56 0 15 27 12 44 -5 26 -27 42 -18 38 19 -3 26 1
37 16 45 15 8 23 7 33 -5 20 -24 80 -51 132 -59 35 -5 47 -12 47 -24 0 -24 20
-41 46 -41 13 0 31 -11 42 -25 16 -21 18 -32 11 -64 -22 -99 -45 -114 -96 -61
-28 30 -57 39 -68 20 -3 -5 -1 -10 4 -10 6 0 11 -6 11 -12 -1 -7 -14 2 -29 20
-19 22 -31 30 -36 22 -4 -6 -1 -17 5 -25 10 -12 9 -15 -6 -15 -18 -1 -18 -1 0
-15 16 -12 17 -17 6 -30 -12 -14 -8 -15 29 -9 30 5 45 3 51 -5 4 -7 18 -14 31
-16 54 -8 387 -146 400 -166 3 -6 22 -12 40 -14 19 -2 39 -3 44 -4 6 -1 28
-17 48 -36 28 -26 36 -41 32 -55 -5 -15 0 -23 19 -32 28 -12 33 -27 14 -46
-15 -15 -58 -16 -58 -1 0 15 -16 3 -41 -32 l-21 -30 38 17 c65 29 96 28 127
-1 15 -14 27 -32 27 -40 0 -8 7 -18 14 -22 8 -5 28 -33 45 -64 l30 -57 -22
-19 c-21 -20 -87 -36 -192 -48 -27 -4 -77 -11 -110 -17 -33 -6 -85 -10 -116
-9 -30 1 -68 -3 -83 -8 l-27 -11 21 -22 c21 -23 24 -23 293 -23 150 0 335 2
412 5 77 3 148 1 159 -4 19 -9 18 -1 -1 52 -3 6 0 12 5 12 6 0 12 -12 14 -28
3 -27 4 -27 73 -28 39 0 122 -4 186 -8 120 -9 165 -2 136 22 -7 7 -31 13 -53
14 -25 1 -52 12 -76 30 -43 33 -48 34 -49 11 0 -15 -2 -14 -11 4 -13 27 -2 94
15 88 7 -3 29 23 51 56 25 39 43 58 52 55 8 -3 14 1 14 9 0 8 -2 15 -5 15 -3
0 -45 -20 -93 -45 -107 -55 -215 -101 -262 -110 -19 -4 -41 -12 -49 -19 -11
-8 -13 -8 -8 0 8 13 -25 21 -61 16 -18 -3 -22 -9 -20 -30 2 -15 -1 -27 -7 -27
-5 0 -16 -4 -23 -9 -7 -4 -26 -10 -42 -12 -25 -4 -34 1 -60 38 -18 24 -41 61
-52 83 -11 22 -23 42 -27 45 -5 4 -56 81 -109 165 -23 37 -26 49 -13 53 7 2
21 13 31 25 12 12 33 21 54 21 18 1 40 6 47 12 19 15 138 71 274 129 104 45
116 48 223 53 61 2 112 9 112 14 0 4 -17 6 -37 3 -21 -3 -58 -2 -83 4 -39 8
-41 9 -14 10 18 1 47 8 65 16 l34 14 -33 1 c-39 0 -40 21 -2 30 13 3 25 11 28
18 5 16 -9 15 -33 -2 -11 -7 -45 -19 -75 -26 -30 -7 -69 -19 -87 -26 -17 -8
-89 -20 -160 -29 -70 -8 -153 -22 -183 -31 -63 -18 -152 -24 -147 -9 2 6 18
11 35 13 18 2 44 9 57 16 14 8 40 12 58 10 39 -3 107 13 107 26 0 6 -44 7
-112 3 -83 -5 -109 -3 -104 5 4 7 13 12 20 12 22 0 129 80 178 133 50 53 67
85 51 96 -6 3 -13 23 -16 44 -6 36 -5 37 24 37 25 0 29 -4 29 -28 0 -29 31
-68 43 -56 4 4 4 18 1 31 -5 17 -1 28 12 39 18 13 18 15 2 28 -25 19 -24 56 1
56 27 0 31 -10 21 -53 -4 -21 -4 -37 1 -37 5 0 9 -10 9 -23 0 -23 17 -47 32
-47 4 0 8 12 8 26 0 14 4 23 9 20 5 -3 12 1 15 10 3 8 2 13 -3 10 -5 -3 -15 1
-22 10 -11 13 -10 17 4 26 21 11 13 28 -14 28 -11 0 -18 4 -15 9 3 4 -2 15
-12 23 -32 28 -51 28 -78 3 -15 -14 -22 -25 -15 -25 6 0 11 -5 11 -11 0 -5 -4
-8 -9 -4 -5 3 -12 1 -16 -4 -3 -6 -11 -8 -18 -6 -17 6 -48 -20 -45 -36 2 -9
-15 -19 -44 -28 -51 -15 -67 -37 -20 -26 16 3 39 1 53 -4 l24 -10 -27 0 c-15
-1 -49 -9 -75 -20 -45 -18 -153 -45 -181 -46 -7 0 -17 -7 -22 -15 -8 -13 -10
-12 -10 4 0 16 -2 16 -21 -5 l-20 -24 4 30 c5 27 4 28 -9 10 -8 -10 -14 -23
-14 -28 0 -4 -5 -5 -10 -2 -7 4 -6 13 1 26 6 12 8 23 5 26 -3 3 -11 -6 -17
-21 -13 -29 -35 -37 -24 -8 20 49 20 48 2 33 -9 -7 -17 -20 -17 -27 0 -8 -4
-14 -10 -14 -6 0 -6 9 1 26 13 36 4 41 -17 10 -20 -31 -31 -28 -14 4 15 28 4
39 -14 14 -14 -19 -14 -19 -13 1 1 11 -2 20 -8 21 -5 0 -27 8 -47 17 -21 10
-42 17 -48 17 -13 0 -50 20 -76 43 -20 17 -25 17 -65 4 -24 -8 -65 -18 -90
-21 -67 -10 -71 11 -18 82 23 30 37 52 31 48 -6 -3 -14 -1 -18 5 -3 6 -9 7
-13 2 -3 -5 -23 -19 -43 -32 -32 -19 -38 -28 -38 -57 0 -19 -4 -34 -10 -34 -5
0 -10 5 -10 11 0 6 -7 17 -15 25 -22 23 -18 42 14 75 28 28 28 29 7 29 -12 0
-28 -8 -37 -18z m781 -537 c0 -9 -86 -53 -115 -59 -37 -7 -63 5 -43 21 17 14
89 34 99 27 5 -3 17 0 26 5 19 11 33 14 33 6z m592 -507 c-7 -7 -12 -8 -12 -2
0 14 12 26 19 19 2 -3 -1 -11 -7 -17z"/>
<path d="M1293 1436 c-4 -7 -18 -17 -30 -20 -18 -6 -23 -3 -24 11 0 15 -2 14
-9 -4 -5 -13 -17 -23 -25 -23 -9 0 -42 -17 -72 -37 -49 -32 -53 -38 -35 -44
11 -4 23 -17 27 -28 6 -19 7 -19 58 4 35 16 60 37 76 62 14 21 26 32 29 25 5
-16 22 -16 22 1 0 6 7 24 14 40 14 25 13 27 -4 27 -10 0 -23 -6 -27 -14z"/>
<path d="M3146 1404 c-32 -30 -46 -54 -30 -54 3 0 24 14 45 31 29 23 44 29 61
23 20 -6 21 -5 10 8 -24 29 -48 27 -86 -8z"/>
<path d="M1296 1315 c-9 -26 -7 -32 5 -12 6 10 9 21 6 23 -2 3 -7 -2 -11 -11z"/>
<path d="M2710 1250 c0 -5 5 -10 10 -10 6 0 10 5 10 10 0 6 -4 10 -10 10 -5 0
-10 -4 -10 -10z"/>
<path d="M4051 1235 c12 -12 37 -18 85 -22 80 -5 69 13 -12 21 -27 2 -58 8
-69 12 -19 6 -19 6 -4 -11z"/>
<path d="M1190 1210 c0 -5 5 -10 11 -10 5 0 7 5 4 10 -3 6 -8 10 -11 10 -2 0
-4 -4 -4 -10z"/>
<path d="M3056 1145 c4 -9 15 -20 26 -26 20 -11 20 -11 2 15 -21 28 -37 34
-28 11z"/>
<path d="M4458 1103 c7 -3 16 -2 19 1 4 3 -2 6 -13 5 -11 0 -14 -3 -6 -6z"/>
<path d="M1231 1074 c0 -11 3 -14 6 -6 3 7 2 16 -1 19 -3 4 -6 -2 -5 -13z"/>
<path d="M2879 1063 c-12 -15 -12 -16 4 -10 10 4 23 7 28 7 5 0 9 5 9 10 0 16
-26 12 -41 -7z"/>
<path d="M1171 906 c-14 -8 -28 -22 -32 -32 -11 -28 -10 -104 2 -189 10 -64 9
-78 -4 -99 -25 -37 -7 -40 30 -4 29 28 36 31 53 20 11 -6 28 -12 39 -12 26 0
86 -26 152 -66 59 -35 84 -41 109 -24 13 9 11 14 -13 35 -29 26 -67 33 -67 13
0 -7 -6 -6 -17 4 -20 16 -146 78 -160 78 -21 0 -53 144 -53 237 0 57 -2 59
-39 39z"/>
<path d="M2520 812 c0 -5 7 -17 16 -28 14 -17 15 -17 10 -1 -3 10 -6 23 -6 28
0 5 -4 9 -10 9 -5 0 -10 -4 -10 -8z"/>
<path d="M2583 764 c0 -17 35 -50 43 -41 4 4 1 13 -5 21 -10 12 -8 13 11 9 33
-8 16 6 -19 16 -23 7 -30 5 -30 -5z"/>
<path d="M2668 743 c7 -3 16 -2 19 1 4 3 -2 6 -13 5 -11 0 -14 -3 -6 -6z"/>
<path d="M2530 721 c0 -5 5 -13 10 -16 6 -3 10 -2 10 4 0 5 -4 13 -10 16 -5 3
-10 2 -10 -4z"/>
<path d="M3446 721 c-4 -7 -5 -15 -2 -18 9 -9 19 4 14 18 -4 11 -6 11 -12 0z"/>
<path d="M4734 722 c-11 -7 -34 -46 -34 -57 0 -4 15 2 33 14 32 20 42 41 22
48 -5 1 -15 -1 -21 -5z"/>
<path d="M2673 707 c-35 -35 -40 -36 -59 -16 -22 24 -34 24 -34 0 0 -12 12
-25 30 -33 17 -7 30 -15 30 -18 0 -3 18 -4 39 -2 30 3 55 -4 103 -28 93 -48
188 -81 222 -79 17 1 38 -1 46 -4 39 -15 133 -23 177 -15 26 4 68 10 93 13 25
3 52 10 60 15 13 9 12 12 -4 25 -22 17 -40 20 -31 6 10 -18 -32 -31 -119 -37
-68 -6 -100 -3 -149 11 -34 9 -87 24 -117 32 -30 8 -68 21 -85 28 -16 8 -57
23 -90 35 -33 11 -64 26 -70 34 -5 8 -14 21 -20 30 -8 12 -13 12 -22 3z"/>
<path d="M1026 543 l-19 -25 24 7 c34 10 42 20 27 32 -10 8 -18 5 -32 -14z"/>
<path d="M1430 470 c0 -14 47 -43 59 -36 5 4 12 2 16 -4 8 -13 52 -13 60 1 9
13 5 17 -25 22 -14 3 -38 10 -53 16 -35 14 -57 14 -57 1z"/>
<path d="M1396 442 c10 -17 22 -28 26 -26 11 7 -13 46 -32 52 -8 3 -7 -5 6
-26z"/>
<path d="M1330 440 c0 -13 7 -20 20 -20 23 0 26 10 8 28 -18 18 -28 15 -28 -8z"/>
<path d="M2890 329 c0 -5 5 -7 10 -4 6 3 10 8 10 11 0 2 -4 4 -10 4 -5 0 -10
-5 -10 -11z"/>
<path d="M3046 312 c-30 -6 -11 -26 24 -26 25 -1 36 4 38 15 3 17 -15 20 -62
11z"/>
<path d="M2786 294 c-4 -10 -1 -14 6 -12 15 5 23 28 10 28 -5 0 -13 -7 -16
-16z"/>
<path d="M2585 280 c3 -5 15 -10 26 -10 11 0 17 5 14 10 -3 6 -15 10 -26 10
-11 0 -17 -4 -14 -10z"/>
</g>
</svg>
